{"glyphs":{"0":{"ha":817,"x_min":67,"x_max":746,"o":"m 317 -14 q 213 10 258 -14 q 134 76 167 33 q 84 177 101 118 q 67 306 67 236 q 102 509 67 414 q 197 675 138 604 q 333 788 256 746 q 496 829 411 829 q 600 806 554 829 q 678 739 646 782 q 728 638 711 696 q 746 508 746 579 q 710 305 746 400 q 615 139 675 210 q 478 27 556 68 q 317 -14 401 -14 m 326 32 q 469 69 401 32 q 588 169 536 106 q 669 319 639 233 q 699 506 699 406 q 684 619 699 568 q 642 706 669 669 q 576 763 615 743 q 486 783 536 783 q 343 747 411 783 q 224 645 275 710 q 144 494 174 581 q 114 308 114 408 q 128 195 114 246 q 170 108 143 144 q 237 52 197 72 q 326 32 276 32 z "},"1":{"ha":514,"x_min":3,"x_max":415,"o":"m 13 44 l 200 44 l 344 728 q 301 691 331 711 q 237 653 272 671 q 165 624 201 636 q 103 611 129 611 l 114 661 q 190 681 149 661 q 269 724 232 700 q 331 769 306 747 q 358 793 356 790 l 407 793 l 247 44 l 415 44 l 407 0 l 3 0 l 13 44 z "},"2":{"ha":674,"x_min":-14,"x_max":635,"o":"m -14 0 q 9 80 -7 32 q 58 179 25 128 q 147 280 92 231 q 286 365 201 329 q 418 424 363 397 q 510 478 474 450 q 565 541 547 507 q 583 621 583 575 q 574 672 583 647 q 544 717 564 697 q 492 750 524 738 q 415 763 460 763 q 327 747 368 763 q 254 712 286 732 q 200 672 222 692 q 169 643 178 651 l 143 675 q 169 699 146 678 q 230 744 192 719 q 319 788 268 768 q 429 807 371 807 q 519 792 481 807 q 584 753 558 778 q 622 697 610 729 q 635 631 635 665 q 615 535 635 575 q 556 462 596 494 q 458 400 517 429 q 321 338 399 371 q 207 269 256 310 q 125 185 158 228 q 73 105 92 143 q 49 44 54 67 l 528 44 l 517 0 l -14 0 l -14 0 z "},"3":{"ha":689,"x_min":-39,"x_max":642,"o":"m 204 -204 q 41 -158 106 -204 q -39 -32 -24 -111 l 4 -7 q 69 -118 14 -76 q 215 -160 125 -160 q 333 -139 279 -160 q 426 -81 388 -118 q 488 8 465 -44 q 510 122 510 60 q 457 257 510 207 q 304 307 404 307 l 274 307 l 282 350 l 314 350 q 518 414 444 350 q 592 583 592 478 q 542 709 592 663 q 408 756 492 756 q 258 715 328 756 q 146 606 189 674 l 117 629 q 172 699 139 668 q 245 753 206 731 q 330 788 285 775 q 421 800 375 800 q 512 785 471 800 q 582 742 553 769 q 626 677 611 715 q 642 594 642 639 q 624 498 642 543 q 574 417 606 453 q 497 358 542 382 q 401 328 453 335 q 517 260 476 317 q 557 124 557 204 q 529 -8 557 53 q 453 -112 501 -68 q 342 -180 406 -156 q 204 -204 278 -204 z "},"4":{"ha":704,"x_min":-37,"x_max":626,"o":"m 431 92 l -37 92 l -29 132 l 594 793 l 626 793 l 486 136 l 603 136 l 594 92 l 478 92 l 421 -176 l 374 -176 l 431 92 m 442 136 l 565 714 l 28 136 l 442 136 z "},"5":{"ha":726,"x_min":-35,"x_max":704,"o":"m 219 -207 q 52 -152 119 -207 q -35 -8 -15 -97 l 7 6 q 86 -116 26 -69 q 229 -162 146 -162 q 353 -137 293 -162 q 460 -68 414 -112 q 535 36 507 -24 q 563 167 563 96 q 547 254 563 214 q 504 323 532 294 q 438 367 476 351 q 353 383 399 383 q 212 350 282 383 q 88 254 142 317 l 39 254 q 56 294 43 265 q 84 363 68 324 q 119 450 100 403 q 158 546 139 497 q 257 793 204 657 l 704 793 l 694 747 l 285 747 l 115 325 q 234 401 169 374 q 365 428 299 428 q 465 409 419 428 q 542 357 510 390 q 593 277 575 324 q 611 175 611 231 q 577 22 611 92 q 488 -99 543 -49 q 363 -178 433 -150 q 219 -207 292 -207 z "},"6":{"ha":810,"x_min":68,"x_max":779,"o":"m 329 -14 q 222 7 271 -14 q 140 66 174 28 q 87 160 106 104 q 68 285 68 215 q 103 549 68 421 q 201 775 138 676 q 353 933 264 874 q 549 993 442 993 q 706 940 644 993 q 779 794 768 886 l 739 772 q 675 900 729 851 q 539 949 621 949 q 401 912 467 949 q 283 808 336 875 q 190 649 229 742 q 129 443 150 556 q 192 533 154 493 q 276 601 231 574 q 374 644 322 629 q 479 660 426 660 q 585 638 538 660 q 665 579 632 617 q 717 492 699 542 q 736 383 736 442 q 701 231 736 303 q 610 104 667 158 q 480 18 553 50 q 329 -14 407 -14 m 340 31 q 468 58 406 31 q 579 133 531 86 q 658 242 628 181 q 688 374 688 304 q 671 468 688 424 q 625 546 654 513 q 555 598 596 579 q 464 617 514 617 q 336 588 399 617 q 224 513 274 560 q 145 403 175 465 q 115 272 115 340 q 132 178 115 222 q 178 101 149 133 q 249 49 208 68 q 340 31 290 31 z "},"7":{"ha":710,"x_min":17,"x_max":758,"o":"m 671 764 l 128 764 l 138 810 l 758 810 l 69 -176 l 17 -176 l 671 764 z "},"8":{"ha":779,"x_min":35,"x_max":749,"o":"m 294 -10 q 184 9 232 -10 q 103 60 136 28 q 52 134 69 92 q 35 224 35 176 q 60 333 35 283 q 123 422 85 383 q 209 488 161 461 q 303 529 257 515 q 209 599 247 553 q 171 711 171 644 q 202 828 171 776 q 283 915 233 879 q 392 968 332 950 q 511 986 453 986 q 600 973 557 986 q 676 934 643 960 q 728 871 708 908 q 749 786 749 833 q 729 697 749 738 q 678 625 710 657 q 606 569 646 593 q 522 529 565 544 q 636 447 592 506 q 681 310 681 389 q 647 178 681 238 q 560 78 614 119 q 436 13 506 36 q 294 -10 367 -10 m 308 32 q 420 51 363 32 q 525 107 478 71 q 603 194 572 143 q 633 307 633 244 q 614 392 633 354 q 562 455 594 429 q 489 494 529 481 q 407 507 449 507 q 295 487 353 507 q 191 430 238 467 q 114 342 144 393 q 83 231 83 292 q 103 147 83 183 q 154 84 122 110 q 226 45 186 58 q 308 32 267 32 m 417 549 q 511 564 461 549 q 603 609 561 579 q 672 681 644 639 q 700 778 700 724 q 684 847 700 817 q 640 899 668 878 q 576 931 613 919 q 499 942 539 942 q 398 926 449 942 q 308 880 347 910 q 243 808 268 850 q 218 714 218 765 q 235 643 218 674 q 281 592 253 613 q 344 560 308 571 q 417 549 381 549 z "},"9":{"ha":788,"x_min":8,"x_max":721,"o":"m 240 -217 q 83 -163 144 -217 q 8 -18 21 -110 l 50 6 q 113 -124 58 -75 q 250 -172 167 -172 q 387 -135 322 -172 q 505 -32 451 -99 q 598 128 558 35 q 660 335 638 221 q 597 244 635 285 q 512 176 558 204 q 413 133 465 147 q 308 118 361 118 q 204 140 251 118 q 124 198 157 161 q 72 285 90 235 q 53 393 53 335 q 87 546 53 474 q 178 672 121 618 q 308 758 235 726 q 458 790 381 790 q 566 769 518 790 q 649 710 614 749 q 702 617 683 672 q 721 493 721 561 q 686 229 721 357 q 588 2 651 101 q 435 -157 524 -97 q 240 -217 347 -217 m 324 160 q 452 188 389 160 q 565 265 515 217 q 644 374 614 313 q 674 504 674 436 q 657 599 674 554 q 610 676 640 643 q 539 728 581 710 q 447 747 497 747 q 319 719 382 747 q 208 644 257 692 q 130 535 160 597 q 100 403 100 472 q 117 308 100 353 q 163 231 133 264 q 234 179 193 199 q 324 160 275 160 z "},"A":{"ha":900,"x_min":-57,"x_max":789,"o":"m 556 986 l 597 986 l 789 0 l 738 0 l 672 340 l 206 340 l -4 0 l -57 0 l 556 986 m 667 382 l 564 925 l 228 382 l 667 382 z "},"Æ":{"ha":1281,"x_min":-115,"x_max":1325,"o":"m 707 986 l 1325 986 l 1315 942 l 757 942 l 669 526 l 1156 526 l 1146 482 l 660 482 l 567 44 l 1136 44 l 1126 0 l 510 0 l 582 340 l 221 340 l -60 0 l -115 0 l 707 986 m 590 385 l 703 921 l 256 385 l 590 385 z "},"Ǽ":{"ha":1281,"x_min":-115,"x_max":1325,"o":"m 756 1147 l 726 1165 l 832 1275 l 893 1275 l 756 1147 m 707 986 l 1325 986 l 1315 942 l 757 942 l 669 526 l 1156 526 l 1146 482 l 660 482 l 567 44 l 1136 44 l 1126 0 l 510 0 l 582 340 l 221 340 l -60 0 l -115 0 l 707 986 m 590 385 l 703 921 l 256 385 l 590 385 z "},"´":{"ha":271,"x_min":53,"x_max":219,"o":"m 82 886 l 53 904 l 158 1014 l 219 1014 l 82 886 z "},"Á":{"ha":900,"x_min":-57,"x_max":789,"o":"m 556 986 l 597 986 l 789 0 l 738 0 l 672 340 l 206 340 l -4 0 l -57 0 l 556 986 m 667 382 l 564 925 l 228 382 l 667 382 m 596 1147 l 567 1165 l 672 1275 l 733 1275 l 596 1147 z "},"Ă":{"ha":900,"x_min":-57,"x_max":789,"o":"m 556 986 l 597 986 l 789 0 l 738 0 l 672 340 l 206 340 l -4 0 l -57 0 l 556 986 m 667 382 l 564 925 l 228 382 l 667 382 m 608 1189 q 663 1214 636 1189 q 701 1275 690 1239 l 735 1275 q 716 1230 729 1251 q 685 1192 703 1208 q 645 1167 667 1176 q 603 1158 624 1158 q 540 1185 564 1158 q 515 1251 515 1211 q 516 1263 515 1258 q 518 1275 517 1268 l 554 1275 q 551 1258 551 1264 q 567 1210 551 1231 q 608 1189 583 1189 z "},"˘":{"ha":342,"x_min":69,"x_max":289,"o":"m 163 928 q 217 953 190 928 q 256 1014 244 978 l 289 1014 q 270 969 283 990 q 239 931 257 947 q 199 906 221 915 q 157 897 178 897 q 94 924 118 897 q 69 990 69 950 q 70 1002 69 997 q 72 1014 71 1007 l 108 1014 q 106 997 106 1003 q 122 949 106 969 q 163 928 138 928 z "},"Â":{"ha":900,"x_min":-57,"x_max":789,"o":"m 556 986 l 597 986 l 789 0 l 738 0 l 672 340 l 206 340 l -4 0 l -57 0 l 556 986 m 667 382 l 564 925 l 228 382 l 667 382 m 471 1168 l 618 1275 l 654 1275 l 757 1168 l 722 1147 l 628 1235 l 497 1147 l 471 1168 z "},"ˆ":{"ha":411,"x_min":71,"x_max":357,"o":"m 71 907 l 218 1014 l 254 1014 l 357 907 l 322 886 l 228 974 l 97 886 l 71 907 z "},"Ä":{"ha":900,"x_min":-57,"x_max":789,"o":"m 556 986 l 597 986 l 789 0 l 738 0 l 672 340 l 206 340 l -4 0 l -57 0 l 556 986 m 667 382 l 564 925 l 228 382 l 667 382 m 501 1160 l 525 1274 l 568 1274 l 544 1160 l 501 1160 m 668 1160 l 692 1274 l 735 1274 l 711 1160 l 668 1160 z "},"¨":{"ha":353,"x_min":65,"x_max":299,"o":"m 65 899 l 89 1013 l 132 1013 l 108 899 l 65 899 m 232 899 l 256 1013 l 299 1013 l 275 899 l 232 899 z "},"À":{"ha":900,"x_min":-57,"x_max":789,"o":"m 556 986 l 597 986 l 789 0 l 738 0 l 672 340 l 206 340 l -4 0 l -57 0 l 556 986 m 667 382 l 564 925 l 228 382 l 667 382 m 522 1275 l 583 1275 l 643 1165 l 606 1147 l 522 1275 z "},"`":{"ha":272,"x_min":81,"x_max":201,"o":"m 81 1014 l 142 1014 l 201 904 l 164 886 l 81 1014 z "},"Ā":{"ha":900,"x_min":-57,"x_max":813,"o":"m 556 986 l 597 986 l 789 0 l 738 0 l 672 340 l 206 340 l -4 0 l -57 0 l 556 986 m 667 382 l 564 925 l 228 382 l 667 382 m 432 1204 l 439 1243 l 813 1243 l 804 1204 l 432 1204 z "},"¯":{"ha":508,"x_min":75,"x_max":456,"o":"m 75 943 l 82 982 l 456 982 l 447 943 l 75 943 z "},"Ą":{"ha":900,"x_min":-57,"x_max":789,"o":"m 675 -228 q 629 -200 644 -219 q 614 -154 614 -181 q 642 -81 614 -117 q 738 0 669 -46 l 672 340 l 206 340 l -4 0 l -57 0 l 556 986 l 597 986 l 789 0 q 722 -44 749 -25 q 680 -79 696 -62 q 658 -112 664 -96 q 651 -144 651 -128 q 701 -196 651 -186 l 675 -228 m 667 382 l 564 925 l 228 382 l 667 382 z "},"˛":{"ha":283,"x_min":35,"x_max":210,"o":"m 96 -228 q 50 -200 65 -219 q 35 -154 35 -181 q 70 -74 35 -112 q 193 21 106 -35 l 210 0 q 143 -44 169 -25 q 101 -79 117 -62 q 78 -112 85 -96 q 72 -144 72 -128 q 122 -196 72 -186 l 96 -228 l 96 -228 z "},"Å":{"ha":900,"x_min":-57,"x_max":789,"o":"m 556 986 l 597 986 l 789 0 l 738 0 l 672 340 l 206 340 l -4 0 l -57 0 l 556 986 m 667 382 l 564 925 l 228 382 l 667 382 m 533 1176 q 565 1247 533 1218 q 636 1275 596 1275 q 684 1256 667 1275 q 701 1208 701 1238 q 671 1139 701 1168 q 600 1110 640 1110 q 551 1128 569 1110 q 533 1176 533 1147 m 629 1249 q 583 1230 604 1249 q 563 1182 563 1211 q 574 1149 563 1163 q 606 1136 586 1136 q 651 1156 629 1136 q 674 1203 674 1175 q 661 1236 674 1224 q 629 1249 649 1249 z "},"˚":{"ha":318,"x_min":83,"x_max":251,"o":"m 83 915 q 115 985 83 957 q 186 1014 146 1014 q 234 995 217 1014 q 251 947 251 976 q 221 878 251 907 q 150 849 190 849 q 101 867 119 849 q 83 915 83 886 m 179 988 q 133 969 154 988 q 113 921 113 950 q 124 888 113 901 q 156 875 136 875 q 201 894 179 875 q 224 942 224 914 q 211 975 224 963 q 179 988 199 988 z "},"Ǻ":{"ha":901,"x_min":-57,"x_max":789,"o":"m 506 1026 q 537 1097 506 1068 q 608 1125 568 1125 q 656 1106 639 1125 q 674 1058 674 1088 q 653 999 674 1025 q 601 964 632 974 l 789 0 l 738 0 l 672 340 l 206 340 l -4 0 l -57 0 l 543 965 q 506 1026 506 981 m 667 382 l 564 925 l 228 382 l 667 382 m 601 1099 q 556 1080 576 1099 q 535 1032 535 1061 q 547 999 535 1013 q 578 986 558 986 q 624 1006 601 986 q 646 1053 646 1025 q 633 1086 646 1074 q 601 1099 621 1099 m 592 1149 l 563 1167 l 668 1275 l 729 1275 l 592 1149 z "},"Ã":{"ha":900,"x_min":-57,"x_max":825,"o":"m 556 986 l 597 986 l 789 0 l 738 0 l 672 340 l 206 340 l -4 0 l -57 0 l 556 986 m 667 382 l 564 925 l 228 382 l 667 382 m 689 1172 q 640 1181 660 1172 q 603 1199 619 1189 q 571 1217 586 1208 q 535 1225 556 1225 q 499 1216 514 1225 q 474 1195 483 1207 q 459 1172 464 1183 q 453 1158 454 1161 l 418 1158 q 425 1180 418 1163 q 447 1215 432 1197 q 486 1248 463 1233 q 544 1263 510 1263 q 589 1254 571 1263 q 623 1235 607 1246 q 656 1217 639 1225 q 699 1208 674 1208 q 742 1218 725 1208 q 770 1240 760 1228 q 785 1262 781 1251 q 790 1275 790 1272 l 825 1275 q 817 1253 824 1269 q 794 1218 810 1236 q 752 1186 778 1200 q 689 1172 726 1172 z "},"˜":{"ha":515,"x_min":60,"x_max":467,"o":"m 331 911 q 281 919 301 911 q 244 938 261 928 q 213 956 228 947 q 176 964 197 964 q 140 955 156 964 q 115 934 125 946 q 101 911 106 922 q 94 897 96 900 l 60 897 q 67 919 60 901 q 89 954 74 936 q 128 987 104 972 q 186 1001 151 1001 q 231 993 213 1001 q 265 974 249 985 q 298 956 281 964 q 340 947 315 947 q 384 957 367 947 q 412 978 401 967 q 427 1001 422 990 q 432 1014 432 1011 l 467 1014 q 458 992 465 1008 q 435 957 451 975 q 394 925 419 939 q 331 911 368 911 z "},"B":{"ha":878,"x_min":42,"x_max":844,"o":"m 251 986 l 678 986 q 751 969 719 986 q 803 924 782 951 q 834 860 824 896 q 844 785 844 824 q 830 697 844 740 q 790 618 815 654 q 731 553 765 582 q 654 506 696 524 q 749 429 717 485 q 782 304 782 374 q 756 188 782 243 q 687 90 729 132 q 590 24 644 49 q 479 0 535 0 l 42 0 l 251 986 m 488 44 q 578 67 535 44 q 657 125 622 89 q 713 207 692 161 q 733 301 733 253 q 724 368 733 336 q 695 424 714 400 q 649 462 676 447 q 589 476 622 476 l 190 476 l 99 44 l 488 44 m 561 519 q 649 542 607 519 q 724 600 692 564 q 776 681 757 636 q 796 774 796 726 q 787 839 796 808 q 760 892 778 869 q 717 928 743 915 q 660 942 692 942 l 290 942 l 200 519 l 561 519 z "},"C":{"ha":918,"x_min":71,"x_max":928,"o":"m 410 -8 q 266 26 329 -8 q 160 119 203 61 q 94 253 117 178 q 71 407 71 328 q 113 612 71 508 q 229 800 154 715 q 406 938 304 885 q 629 992 508 992 q 742 976 692 992 q 829 931 792 960 q 892 863 867 903 q 928 776 917 824 l 882 757 q 840 846 867 810 q 777 904 813 882 q 700 936 742 926 q 615 946 658 946 q 416 897 507 946 q 259 769 325 847 q 156 597 193 692 q 118 408 118 501 q 140 266 118 333 q 201 148 161 199 q 298 67 242 97 q 425 38 354 38 q 518 49 469 38 q 615 85 567 61 q 709 147 664 110 q 792 238 754 185 l 831 221 q 745 122 794 165 q 639 50 696 79 q 523 6 582 21 q 410 -8 464 -8 z "},"\r":{"ha":0,"x_min":0,"x_max":0,"o":""},"Ć":{"ha":918,"x_min":71,"x_max":928,"o":"m 657 1147 l 628 1165 l 733 1275 l 794 1275 l 657 1147 m 410 -8 q 266 26 329 -8 q 160 119 203 61 q 94 253 117 178 q 71 407 71 328 q 113 612 71 508 q 229 800 154 715 q 406 938 304 885 q 629 992 508 992 q 742 976 692 992 q 829 931 792 960 q 892 863 867 903 q 928 776 917 824 l 882 757 q 840 846 867 810 q 777 904 813 882 q 700 936 742 926 q 615 946 658 946 q 416 897 507 946 q 259 769 325 847 q 156 597 193 692 q 118 408 118 501 q 140 266 118 333 q 201 148 161 199 q 298 67 242 97 q 425 38 354 38 q 518 49 469 38 q 615 85 567 61 q 709 147 664 110 q 792 238 754 185 l 831 221 q 745 122 794 165 q 639 50 696 79 q 523 6 582 21 q 410 -8 464 -8 z "},"Č":{"ha":918,"x_min":71,"x_max":928,"o":"m 543 1256 l 578 1275 l 672 1188 l 803 1275 l 829 1256 l 681 1147 l 644 1147 l 543 1256 m 410 -8 q 266 26 329 -8 q 160 119 203 61 q 94 253 117 178 q 71 407 71 328 q 113 612 71 508 q 229 800 154 715 q 406 938 304 885 q 629 992 508 992 q 742 976 692 992 q 829 931 792 960 q 892 863 867 903 q 928 776 917 824 l 882 757 q 840 846 867 810 q 777 904 813 882 q 700 936 742 926 q 615 946 658 946 q 416 897 507 946 q 259 769 325 847 q 156 597 193 692 q 118 408 118 501 q 140 266 118 333 q 201 148 161 199 q 298 67 242 97 q 425 38 354 38 q 518 49 469 38 q 615 85 567 61 q 709 147 664 110 q 792 238 754 185 l 831 221 q 745 122 794 165 q 639 50 696 79 q 523 6 582 21 q 410 -8 464 -8 z "},"ˇ":{"ha":411,"x_min":75,"x_max":361,"o":"m 75 994 l 110 1014 l 204 926 l 335 1014 l 361 994 l 213 886 l 176 886 l 75 994 z "},"Ç":{"ha":914,"x_min":67,"x_max":924,"o":"m 269 -174 q 317 -191 288 -183 q 379 -199 346 -199 q 469 -135 469 -199 q 453 -104 469 -112 q 414 -96 438 -96 q 354 -103 386 -96 q 303 -117 322 -110 l 385 -7 q 249 33 308 -3 q 149 127 190 69 q 88 257 108 185 q 67 407 67 329 q 108 612 67 508 q 225 800 150 715 q 402 938 300 885 q 625 992 504 992 q 738 976 688 992 q 825 931 788 960 q 888 863 863 903 q 924 776 913 824 l 878 757 q 835 846 863 810 q 773 904 808 882 q 696 936 738 926 q 611 946 654 946 q 412 897 503 946 q 255 769 321 847 q 151 597 189 692 q 114 408 114 501 q 135 266 114 333 q 197 148 157 199 q 294 67 238 97 q 421 38 350 38 q 514 49 465 38 q 611 85 563 61 q 705 147 660 110 q 788 238 750 185 l 826 221 q 744 126 792 167 q 643 56 697 85 q 532 10 589 26 q 422 -7 475 -6 l 369 -76 q 399 -69 383 -71 q 425 -68 414 -68 q 503 -129 503 -68 q 467 -205 503 -179 q 367 -231 432 -231 q 301 -223 331 -231 q 247 -204 271 -215 l 269 -174 z "},"¸":{"ha":344,"x_min":-14,"x_max":242,"o":"m 8 -174 q 56 -191 26 -183 q 118 -199 85 -199 q 208 -135 208 -199 q 192 -104 208 -112 q 153 -96 176 -96 q 93 -103 125 -96 q 42 -117 61 -110 l 143 18 l 169 1 l 108 -76 q 138 -69 122 -71 q 164 -68 153 -68 q 242 -129 242 -68 q 206 -205 242 -179 q 106 -231 171 -231 q 40 -223 69 -231 q -14 -204 10 -215 l 8 -174 z "},"Ĉ":{"ha":918,"x_min":71,"x_max":928,"o":"m 535 1168 l 682 1275 l 718 1275 l 821 1168 l 786 1147 l 692 1235 l 561 1147 l 535 1168 m 410 -8 q 266 26 329 -8 q 160 119 203 61 q 94 253 117 178 q 71 407 71 328 q 113 612 71 508 q 229 800 154 715 q 406 938 304 885 q 629 992 508 992 q 742 976 692 992 q 829 931 792 960 q 892 863 867 903 q 928 776 917 824 l 882 757 q 840 846 867 810 q 777 904 813 882 q 700 936 742 926 q 615 946 658 946 q 416 897 507 946 q 259 769 325 847 q 156 597 193 692 q 118 408 118 501 q 140 266 118 333 q 201 148 161 199 q 298 67 242 97 q 425 38 354 38 q 518 49 469 38 q 615 85 567 61 q 709 147 664 110 q 792 238 754 185 l 831 221 q 745 122 794 165 q 639 50 696 79 q 523 6 582 21 q 410 -8 464 -8 z "},"Ċ":{"ha":918,"x_min":71,"x_max":928,"o":"m 410 -8 q 266 26 329 -8 q 160 119 203 61 q 94 253 117 178 q 71 407 71 328 q 113 612 71 508 q 229 800 154 715 q 406 938 304 885 q 629 992 508 992 q 742 976 692 992 q 829 931 792 960 q 892 863 867 903 q 928 776 917 824 l 882 757 q 840 846 867 810 q 777 904 813 882 q 700 936 742 926 q 615 946 658 946 q 416 897 507 946 q 259 769 325 847 q 156 597 193 692 q 118 408 118 501 q 140 266 118 333 q 201 148 161 199 q 298 67 242 97 q 425 38 354 38 q 518 49 469 38 q 615 85 567 61 q 709 147 664 110 q 792 238 754 185 l 831 221 q 745 122 794 165 q 639 50 696 79 q 523 6 582 21 q 410 -8 464 -8 m 653 1160 l 678 1275 l 722 1275 l 699 1160 l 653 1160 z "},"˙":{"ha":175,"x_min":58,"x_max":128,"o":"m 58 899 l 83 1014 l 128 1014 l 104 899 l 58 899 z "},"D":{"ha":953,"x_min":42,"x_max":911,"o":"m 251 986 l 558 986 q 715 957 649 986 q 826 877 782 928 q 890 758 869 826 q 911 610 911 689 q 869 367 911 479 q 751 174 826 256 q 574 47 676 93 q 349 0 471 0 l 42 0 l 251 986 m 358 44 q 569 90 476 44 q 728 213 663 136 q 828 391 793 290 q 863 601 863 492 q 843 739 863 676 q 784 847 824 801 q 685 917 744 892 q 549 942 626 942 l 290 942 l 99 44 l 358 44 z "},"Ď":{"ha":953,"x_min":42,"x_max":911,"o":"m 490 1256 l 525 1275 l 619 1188 l 750 1275 l 776 1256 l 628 1147 l 592 1147 l 490 1256 m 251 986 l 558 986 q 715 957 649 986 q 826 877 782 928 q 890 758 869 826 q 911 610 911 689 q 869 367 911 479 q 751 174 826 256 q 574 47 676 93 q 349 0 471 0 l 42 0 l 251 986 m 358 44 q 569 90 476 44 q 728 213 663 136 q 828 391 793 290 q 863 601 863 492 q 843 739 863 676 q 784 847 824 801 q 685 917 744 892 q 549 942 626 942 l 290 942 l 99 44 l 358 44 z "},"Đ":{"ha":963,"x_min":51,"x_max":921,"o":"m 72 517 l 161 517 l 261 986 l 568 986 q 725 957 658 986 q 835 877 792 928 q 900 758 879 826 q 921 610 921 689 q 878 367 921 479 q 761 174 836 256 q 583 47 686 93 q 358 0 481 0 l 51 0 l 151 475 l 64 475 l 72 517 m 368 44 q 579 90 486 44 q 738 213 672 136 q 838 391 803 290 q 872 601 872 492 q 853 739 872 676 q 794 847 833 801 q 695 917 754 892 q 558 942 636 942 l 300 942 l 208 517 l 453 517 l 444 475 l 200 475 l 108 44 l 368 44 z "},"E":{"ha":814,"x_min":42,"x_max":860,"o":"m 251 986 l 860 986 l 850 942 l 290 942 l 201 526 l 692 526 l 682 482 l 192 482 l 99 44 l 671 44 l 663 0 l 42 0 l 251 986 z "},"É":{"ha":814,"x_min":42,"x_max":860,"o":"m 563 1147 l 533 1165 l 639 1275 l 700 1275 l 563 1147 m 251 986 l 860 986 l 850 942 l 290 942 l 201 526 l 692 526 l 682 482 l 192 482 l 99 44 l 671 44 l 663 0 l 42 0 l 251 986 z "},"Ĕ":{"ha":814,"x_min":42,"x_max":860,"o":"m 251 986 l 860 986 l 850 942 l 290 942 l 201 526 l 692 526 l 682 482 l 192 482 l 99 44 l 671 44 l 663 0 l 42 0 l 251 986 m 593 1189 q 648 1214 621 1189 q 686 1275 675 1239 l 719 1275 q 701 1230 714 1251 q 669 1192 688 1208 q 630 1167 651 1176 q 588 1158 608 1158 q 524 1185 549 1158 q 500 1251 500 1211 q 501 1263 500 1258 q 503 1275 501 1268 l 539 1275 q 536 1258 536 1264 q 552 1210 536 1231 q 593 1189 568 1189 z "},"Ě":{"ha":814,"x_min":42,"x_max":860,"o":"m 463 1256 l 497 1275 l 592 1188 l 722 1275 l 749 1256 l 600 1147 l 564 1147 l 463 1256 m 251 986 l 860 986 l 850 942 l 290 942 l 201 526 l 692 526 l 682 482 l 192 482 l 99 44 l 671 44 l 663 0 l 42 0 l 251 986 z "},"Ê":{"ha":814,"x_min":42,"x_max":860,"o":"m 460 1168 l 607 1275 l 643 1275 l 746 1168 l 711 1147 l 617 1235 l 486 1147 l 460 1168 m 251 986 l 860 986 l 850 942 l 290 942 l 201 526 l 692 526 l 682 482 l 192 482 l 99 44 l 671 44 l 663 0 l 42 0 l 251 986 z "},"Ë":{"ha":814,"x_min":42,"x_max":860,"o":"m 485 1160 l 508 1274 l 551 1274 l 528 1160 l 485 1160 m 651 1160 l 675 1274 l 718 1274 l 694 1160 l 651 1160 m 251 986 l 860 986 l 850 942 l 290 942 l 201 526 l 692 526 l 682 482 l 192 482 l 99 44 l 671 44 l 663 0 l 42 0 l 251 986 z "},"Ė":{"ha":814,"x_min":42,"x_max":860,"o":"m 251 986 l 860 986 l 850 942 l 290 942 l 201 526 l 692 526 l 682 482 l 192 482 l 99 44 l 671 44 l 663 0 l 42 0 l 251 986 m 574 1160 l 599 1275 l 643 1275 l 619 1160 l 574 1160 z "},"È":{"ha":814,"x_min":42,"x_max":860,"o":"m 251 986 l 860 986 l 850 942 l 290 942 l 201 526 l 692 526 l 682 482 l 192 482 l 99 44 l 671 44 l 663 0 l 42 0 l 251 986 m 506 1275 l 567 1275 l 626 1165 l 589 1147 l 506 1275 z "},"Ē":{"ha":814,"x_min":42,"x_max":860,"o":"m 251 986 l 860 986 l 850 942 l 290 942 l 201 526 l 692 526 l 682 482 l 192 482 l 99 44 l 671 44 l 663 0 l 42 0 l 251 986 m 415 1204 l 422 1243 l 796 1243 l 788 1204 l 415 1204 z "},"Ŋ":{"ha":1031,"x_min":42,"x_max":1018,"o":"m 572 -240 q 500 -230 532 -240 q 446 -192 468 -219 l 481 -161 q 526 -189 500 -182 q 579 -196 551 -196 q 633 -184 606 -196 q 685 -152 661 -172 q 727 -105 708 -132 q 753 -46 746 -78 l 763 0 l 281 894 l 90 0 l 42 0 l 251 986 l 288 986 l 778 78 l 971 985 l 1018 985 l 800 -46 q 767 -124 790 -89 q 711 -185 743 -160 q 642 -226 679 -211 q 572 -240 606 -240 z "},"Ę":{"ha":814,"x_min":42,"x_max":860,"o":"m 251 986 l 860 986 l 850 942 l 290 942 l 201 526 l 692 526 l 682 482 l 192 482 l 99 44 l 671 44 l 663 0 l 388 0 q 321 -44 347 -25 q 278 -79 294 -62 q 256 -112 263 -96 q 250 -144 250 -128 q 300 -196 250 -186 l 274 -228 q 228 -200 243 -219 q 213 -154 213 -181 q 240 -81 213 -117 q 339 0 268 -46 l 42 0 l 251 986 z "},"Ð":{"ha":963,"x_min":51,"x_max":921,"o":"m 72 517 l 161 517 l 261 986 l 568 986 q 725 957 658 986 q 835 877 792 928 q 900 758 879 826 q 921 610 921 689 q 878 367 921 479 q 761 174 836 256 q 583 47 686 93 q 358 0 481 0 l 51 0 l 151 475 l 64 475 l 72 517 m 368 44 q 579 90 486 44 q 738 213 672 136 q 838 391 803 290 q 872 601 872 492 q 853 739 872 676 q 794 847 833 801 q 695 917 754 892 q 558 942 636 942 l 300 942 l 208 517 l 453 517 l 444 475 l 200 475 l 108 44 l 368 44 z "},"Ẽ":{"ha":814,"x_min":42,"x_max":860,"o":"m 251 986 l 860 986 l 850 942 l 290 942 l 201 526 l 692 526 l 682 482 l 192 482 l 99 44 l 671 44 l 663 0 l 42 0 l 251 986 m 663 1172 q 613 1181 633 1172 q 576 1199 593 1189 q 544 1217 560 1208 q 508 1225 529 1225 q 472 1216 488 1225 q 447 1195 457 1207 q 433 1172 438 1183 q 426 1158 428 1161 l 392 1158 q 399 1180 392 1163 q 421 1215 406 1197 q 460 1248 436 1233 q 518 1263 483 1263 q 563 1254 544 1263 q 597 1235 581 1246 q 630 1217 613 1225 q 672 1208 647 1208 q 716 1218 699 1208 q 744 1240 733 1228 q 759 1262 754 1251 q 764 1275 764 1272 l 799 1275 q 790 1253 797 1269 q 767 1218 783 1236 q 726 1186 751 1200 q 663 1172 700 1172 z "},"€":{"ha":1072,"x_min":40,"x_max":1056,"o":"m 222 563 q 297 724 247 646 q 417 860 347 801 q 572 956 486 919 q 757 992 658 992 q 869 976 819 992 q 957 931 919 960 q 1019 863 994 903 q 1056 776 1044 824 l 1010 757 q 967 846 994 810 q 905 904 940 882 q 828 936 869 926 q 743 946 786 946 q 581 914 657 946 q 444 828 506 882 q 339 706 383 775 q 271 563 294 638 l 772 563 l 747 526 l 261 526 q 246 432 247 475 l 693 432 l 668 394 l 246 394 q 270 256 247 321 q 333 143 293 192 q 428 66 372 94 q 553 38 483 38 q 646 49 597 38 q 743 85 694 61 q 838 147 792 110 q 921 238 883 185 l 958 221 q 873 122 922 165 q 767 50 824 79 q 651 6 710 21 q 538 -8 592 -8 q 396 25 458 -8 q 290 115 333 58 q 224 244 247 171 q 199 394 200 317 l 40 394 l 65 432 l 199 432 q 203 479 200 456 q 213 526 207 503 l 117 526 l 140 563 l 222 563 z "},"F":{"ha":810,"x_min":42,"x_max":858,"o":"m 251 986 l 858 986 l 849 942 l 290 942 l 203 525 l 676 525 l 668 482 l 192 482 l 90 0 l 42 0 l 251 986 z "},"G":{"ha":956,"x_min":71,"x_max":929,"o":"m 776 161 q 417 -7 603 -7 q 269 28 333 -7 q 161 120 206 63 q 94 252 117 178 q 71 406 71 326 q 116 619 71 514 q 237 808 161 725 q 411 942 313 890 q 617 993 510 993 q 741 977 688 993 q 832 933 794 961 q 893 865 869 904 q 929 778 917 825 l 883 757 q 783 903 854 858 q 606 947 711 947 q 417 899 506 947 q 261 773 328 850 q 156 599 194 696 q 118 408 118 503 q 140 266 118 333 q 203 149 163 199 q 300 69 243 99 q 428 39 357 39 q 605 82 517 39 q 789 218 693 125 l 835 432 l 619 432 l 628 474 l 888 474 l 786 0 l 743 0 l 776 161 z "},"Ğ":{"ha":956,"x_min":71,"x_max":929,"o":"m 776 161 q 417 -7 603 -7 q 269 28 333 -7 q 161 120 206 63 q 94 252 117 178 q 71 406 71 326 q 116 619 71 514 q 237 808 161 725 q 411 942 313 890 q 617 993 510 993 q 741 977 688 993 q 832 933 794 961 q 893 865 869 904 q 929 778 917 825 l 883 757 q 783 903 854 858 q 606 947 711 947 q 417 899 506 947 q 261 773 328 850 q 156 599 194 696 q 118 408 118 503 q 140 266 118 333 q 203 149 163 199 q 300 69 243 99 q 428 39 357 39 q 605 82 517 39 q 789 218 693 125 l 835 432 l 619 432 l 628 474 l 888 474 l 786 0 l 743 0 l 776 161 m 651 1189 q 706 1214 679 1189 q 744 1275 733 1239 l 778 1275 q 759 1230 772 1251 q 728 1192 746 1208 q 688 1167 710 1176 q 646 1158 667 1158 q 583 1185 607 1158 q 558 1251 558 1211 q 559 1263 558 1258 q 561 1275 560 1268 l 597 1275 q 594 1258 594 1264 q 610 1210 594 1231 q 651 1189 626 1189 z "},"Ĝ":{"ha":956,"x_min":71,"x_max":929,"o":"m 511 1168 l 658 1275 l 694 1275 l 797 1168 l 763 1147 l 668 1235 l 538 1147 l 511 1168 m 776 161 q 417 -7 603 -7 q 269 28 333 -7 q 161 120 206 63 q 94 252 117 178 q 71 406 71 326 q 116 619 71 514 q 237 808 161 725 q 411 942 313 890 q 617 993 510 993 q 741 977 688 993 q 832 933 794 961 q 893 865 869 904 q 929 778 917 825 l 883 757 q 783 903 854 858 q 606 947 711 947 q 417 899 506 947 q 261 773 328 850 q 156 599 194 696 q 118 408 118 503 q 140 266 118 333 q 203 149 163 199 q 300 69 243 99 q 428 39 357 39 q 605 82 517 39 q 789 218 693 125 l 835 432 l 619 432 l 628 474 l 888 474 l 786 0 l 743 0 l 776 161 z "},"Ģ":{"ha":956,"x_min":71,"x_max":929,"o":"m 331 -244 l 365 -158 l 349 -158 l 368 -69 l 418 -69 l 399 -158 l 358 -244 l 331 -244 m 776 161 q 417 -7 603 -7 q 269 28 333 -7 q 161 120 206 63 q 94 252 117 178 q 71 406 71 326 q 116 619 71 514 q 237 808 161 725 q 411 942 313 890 q 617 993 510 993 q 741 977 688 993 q 832 933 794 961 q 893 865 869 904 q 929 778 917 825 l 883 757 q 783 903 854 858 q 606 947 711 947 q 417 899 506 947 q 261 773 328 850 q 156 599 194 696 q 118 408 118 503 q 140 266 118 333 q 203 149 163 199 q 300 69 243 99 q 428 39 357 39 q 605 82 517 39 q 789 218 693 125 l 835 432 l 619 432 l 628 474 l 888 474 l 786 0 l 743 0 l 776 161 z "},"":{"ha":174,"x_min":21,"x_max":108,"o":"m 21 -244 l 56 -158 l 39 -158 l 58 -69 l 108 -69 l 89 -158 l 49 -244 l 21 -244 z "},"Ġ":{"ha":956,"x_min":71,"x_max":929,"o":"m 776 161 q 417 -7 603 -7 q 269 28 333 -7 q 161 120 206 63 q 94 252 117 178 q 71 406 71 326 q 116 619 71 514 q 237 808 161 725 q 411 942 313 890 q 617 993 510 993 q 741 977 688 993 q 832 933 794 961 q 893 865 869 904 q 929 778 917 825 l 883 757 q 783 903 854 858 q 606 947 711 947 q 417 899 506 947 q 261 773 328 850 q 156 599 194 696 q 118 408 118 503 q 140 266 118 333 q 203 149 163 199 q 300 69 243 99 q 428 39 357 39 q 605 82 517 39 q 789 218 693 125 l 835 432 l 619 432 l 628 474 l 888 474 l 786 0 l 743 0 l 776 161 m 632 1160 l 657 1275 l 701 1275 l 678 1160 l 632 1160 z "},"H":{"ha":976,"x_min":42,"x_max":967,"o":"m 251 986 l 300 986 l 201 526 l 821 526 l 919 986 l 967 986 l 757 0 l 710 0 l 813 482 l 192 482 l 90 0 l 42 0 l 251 986 z "},"Ħ":{"ha":989,"x_min":49,"x_max":1000,"o":"m 154 803 l 219 803 l 258 986 l 306 986 l 267 803 l 886 803 l 925 986 l 974 986 l 935 803 l 1000 803 l 992 768 l 926 768 l 764 0 l 715 0 l 818 482 l 199 482 l 96 0 l 49 0 l 211 768 l 146 768 l 154 803 m 828 526 l 879 768 l 258 768 l 208 526 l 828 526 z "},"Ĥ":{"ha":976,"x_min":42,"x_max":967,"o":"m 504 1168 l 651 1275 l 688 1275 l 790 1168 l 756 1147 l 661 1235 l 531 1147 l 504 1168 m 251 986 l 300 986 l 201 526 l 821 526 l 919 986 l 967 986 l 757 0 l 710 0 l 813 482 l 192 482 l 90 0 l 42 0 l 251 986 z "},"I":{"ha":310,"x_min":42,"x_max":300,"o":"m 251 985 l 300 985 l 90 0 l 42 0 l 251 985 z "},"Ĳ":{"ha":950,"x_min":42,"x_max":953,"o":"m 251 985 l 300 985 l 90 0 l 42 0 l 251 985 m 454 -15 q 264 46 336 -15 l 289 85 q 463 31 350 31 q 597 61 543 31 q 688 150 650 92 q 750 293 725 208 q 799 485 775 378 l 906 985 l 953 985 l 846 485 q 794 280 822 372 q 722 122 765 188 q 614 21 678 57 q 454 -15 550 -15 z "},"J":{"ha":640,"x_min":-46,"x_max":643,"o":"m 144 -15 q -46 46 26 -15 l -21 85 q 153 31 40 31 q 287 61 233 31 q 378 150 340 92 q 440 293 415 208 q 489 485 465 378 l 596 985 l 643 985 l 536 485 q 484 280 513 372 q 412 122 456 188 q 304 21 368 57 q 144 -15 240 -15 z "},"Í":{"ha":310,"x_min":42,"x_max":433,"o":"m 251 985 l 300 985 l 90 0 l 42 0 l 251 985 m 296 1147 l 267 1165 l 372 1275 l 433 1275 l 296 1147 z "},"Ĭ":{"ha":310,"x_min":42,"x_max":431,"o":"m 251 985 l 300 985 l 90 0 l 42 0 l 251 985 m 304 1189 q 359 1214 332 1189 q 397 1275 386 1239 l 431 1275 q 412 1230 425 1251 q 381 1192 399 1208 q 341 1167 363 1176 q 299 1158 319 1158 q 235 1185 260 1158 q 211 1251 211 1211 q 212 1263 211 1258 q 214 1275 213 1268 l 250 1275 q 247 1258 247 1264 q 263 1210 247 1231 q 304 1189 279 1189 z "},"Î":{"ha":310,"x_min":42,"x_max":457,"o":"m 251 985 l 300 985 l 90 0 l 42 0 l 251 985 m 171 1168 l 318 1275 l 354 1275 l 457 1168 l 422 1147 l 328 1235 l 197 1147 l 171 1168 z "},"Ï":{"ha":310,"x_min":42,"x_max":438,"o":"m 251 985 l 300 985 l 90 0 l 42 0 l 251 985 m 204 1160 l 228 1274 l 271 1274 l 247 1160 l 204 1160 m 371 1160 l 394 1274 l 438 1274 l 414 1160 l 371 1160 z "},"İ":{"ha":310,"x_min":42,"x_max":357,"o":"m 251 985 l 300 985 l 90 0 l 42 0 l 251 985 m 288 1160 l 313 1275 l 357 1275 l 333 1160 l 288 1160 z "},"Ì":{"ha":310,"x_min":42,"x_max":343,"o":"m 251 985 l 300 985 l 90 0 l 42 0 l 251 985 m 222 1275 l 283 1275 l 343 1165 l 306 1147 l 222 1275 z "},"Ī":{"ha":310,"x_min":42,"x_max":515,"o":"m 251 985 l 300 985 l 90 0 l 42 0 l 251 985 m 135 1204 l 142 1243 l 515 1243 l 507 1204 l 135 1204 z "},"Į":{"ha":311,"x_min":-83,"x_max":301,"o":"m -22 -228 q -68 -200 -53 -219 q -83 -154 -83 -181 q -55 -81 -83 -117 q 43 0 -26 -46 l 253 985 l 301 985 l 92 0 q 25 -44 51 -25 q -17 -79 -1 -62 q -40 -112 -33 -96 q -46 -144 -46 -128 q 4 -196 -46 -186 l -22 -228 l -22 -228 z "},"Ĩ":{"ha":310,"x_min":42,"x_max":524,"o":"m 251 985 l 300 985 l 90 0 l 42 0 l 251 985 m 388 1172 q 338 1181 358 1172 q 301 1199 318 1189 q 269 1217 285 1208 q 233 1225 254 1225 q 197 1216 213 1225 q 172 1195 182 1207 q 158 1172 163 1183 q 151 1158 153 1161 l 117 1158 q 124 1180 117 1163 q 146 1215 131 1197 q 185 1248 161 1233 q 243 1263 208 1263 q 288 1254 269 1263 q 322 1235 306 1246 q 355 1217 338 1225 q 397 1208 372 1208 q 441 1218 424 1208 q 469 1240 458 1228 q 484 1262 479 1251 q 489 1275 489 1272 l 524 1275 q 515 1253 522 1269 q 492 1218 508 1236 q 451 1186 476 1200 q 388 1172 425 1172 z "},"Ĵ":{"ha":640,"x_min":-46,"x_max":796,"o":"m 510 1168 l 657 1275 l 693 1275 l 796 1168 l 761 1147 l 667 1235 l 536 1147 l 510 1168 m 144 -15 q -46 46 26 -15 l -21 85 q 153 31 40 31 q 287 61 233 31 q 378 150 340 92 q 440 293 415 208 q 489 485 465 378 l 596 985 l 643 985 l 536 485 q 484 280 513 372 q 412 122 456 188 q 304 21 368 57 q 144 -15 240 -15 z "},"K":{"ha":831,"x_min":42,"x_max":929,"o":"m 251 985 l 300 985 l 168 365 l 869 986 l 929 986 l 443 554 l 738 0 l 681 0 l 404 525 l 156 306 l 90 0 l 42 0 l 251 985 z "},"Ķ":{"ha":831,"x_min":42,"x_max":929,"o":"m 261 -244 l 296 -158 l 279 -158 l 299 -69 l 349 -69 l 329 -158 l 289 -244 l 261 -244 m 251 985 l 300 985 l 168 365 l 869 986 l 929 986 l 443 554 l 738 0 l 681 0 l 404 525 l 156 306 l 90 0 l 42 0 l 251 985 z "},"L":{"ha":768,"x_min":42,"x_max":672,"o":"m 251 986 l 300 986 l 99 44 l 672 44 l 663 0 l 42 0 l 251 986 z "},"Ĺ":{"ha":768,"x_min":42,"x_max":672,"o":"m 304 1147 l 275 1165 l 381 1275 l 442 1275 l 304 1147 m 251 986 l 300 986 l 99 44 l 672 44 l 663 0 l 42 0 l 251 986 z "},"Ľ":{"ha":768,"x_min":42,"x_max":672,"o":"m 372 904 l 478 1014 l 539 1014 l 401 886 l 372 904 m 251 986 l 300 986 l 99 44 l 672 44 l 663 0 l 42 0 l 251 986 z "},"Ļ":{"ha":768,"x_min":42,"x_max":672,"o":"m 274 -244 l 308 -158 l 292 -158 l 311 -69 l 361 -69 l 342 -158 l 301 -244 l 274 -244 m 251 986 l 300 986 l 99 44 l 672 44 l 663 0 l 42 0 l 251 986 z "},"Ŀ":{"ha":768,"x_min":42,"x_max":672,"o":"m 251 986 l 300 986 l 99 44 l 672 44 l 663 0 l 42 0 l 251 986 m 463 496 l 489 622 l 532 622 l 506 496 l 463 496 z "},"·":{"ha":228,"x_min":76,"x_max":146,"o":"m 76 346 l 103 472 l 146 472 l 119 346 l 76 346 z "},"Ł":{"ha":779,"x_min":22,"x_max":683,"o":"m 22 342 l 147 444 l 263 986 l 311 986 l 206 492 l 489 724 l 504 693 l 193 438 l 110 44 l 683 44 l 674 0 l 53 0 l 136 390 l 38 310 l 22 342 z "},"M":{"ha":1172,"x_min":42,"x_max":1163,"o":"m 251 986 l 297 986 l 551 251 l 1118 986 l 1163 986 l 953 0 l 906 0 l 1094 892 l 554 192 l 522 192 l 281 892 l 90 0 l 42 0 l 251 986 z "},"N":{"ha":1031,"x_min":42,"x_max":1021,"o":"m 251 986 l 289 986 l 781 76 l 972 985 l 1021 985 l 811 0 l 765 0 l 281 894 l 90 0 l 42 0 l 251 986 z "},"\u0000":{"ha":0,"x_min":0,"x_max":0,"o":""},"Ń":{"ha":1031,"x_min":42,"x_max":1021,"o":"m 664 1147 l 635 1165 l 740 1275 l 801 1275 l 664 1147 m 251 986 l 289 986 l 781 76 l 972 985 l 1021 985 l 811 0 l 765 0 l 281 894 l 90 0 l 42 0 l 251 986 z "},"Ň":{"ha":1031,"x_min":42,"x_max":1021,"o":"m 551 1256 l 586 1275 l 681 1188 l 811 1275 l 838 1256 l 689 1147 l 653 1147 l 551 1256 m 251 986 l 289 986 l 781 76 l 972 985 l 1021 985 l 811 0 l 765 0 l 281 894 l 90 0 l 42 0 l 251 986 z "},"Ņ":{"ha":1031,"x_min":42,"x_max":1021,"o":"m 358 -244 l 393 -158 l 376 -158 l 396 -69 l 446 -69 l 426 -158 l 386 -244 l 358 -244 m 251 986 l 289 986 l 781 76 l 972 985 l 1021 985 l 811 0 l 765 0 l 281 894 l 90 0 l 42 0 l 251 986 z "},"Ṅ":{"ha":1031,"x_min":42,"x_max":1021,"o":"m 661 1160 l 686 1275 l 731 1275 l 707 1160 l 661 1160 m 251 986 l 289 986 l 781 76 l 972 985 l 1021 985 l 811 0 l 765 0 l 281 894 l 90 0 l 42 0 l 251 986 z "},"Ñ":{"ha":1031,"x_min":42,"x_max":1021,"o":"m 251 986 l 289 986 l 781 76 l 972 985 l 1021 985 l 811 0 l 765 0 l 281 894 l 90 0 l 42 0 l 251 986 m 764 1172 q 715 1181 735 1172 q 678 1199 694 1189 q 646 1217 661 1208 q 610 1225 631 1225 q 574 1216 589 1225 q 549 1195 558 1207 q 534 1172 539 1183 q 528 1158 529 1161 l 493 1158 q 500 1180 493 1163 q 522 1215 507 1197 q 561 1248 538 1233 q 619 1263 585 1263 q 664 1254 646 1263 q 698 1235 682 1246 q 731 1217 714 1225 q 774 1208 749 1208 q 817 1218 800 1208 q 845 1240 835 1228 q 860 1262 856 1251 q 865 1275 865 1272 l 900 1275 q 892 1253 899 1269 q 869 1218 885 1236 q 827 1186 853 1200 q 764 1172 801 1172 z "},"O":{"ha":1007,"x_min":69,"x_max":968,"o":"m 413 -7 q 267 26 331 -7 q 159 116 203 60 q 92 246 115 172 q 69 399 69 319 q 117 619 69 513 q 242 810 164 726 q 419 943 319 893 q 626 993 519 993 q 772 958 708 993 q 880 867 836 924 q 946 736 924 810 q 968 585 968 663 q 921 365 968 472 q 797 176 874 258 q 619 43 719 93 q 413 -7 518 -7 m 424 39 q 614 88 524 39 q 772 213 704 136 q 881 388 840 290 q 921 581 921 485 q 900 721 921 654 q 840 838 879 788 q 744 917 800 888 q 617 947 688 947 q 426 899 517 947 q 267 773 335 850 q 158 599 199 696 q 118 404 118 501 q 139 265 118 331 q 199 149 160 199 q 294 69 238 99 q 424 39 351 39 z "},"Œ":{"ha":1575,"x_min":69,"x_max":1621,"o":"m 417 -7 q 269 27 333 -7 q 160 117 204 61 q 92 247 115 174 q 69 400 69 321 q 117 619 69 513 q 242 810 164 726 q 419 943 319 893 q 626 993 519 993 q 753 969 697 993 q 851 902 810 944 q 917 803 892 860 q 950 682 942 746 l 1014 986 l 1621 986 l 1610 942 l 1053 942 l 965 526 l 1451 526 l 1440 482 l 954 482 l 863 44 l 1431 44 l 1422 0 l 804 0 l 869 303 q 783 181 833 238 q 674 83 733 125 q 549 17 615 42 q 417 -7 483 -7 m 424 39 q 614 88 524 39 q 772 213 704 136 q 879 388 839 290 q 919 581 919 485 q 899 721 919 654 q 839 838 878 788 q 744 917 800 888 q 618 947 689 947 q 427 899 518 947 q 267 773 336 850 q 158 599 199 696 q 118 404 118 501 q 139 265 118 331 q 199 149 160 199 q 294 69 238 99 q 424 39 351 39 z "},"Ó":{"ha":1007,"x_min":69,"x_max":968,"o":"m 649 1147 l 619 1165 l 725 1275 l 786 1275 l 649 1147 m 413 -7 q 267 26 331 -7 q 159 116 203 60 q 92 246 115 172 q 69 399 69 319 q 117 619 69 513 q 242 810 164 726 q 419 943 319 893 q 626 993 519 993 q 772 958 708 993 q 880 867 836 924 q 946 736 924 810 q 968 585 968 663 q 921 365 968 472 q 797 176 874 258 q 619 43 719 93 q 413 -7 518 -7 m 424 39 q 614 88 524 39 q 772 213 704 136 q 881 388 840 290 q 921 581 921 485 q 900 721 921 654 q 840 838 879 788 q 744 917 800 888 q 617 947 688 947 q 426 899 517 947 q 267 773 335 850 q 158 599 199 696 q 118 404 118 501 q 139 265 118 331 q 199 149 160 199 q 294 69 238 99 q 424 39 351 39 z "},"Ŏ":{"ha":1007,"x_min":69,"x_max":968,"o":"m 413 -7 q 267 26 331 -7 q 159 116 203 60 q 92 246 115 172 q 69 399 69 319 q 117 619 69 513 q 242 810 164 726 q 419 943 319 893 q 626 993 519 993 q 772 958 708 993 q 880 867 836 924 q 946 736 924 810 q 968 585 968 663 q 921 365 968 472 q 797 176 874 258 q 619 43 719 93 q 413 -7 518 -7 m 424 39 q 614 88 524 39 q 772 213 704 136 q 881 388 840 290 q 921 581 921 485 q 900 721 921 654 q 840 838 879 788 q 744 917 800 888 q 617 947 688 947 q 426 899 517 947 q 267 773 335 850 q 158 599 199 696 q 118 404 118 501 q 139 265 118 331 q 199 149 160 199 q 294 69 238 99 q 424 39 351 39 m 658 1189 q 713 1214 686 1189 q 751 1275 740 1239 l 785 1275 q 766 1230 779 1251 q 735 1192 753 1208 q 695 1167 717 1176 q 653 1158 674 1158 q 590 1185 614 1158 q 565 1251 565 1211 q 566 1263 565 1258 q 568 1275 567 1268 l 604 1275 q 601 1258 601 1264 q 617 1210 601 1231 q 658 1189 633 1189 z "},"Ô":{"ha":1007,"x_min":69,"x_max":968,"o":"m 526 1168 l 674 1275 l 710 1275 l 813 1168 l 778 1147 l 683 1235 l 553 1147 l 526 1168 m 413 -7 q 267 26 331 -7 q 159 116 203 60 q 92 246 115 172 q 69 399 69 319 q 117 619 69 513 q 242 810 164 726 q 419 943 319 893 q 626 993 519 993 q 772 958 708 993 q 880 867 836 924 q 946 736 924 810 q 968 585 968 663 q 921 365 968 472 q 797 176 874 258 q 619 43 719 93 q 413 -7 518 -7 m 424 39 q 614 88 524 39 q 772 213 704 136 q 881 388 840 290 q 921 581 921 485 q 900 721 921 654 q 840 838 879 788 q 744 917 800 888 q 617 947 688 947 q 426 899 517 947 q 267 773 335 850 q 158 599 199 696 q 118 404 118 501 q 139 265 118 331 q 199 149 160 199 q 294 69 238 99 q 424 39 351 39 z "},"Ö":{"ha":1007,"x_min":69,"x_max":968,"o":"m 557 1160 l 581 1274 l 624 1274 l 600 1160 l 557 1160 m 724 1160 l 747 1274 l 790 1274 l 767 1160 l 724 1160 m 413 -7 q 267 26 331 -7 q 159 116 203 60 q 92 246 115 172 q 69 399 69 319 q 117 619 69 513 q 242 810 164 726 q 419 943 319 893 q 626 993 519 993 q 772 958 708 993 q 880 867 836 924 q 946 736 924 810 q 968 585 968 663 q 921 365 968 472 q 797 176 874 258 q 619 43 719 93 q 413 -7 518 -7 m 424 39 q 614 88 524 39 q 772 213 704 136 q 881 388 840 290 q 921 581 921 485 q 900 721 921 654 q 840 838 879 788 q 744 917 800 888 q 617 947 688 947 q 426 899 517 947 q 267 773 335 850 q 158 599 199 696 q 118 404 118 501 q 139 265 118 331 q 199 149 160 199 q 294 69 238 99 q 424 39 351 39 z "},"Ò":{"ha":1007,"x_min":69,"x_max":968,"o":"m 413 -7 q 267 26 331 -7 q 159 116 203 60 q 92 246 115 172 q 69 399 69 319 q 117 619 69 513 q 242 810 164 726 q 419 943 319 893 q 626 993 519 993 q 772 958 708 993 q 880 867 836 924 q 946 736 924 810 q 968 585 968 663 q 921 365 968 472 q 797 176 874 258 q 619 43 719 93 q 413 -7 518 -7 m 424 39 q 614 88 524 39 q 772 213 704 136 q 881 388 840 290 q 921 581 921 485 q 900 721 921 654 q 840 838 879 788 q 744 917 800 888 q 617 947 688 947 q 426 899 517 947 q 267 773 335 850 q 158 599 199 696 q 118 404 118 501 q 139 265 118 331 q 199 149 160 199 q 294 69 238 99 q 424 39 351 39 m 589 1275 l 650 1275 l 710 1165 l 672 1147 l 589 1275 z "},"Ő":{"ha":1007,"x_min":69,"x_max":968,"o":"m 554 1147 l 529 1165 l 633 1275 l 690 1275 l 554 1147 m 699 1147 l 672 1165 l 776 1275 l 835 1275 l 699 1147 m 413 -7 q 267 26 331 -7 q 159 116 203 60 q 92 246 115 172 q 69 399 69 319 q 117 619 69 513 q 242 810 164 726 q 419 943 319 893 q 626 993 519 993 q 772 958 708 993 q 880 867 836 924 q 946 736 924 810 q 968 585 968 663 q 921 365 968 472 q 797 176 874 258 q 619 43 719 93 q 413 -7 518 -7 m 424 39 q 614 88 524 39 q 772 213 704 136 q 881 388 840 290 q 921 581 921 485 q 900 721 921 654 q 840 838 879 788 q 744 917 800 888 q 617 947 688 947 q 426 899 517 947 q 267 773 335 850 q 158 599 199 696 q 118 404 118 501 q 139 265 118 331 q 199 149 160 199 q 294 69 238 99 q 424 39 351 39 z "},"˝":{"ha":406,"x_min":57,"x_max":363,"o":"m 82 886 l 57 904 l 161 1014 l 218 1014 l 82 886 m 226 886 l 200 904 l 304 1014 l 363 1014 l 226 886 z "},"Ō":{"ha":1007,"x_min":69,"x_max":968,"o":"m 483 1204 l 490 1243 l 864 1243 l 856 1204 l 483 1204 m 413 -7 q 267 26 331 -7 q 159 116 203 60 q 92 246 115 172 q 69 399 69 319 q 117 619 69 513 q 242 810 164 726 q 419 943 319 893 q 626 993 519 993 q 772 958 708 993 q 880 867 836 924 q 946 736 924 810 q 968 585 968 663 q 921 365 968 472 q 797 176 874 258 q 619 43 719 93 q 413 -7 518 -7 m 424 39 q 614 88 524 39 q 772 213 704 136 q 881 388 840 290 q 921 581 921 485 q 900 721 921 654 q 840 838 879 788 q 744 917 800 888 q 617 947 688 947 q 426 899 517 947 q 267 773 335 850 q 158 599 199 696 q 118 404 118 501 q 139 265 118 331 q 199 149 160 199 q 294 69 238 99 q 424 39 351 39 z "},"Ǫ":{"ha":1007,"x_min":69,"x_max":968,"o":"m 324 -232 q 278 -204 293 -224 q 263 -158 263 -185 q 290 -86 263 -121 q 386 -6 318 -51 q 251 35 310 0 q 151 126 192 71 q 90 252 111 182 q 69 399 69 322 q 117 619 69 513 q 242 810 164 726 q 419 943 319 893 q 626 993 519 993 q 772 958 708 993 q 880 867 836 924 q 946 736 924 810 q 968 585 968 663 q 924 369 968 474 q 805 183 879 265 q 634 50 731 101 q 433 -6 538 -1 q 369 -48 394 -29 q 328 -83 343 -67 q 306 -116 313 -100 q 300 -149 300 -132 q 350 -200 300 -190 l 324 -232 m 424 39 q 614 88 524 39 q 772 213 704 136 q 881 388 840 290 q 921 581 921 485 q 900 721 921 654 q 840 838 879 788 q 744 917 800 888 q 617 947 688 947 q 426 899 517 947 q 267 773 335 850 q 158 599 199 696 q 118 404 118 501 q 139 265 118 331 q 199 149 160 199 q 294 69 238 99 q 424 39 351 39 z "},"Ø":{"ha":1007,"x_min":69,"x_max":968,"o":"m 958 986 l 869 879 q 943 744 918 821 q 968 585 968 668 q 921 365 968 472 q 797 176 874 258 q 619 43 719 93 q 413 -7 518 -7 q 294 14 347 -7 q 200 72 240 35 l 140 0 l 85 0 l 169 103 q 95 238 121 161 q 69 399 69 314 q 117 619 69 513 q 242 810 164 726 q 419 943 319 893 q 626 993 519 993 q 745 971 692 993 q 840 910 799 949 l 903 986 l 958 986 m 118 404 q 140 260 118 328 q 203 142 161 193 l 808 872 q 723 927 771 907 q 617 947 675 947 q 426 899 517 947 q 267 773 335 850 q 158 599 199 696 q 118 404 118 501 m 424 39 q 614 88 524 39 q 772 213 704 136 q 881 388 840 290 q 921 581 921 485 q 899 722 921 656 q 838 840 878 789 l 232 111 q 317 58 269 76 q 424 39 365 39 z "},"/":{"ha":765,"x_min":-36,"x_max":838,"o":"m 838 986 l 19 0 l -36 0 l 782 986 l 838 986 z "},"Ǿ":{"ha":1007,"x_min":69,"x_max":968,"o":"m 958 986 l 869 879 q 943 744 918 821 q 968 585 968 668 q 921 365 968 472 q 797 176 874 258 q 619 43 719 93 q 413 -7 518 -7 q 294 14 347 -7 q 200 72 240 35 l 140 0 l 85 0 l 169 103 q 95 238 121 161 q 69 399 69 314 q 117 619 69 513 q 242 810 164 726 q 419 943 319 893 q 626 993 519 993 q 745 971 692 993 q 840 910 799 949 l 903 986 l 958 986 m 118 404 q 140 260 118 328 q 203 142 161 193 l 808 872 q 723 927 771 907 q 617 947 675 947 q 426 899 517 947 q 267 773 335 850 q 158 599 199 696 q 118 404 118 501 m 424 39 q 614 88 524 39 q 772 213 704 136 q 881 388 840 290 q 921 581 921 485 q 899 722 921 656 q 838 840 878 789 l 232 111 q 317 58 269 76 q 424 39 365 39 m 638 1147 l 608 1165 l 714 1275 l 775 1275 l 638 1147 z "},"Õ":{"ha":1007,"x_min":69,"x_max":968,"o":"m 413 -7 q 267 26 331 -7 q 159 116 203 60 q 92 246 115 172 q 69 399 69 319 q 117 619 69 513 q 242 810 164 726 q 419 943 319 893 q 626 993 519 993 q 772 958 708 993 q 880 867 836 924 q 946 736 924 810 q 968 585 968 663 q 921 365 968 472 q 797 176 874 258 q 619 43 719 93 q 413 -7 518 -7 m 424 39 q 614 88 524 39 q 772 213 704 136 q 881 388 840 290 q 921 581 921 485 q 900 721 921 654 q 840 838 879 788 q 744 917 800 888 q 617 947 688 947 q 426 899 517 947 q 267 773 335 850 q 158 599 199 696 q 118 404 118 501 q 139 265 118 331 q 199 149 160 199 q 294 69 238 99 q 424 39 351 39 m 742 1172 q 692 1181 713 1172 q 656 1199 672 1189 q 624 1217 639 1208 q 588 1225 608 1225 q 551 1216 567 1225 q 526 1195 536 1207 q 512 1172 517 1183 q 506 1158 507 1161 l 471 1158 q 478 1180 471 1163 q 500 1215 485 1197 q 539 1248 515 1233 q 597 1263 563 1263 q 642 1254 624 1263 q 676 1235 660 1246 q 709 1217 692 1225 q 751 1208 726 1208 q 795 1218 778 1208 q 823 1240 813 1228 q 838 1262 833 1251 q 843 1275 843 1272 l 878 1275 q 869 1253 876 1269 q 847 1218 863 1236 q 805 1186 831 1200 q 742 1172 779 1172 z "},"P":{"ha":828,"x_min":42,"x_max":846,"o":"m 251 986 l 636 986 q 725 965 686 986 q 791 910 764 944 q 832 830 818 875 q 846 738 846 785 q 819 609 846 672 q 748 494 793 546 q 642 412 703 443 q 515 381 582 381 l 171 381 l 90 0 l 42 0 l 251 986 m 524 425 q 631 453 581 425 q 718 525 681 481 q 777 624 756 569 q 799 732 799 678 q 786 812 799 774 q 751 879 774 850 q 695 925 728 908 q 624 942 663 942 l 290 942 l 181 425 l 524 425 z "},"Q":{"ha":1006,"x_min":69,"x_max":968,"o":"m 706 94 q 565 19 639 46 q 414 -7 492 -7 q 267 26 332 -7 q 159 116 203 60 q 92 246 115 172 q 69 399 69 319 q 117 619 69 513 q 242 810 164 726 q 420 943 319 893 q 628 993 521 993 q 774 958 710 993 q 881 867 838 924 q 946 736 924 810 q 968 585 968 663 q 951 453 968 518 q 905 330 935 389 q 833 218 875 271 q 742 124 792 165 l 813 0 l 760 0 l 706 94 m 424 39 q 560 63 494 39 q 685 132 626 88 l 607 271 l 660 271 l 721 161 q 803 251 767 201 q 866 354 840 300 q 906 466 892 408 q 921 581 921 524 q 900 721 921 654 q 840 838 879 788 q 744 917 800 888 q 618 947 689 947 q 427 899 518 947 q 267 773 336 850 q 158 599 199 696 q 118 404 118 501 q 139 265 118 331 q 199 149 160 199 q 294 69 238 99 q 424 39 351 39 z "},"R":{"ha":860,"x_min":42,"x_max":849,"o":"m 42 0 l 251 986 l 638 986 q 726 965 688 986 q 792 910 765 944 q 834 830 819 875 q 849 738 849 785 q 825 615 849 675 q 760 506 801 554 q 665 424 719 457 q 550 386 611 392 l 701 0 l 646 0 l 496 381 l 171 381 l 90 0 l 42 0 m 526 425 q 633 453 583 425 q 720 524 683 481 q 778 622 757 568 q 800 731 800 676 q 788 810 800 772 q 752 878 775 849 q 697 924 729 907 q 626 942 665 942 l 290 942 l 181 425 l 526 425 z "},"Ŕ":{"ha":860,"x_min":42,"x_max":849,"o":"m 550 1150 l 521 1168 l 626 1278 l 688 1278 l 550 1150 m 42 0 l 251 986 l 638 986 q 726 965 688 986 q 792 910 765 944 q 834 830 819 875 q 849 738 849 785 q 825 615 849 675 q 760 506 801 554 q 665 424 719 457 q 550 386 611 392 l 701 0 l 646 0 l 496 381 l 171 381 l 90 0 l 42 0 m 526 425 q 633 453 583 425 q 720 524 683 481 q 778 622 757 568 q 800 731 800 676 q 788 810 800 772 q 752 878 775 849 q 697 924 729 907 q 626 942 665 942 l 290 942 l 181 425 l 526 425 z "},"Ř":{"ha":860,"x_min":42,"x_max":849,"o":"m 465 1258 l 500 1278 l 594 1190 l 725 1278 l 751 1258 l 603 1150 l 567 1150 l 465 1258 m 42 0 l 251 986 l 638 986 q 726 965 688 986 q 792 910 765 944 q 834 830 819 875 q 849 738 849 785 q 825 615 849 675 q 760 506 801 554 q 665 424 719 457 q 550 386 611 392 l 701 0 l 646 0 l 496 381 l 171 381 l 90 0 l 42 0 m 526 425 q 633 453 583 425 q 720 524 683 481 q 778 622 757 568 q 800 731 800 676 q 788 810 800 772 q 752 878 775 849 q 697 924 729 907 q 626 942 665 942 l 290 942 l 181 425 l 526 425 z "},"Ŗ":{"ha":860,"x_min":42,"x_max":849,"o":"m 269 -244 l 304 -158 l 288 -158 l 307 -69 l 357 -69 l 338 -158 l 297 -244 l 269 -244 m 42 0 l 251 986 l 638 986 q 726 965 688 986 q 792 910 765 944 q 834 830 819 875 q 849 738 849 785 q 825 615 849 675 q 760 506 801 554 q 665 424 719 457 q 550 386 611 392 l 701 0 l 646 0 l 496 381 l 171 381 l 90 0 l 42 0 m 526 425 q 633 453 583 425 q 720 524 683 481 q 778 622 757 568 q 800 731 800 676 q 788 810 800 772 q 752 878 775 849 q 697 924 729 907 q 626 942 665 942 l 290 942 l 181 425 l 526 425 z "},"S":{"ha":807,"x_min":-4,"x_max":799,"o":"m 332 -7 q -4 143 113 -7 l 31 178 q 343 35 132 35 q 583 98 493 35 q 672 282 672 161 q 656 351 672 322 q 607 403 639 381 q 526 441 575 425 q 413 472 476 457 q 299 502 349 486 q 215 541 249 518 q 163 597 181 564 q 144 675 144 629 q 174 809 144 750 q 256 909 203 868 q 380 972 308 950 q 538 993 451 993 q 692 965 629 993 q 799 876 756 938 l 765 840 q 670 924 726 900 q 531 949 614 949 q 378 928 442 949 q 274 874 315 908 q 215 791 233 839 q 196 689 196 743 q 211 624 196 650 q 256 578 226 597 q 332 544 286 558 q 440 515 378 529 q 556 483 504 500 q 646 442 608 467 q 703 381 683 417 q 724 294 724 346 q 695 166 724 222 q 615 72 667 110 q 491 13 563 33 q 332 -7 419 -7 z "},"Ś":{"ha":807,"x_min":-4,"x_max":799,"o":"m 550 1175 l 521 1193 l 626 1303 l 688 1303 l 550 1175 m 332 -7 q -4 143 113 -7 l 31 178 q 343 35 132 35 q 583 98 493 35 q 672 282 672 161 q 656 351 672 322 q 607 403 639 381 q 526 441 575 425 q 413 472 476 457 q 299 502 349 486 q 215 541 249 518 q 163 597 181 564 q 144 675 144 629 q 174 809 144 750 q 256 909 203 868 q 380 972 308 950 q 538 993 451 993 q 692 965 629 993 q 799 876 756 938 l 765 840 q 670 924 726 900 q 531 949 614 949 q 378 928 442 949 q 274 874 315 908 q 215 791 233 839 q 196 689 196 743 q 211 624 196 650 q 256 578 226 597 q 332 544 286 558 q 440 515 378 529 q 556 483 504 500 q 646 442 608 467 q 703 381 683 417 q 724 294 724 346 q 695 166 724 222 q 615 72 667 110 q 491 13 563 33 q 332 -7 419 -7 z "},"Š":{"ha":807,"x_min":-4,"x_max":799,"o":"m 454 1283 l 489 1303 l 583 1215 l 714 1303 l 740 1283 l 592 1175 l 556 1175 l 454 1283 m 332 -7 q -4 143 113 -7 l 31 178 q 343 35 132 35 q 583 98 493 35 q 672 282 672 161 q 656 351 672 322 q 607 403 639 381 q 526 441 575 425 q 413 472 476 457 q 299 502 349 486 q 215 541 249 518 q 163 597 181 564 q 144 675 144 629 q 174 809 144 750 q 256 909 203 868 q 380 972 308 950 q 538 993 451 993 q 692 965 629 993 q 799 876 756 938 l 765 840 q 670 924 726 900 q 531 949 614 949 q 378 928 442 949 q 274 874 315 908 q 215 791 233 839 q 196 689 196 743 q 211 624 196 650 q 256 578 226 597 q 332 544 286 558 q 440 515 378 529 q 556 483 504 500 q 646 442 608 467 q 703 381 683 417 q 724 294 724 346 q 695 166 724 222 q 615 72 667 110 q 491 13 563 33 q 332 -7 419 -7 z "},"Ŝ":{"ha":807,"x_min":-4,"x_max":799,"o":"m 442 1196 l 589 1303 l 625 1303 l 728 1196 l 693 1175 l 599 1263 l 468 1175 l 442 1196 m 332 -7 q -4 143 113 -7 l 31 178 q 343 35 132 35 q 583 98 493 35 q 672 282 672 161 q 656 351 672 322 q 607 403 639 381 q 526 441 575 425 q 413 472 476 457 q 299 502 349 486 q 215 541 249 518 q 163 597 181 564 q 144 675 144 629 q 174 809 144 750 q 256 909 203 868 q 380 972 308 950 q 538 993 451 993 q 692 965 629 993 q 799 876 756 938 l 765 840 q 670 924 726 900 q 531 949 614 949 q 378 928 442 949 q 274 874 315 908 q 215 791 233 839 q 196 689 196 743 q 211 624 196 650 q 256 578 226 597 q 332 544 286 558 q 440 515 378 529 q 556 483 504 500 q 646 442 608 467 q 703 381 683 417 q 724 294 724 346 q 695 166 724 222 q 615 72 667 110 q 491 13 563 33 q 332 -7 419 -7 z "},"T":{"ha":800,"x_min":133,"x_max":890,"o":"m 483 942 l 133 942 l 142 986 l 890 986 l 882 942 l 531 942 l 331 0 l 283 0 l 483 942 z "},"Ŧ":{"ha":856,"x_min":118,"x_max":921,"o":"m 125 581 l 436 581 l 513 942 l 161 942 l 171 986 l 921 986 l 910 942 l 560 942 l 483 581 l 793 581 l 786 546 l 475 546 l 360 0 l 313 0 l 428 546 l 118 546 l 125 581 z "},"Ť":{"ha":800,"x_min":133,"x_max":890,"o":"m 422 1256 l 457 1275 l 551 1188 l 682 1275 l 708 1256 l 560 1147 l 524 1147 l 422 1256 m 483 942 l 133 942 l 142 986 l 890 986 l 882 942 l 531 942 l 331 0 l 283 0 l 483 942 z "},"Þ":{"ha":799,"x_min":42,"x_max":776,"o":"m 251 986 l 300 986 l 256 782 l 567 782 q 656 761 617 782 q 722 705 694 740 q 763 624 749 669 q 776 532 776 579 q 750 403 776 467 q 678 290 724 340 q 573 208 633 239 q 446 176 513 176 l 126 176 l 90 0 l 42 0 l 251 986 m 454 221 q 563 249 513 221 q 649 320 613 276 q 708 419 686 364 q 729 526 729 474 q 717 606 729 568 q 681 674 704 644 q 626 719 658 703 q 554 736 593 736 l 247 736 l 138 221 l 454 221 z "},"U":{"ha":1004,"x_min":113,"x_max":1010,"o":"m 414 -7 q 272 18 329 -7 q 178 87 214 43 q 128 190 143 131 q 113 315 113 249 q 132 492 113 399 l 238 986 l 285 986 l 181 492 q 165 406 171 449 q 160 324 160 364 q 173 212 160 264 q 217 122 186 160 q 298 61 247 83 q 422 39 349 39 q 597 78 522 39 q 723 182 671 118 q 808 327 775 246 q 858 492 840 408 l 963 986 l 1010 986 l 906 492 q 846 303 885 393 q 747 144 807 213 q 604 34 686 75 q 414 -7 522 -7 z "},"Ú":{"ha":1006,"x_min":113,"x_max":1010,"o":"m 624 1147 l 594 1165 l 700 1275 l 761 1275 l 624 1147 m 414 -7 q 272 18 329 -7 q 178 87 214 43 q 128 190 143 131 q 113 315 113 249 q 132 492 113 399 l 238 986 l 285 986 l 181 492 q 165 406 171 449 q 160 324 160 364 q 173 212 160 264 q 217 122 186 160 q 298 61 247 83 q 422 39 349 39 q 597 78 522 39 q 723 182 671 118 q 808 327 775 246 q 858 492 840 408 l 963 986 l 1010 986 l 906 492 q 846 303 885 393 q 747 144 807 213 q 604 34 686 75 q 414 -7 522 -7 z "},"Ŭ":{"ha":1006,"x_min":113,"x_max":1010,"o":"m 414 -7 q 272 18 329 -7 q 178 87 214 43 q 128 190 143 131 q 113 315 113 249 q 132 492 113 399 l 238 986 l 285 986 l 181 492 q 165 406 171 449 q 160 324 160 364 q 173 212 160 264 q 217 122 186 160 q 298 61 247 83 q 422 39 349 39 q 597 78 522 39 q 723 182 671 118 q 808 327 775 246 q 858 492 840 408 l 963 986 l 1010 986 l 906 492 q 846 303 885 393 q 747 144 807 213 q 604 34 686 75 q 414 -7 522 -7 m 656 1189 q 710 1214 683 1189 q 749 1275 738 1239 l 782 1275 q 763 1230 776 1251 q 732 1192 750 1208 q 692 1167 714 1176 q 650 1158 671 1158 q 587 1185 611 1158 q 563 1251 563 1211 q 563 1263 563 1258 q 565 1275 564 1268 l 601 1275 q 599 1258 599 1264 q 615 1210 599 1231 q 656 1189 631 1189 z "},"Û":{"ha":1006,"x_min":113,"x_max":1010,"o":"m 519 1168 l 667 1275 l 703 1275 l 806 1168 l 771 1147 l 676 1235 l 546 1147 l 519 1168 m 414 -7 q 272 18 329 -7 q 178 87 214 43 q 128 190 143 131 q 113 315 113 249 q 132 492 113 399 l 238 986 l 285 986 l 181 492 q 165 406 171 449 q 160 324 160 364 q 173 212 160 264 q 217 122 186 160 q 298 61 247 83 q 422 39 349 39 q 597 78 522 39 q 723 182 671 118 q 808 327 775 246 q 858 492 840 408 l 963 986 l 1010 986 l 906 492 q 846 303 885 393 q 747 144 807 213 q 604 34 686 75 q 414 -7 522 -7 z "},"Ü":{"ha":1006,"x_min":113,"x_max":1010,"o":"m 551 1160 l 575 1274 l 618 1274 l 594 1160 l 551 1160 m 718 1160 l 742 1274 l 785 1274 l 761 1160 l 718 1160 m 414 -7 q 272 18 329 -7 q 178 87 214 43 q 128 190 143 131 q 113 315 113 249 q 132 492 113 399 l 238 986 l 285 986 l 181 492 q 165 406 171 449 q 160 324 160 364 q 173 212 160 264 q 217 122 186 160 q 298 61 247 83 q 422 39 349 39 q 597 78 522 39 q 723 182 671 118 q 808 327 775 246 q 858 492 840 408 l 963 986 l 1010 986 l 906 492 q 846 303 885 393 q 747 144 807 213 q 604 34 686 75 q 414 -7 522 -7 z "},"Ù":{"ha":1006,"x_min":113,"x_max":1010,"o":"m 414 -7 q 272 18 329 -7 q 178 87 214 43 q 128 190 143 131 q 113 315 113 249 q 132 492 113 399 l 238 986 l 285 986 l 181 492 q 165 406 171 449 q 160 324 160 364 q 173 212 160 264 q 217 122 186 160 q 298 61 247 83 q 422 39 349 39 q 597 78 522 39 q 723 182 671 118 q 808 327 775 246 q 858 492 840 408 l 963 986 l 1010 986 l 906 492 q 846 303 885 393 q 747 144 807 213 q 604 34 686 75 q 414 -7 522 -7 m 585 1275 l 646 1275 l 706 1165 l 668 1147 l 585 1275 z "},"Ű":{"ha":1006,"x_min":113,"x_max":1010,"o":"m 414 -7 q 272 18 329 -7 q 178 87 214 43 q 128 190 143 131 q 113 315 113 249 q 132 492 113 399 l 238 986 l 285 986 l 181 492 q 165 406 171 449 q 160 324 160 364 q 173 212 160 264 q 217 122 186 160 q 298 61 247 83 q 422 39 349 39 q 597 78 522 39 q 723 182 671 118 q 808 327 775 246 q 858 492 840 408 l 963 986 l 1010 986 l 906 492 q 846 303 885 393 q 747 144 807 213 q 604 34 686 75 q 414 -7 522 -7 m 551 1147 l 526 1165 l 631 1275 l 688 1275 l 551 1147 m 696 1147 l 669 1165 l 774 1275 l 832 1275 l 696 1147 z "},"Ū":{"ha":1006,"x_min":113,"x_max":1010,"o":"m 414 -7 q 272 18 329 -7 q 178 87 214 43 q 128 190 143 131 q 113 315 113 249 q 132 492 113 399 l 238 986 l 285 986 l 181 492 q 165 406 171 449 q 160 324 160 364 q 173 212 160 264 q 217 122 186 160 q 298 61 247 83 q 422 39 349 39 q 597 78 522 39 q 723 182 671 118 q 808 327 775 246 q 858 492 840 408 l 963 986 l 1010 986 l 906 492 q 846 303 885 393 q 747 144 807 213 q 604 34 686 75 q 414 -7 522 -7 m 478 1204 l 485 1243 l 858 1243 l 850 1204 l 478 1204 z "},"Ų":{"ha":1006,"x_min":113,"x_max":1010,"o":"m 322 -232 q 276 -204 292 -224 q 261 -158 261 -185 q 289 -86 261 -121 q 385 -6 317 -51 q 256 25 308 -1 q 172 94 204 51 q 126 194 140 138 q 113 315 113 251 q 132 492 113 399 l 238 986 l 285 986 l 181 492 q 165 406 171 449 q 160 324 160 364 q 173 212 160 264 q 217 122 186 160 q 298 61 247 83 q 422 39 349 39 q 597 78 522 39 q 723 182 671 118 q 808 327 775 246 q 858 492 840 408 l 963 986 l 1010 986 l 906 492 q 847 307 885 396 q 751 150 810 218 q 614 40 693 82 q 432 -6 535 -3 q 367 -48 393 -29 q 326 -83 342 -67 q 305 -116 311 -100 q 299 -149 299 -132 q 349 -200 299 -190 l 322 -232 l 322 -232 z "},"Ů":{"ha":1006,"x_min":113,"x_max":1010,"o":"m 581 1176 q 612 1247 581 1218 q 683 1275 643 1275 q 731 1256 714 1275 q 749 1208 749 1238 q 718 1139 749 1168 q 647 1110 688 1110 q 599 1128 617 1110 q 581 1176 581 1147 m 676 1249 q 631 1230 651 1249 q 610 1182 610 1211 q 622 1149 610 1163 q 653 1136 633 1136 q 699 1156 676 1136 q 721 1203 721 1175 q 708 1236 721 1224 q 676 1249 696 1249 m 414 -7 q 272 18 329 -7 q 178 87 214 43 q 128 190 143 131 q 113 315 113 249 q 132 492 113 399 l 238 986 l 285 986 l 181 492 q 165 406 171 449 q 160 324 160 364 q 173 212 160 264 q 217 122 186 160 q 298 61 247 83 q 422 39 349 39 q 597 78 522 39 q 723 182 671 118 q 808 327 775 246 q 858 492 840 408 l 963 986 l 1010 986 l 906 492 q 846 303 885 393 q 747 144 807 213 q 604 34 686 75 q 414 -7 522 -7 z "},"Ũ":{"ha":1006,"x_min":113,"x_max":1010,"o":"m 414 -7 q 272 18 329 -7 q 178 87 214 43 q 128 190 143 131 q 113 315 113 249 q 132 492 113 399 l 238 986 l 285 986 l 181 492 q 165 406 171 449 q 160 324 160 364 q 173 212 160 264 q 217 122 186 160 q 298 61 247 83 q 422 39 349 39 q 597 78 522 39 q 723 182 671 118 q 808 327 775 246 q 858 492 840 408 l 963 986 l 1010 986 l 906 492 q 846 303 885 393 q 747 144 807 213 q 604 34 686 75 q 414 -7 522 -7 m 736 1172 q 687 1181 707 1172 q 650 1199 667 1189 q 618 1217 633 1208 q 582 1225 603 1225 q 546 1216 561 1225 q 521 1195 531 1207 q 506 1172 511 1183 q 500 1158 501 1161 l 465 1158 q 472 1180 465 1163 q 494 1215 479 1197 q 533 1248 510 1233 q 592 1263 557 1263 q 636 1254 618 1263 q 670 1235 654 1246 q 703 1217 686 1225 q 746 1208 721 1208 q 790 1218 772 1208 q 817 1240 807 1228 q 833 1262 828 1251 q 838 1275 838 1272 l 872 1275 q 864 1253 871 1269 q 841 1218 857 1236 q 799 1186 825 1200 q 736 1172 774 1172 z "},"V":{"ha":896,"x_min":139,"x_max":989,"o":"m 139 986 l 189 986 l 368 60 l 938 986 l 989 986 l 378 0 l 331 0 l 139 986 z "},"W":{"ha":1374,"x_min":138,"x_max":1467,"o":"m 138 986 l 190 986 l 368 57 l 686 571 l 606 978 l 654 978 l 722 614 l 946 978 l 994 978 l 740 571 l 843 57 l 1414 986 l 1467 986 l 853 0 l 807 0 l 704 525 l 378 0 l 332 0 l 138 986 z "},"Ẃ":{"ha":1374,"x_min":138,"x_max":1467,"o":"m 815 1147 l 786 1165 l 892 1275 l 953 1275 l 815 1147 m 138 986 l 190 986 l 368 57 l 686 571 l 606 978 l 654 978 l 722 614 l 946 978 l 994 978 l 740 571 l 843 57 l 1414 986 l 1467 986 l 853 0 l 807 0 l 704 525 l 378 0 l 332 0 l 138 986 z "},"Ŵ":{"ha":1374,"x_min":138,"x_max":1467,"o":"m 697 1168 l 844 1275 l 881 1275 l 983 1168 l 949 1147 l 854 1235 l 724 1147 l 697 1168 m 138 986 l 190 986 l 368 57 l 686 571 l 606 978 l 654 978 l 722 614 l 946 978 l 994 978 l 740 571 l 843 57 l 1414 986 l 1467 986 l 853 0 l 807 0 l 704 525 l 378 0 l 332 0 l 138 986 z "},"Ẅ":{"ha":1374,"x_min":138,"x_max":1467,"o":"m 725 1160 l 749 1274 l 792 1274 l 768 1160 l 725 1160 m 892 1160 l 915 1274 l 958 1274 l 935 1160 l 892 1160 m 138 986 l 190 986 l 368 57 l 686 571 l 606 978 l 654 978 l 722 614 l 946 978 l 994 978 l 740 571 l 843 57 l 1414 986 l 1467 986 l 853 0 l 807 0 l 704 525 l 378 0 l 332 0 l 138 986 z "},"Ẁ":{"ha":1374,"x_min":138,"x_max":1467,"o":"m 138 986 l 190 986 l 368 57 l 686 571 l 606 978 l 654 978 l 722 614 l 946 978 l 994 978 l 740 571 l 843 57 l 1414 986 l 1467 986 l 853 0 l 807 0 l 704 525 l 378 0 l 332 0 l 138 986 m 771 1275 l 832 1275 l 892 1165 l 854 1147 l 771 1275 z "},"X":{"ha":824,"x_min":-67,"x_max":933,"o":"m 399 486 l 132 986 l 189 986 l 435 522 l 876 986 l 933 986 l 454 486 l 713 0 l 656 0 l 419 450 l -10 0 l -67 0 l 399 486 z "},"Y":{"ha":831,"x_min":132,"x_max":928,"o":"m 376 381 l 132 986 l 186 986 l 411 426 l 875 986 l 928 986 l 424 378 l 343 0 l 296 0 l 376 381 z "},"Ý":{"ha":831,"x_min":132,"x_max":928,"o":"m 376 381 l 132 986 l 186 986 l 411 426 l 875 986 l 928 986 l 424 378 l 343 0 l 296 0 l 376 381 m 528 1147 l 499 1165 l 604 1275 l 665 1275 l 528 1147 z "},"Ŷ":{"ha":831,"x_min":132,"x_max":928,"o":"m 376 381 l 132 986 l 186 986 l 411 426 l 875 986 l 928 986 l 424 378 l 343 0 l 296 0 l 376 381 m 425 1168 l 572 1275 l 608 1275 l 711 1168 l 676 1147 l 582 1235 l 451 1147 l 425 1168 z "},"Ÿ":{"ha":831,"x_min":132,"x_max":928,"o":"m 376 381 l 132 986 l 186 986 l 411 426 l 875 986 l 928 986 l 424 378 l 343 0 l 296 0 l 376 381 m 457 1160 l 481 1274 l 524 1274 l 500 1160 l 457 1160 m 624 1160 l 647 1274 l 690 1274 l 667 1160 l 624 1160 z "},"Ỳ":{"ha":831,"x_min":132,"x_max":928,"o":"m 376 381 l 132 986 l 186 986 l 411 426 l 875 986 l 928 986 l 424 378 l 343 0 l 296 0 l 376 381 m 483 1275 l 544 1275 l 604 1165 l 567 1147 l 483 1275 z "},"Ỹ":{"ha":831,"x_min":132,"x_max":928,"o":"m 376 381 l 132 986 l 186 986 l 411 426 l 875 986 l 928 986 l 424 378 l 343 0 l 296 0 l 376 381 m 625 1172 q 576 1181 596 1172 q 539 1199 556 1189 q 507 1217 522 1208 q 471 1225 492 1225 q 435 1216 450 1225 q 410 1195 419 1207 q 395 1172 400 1183 q 389 1158 390 1161 l 354 1158 q 361 1180 354 1163 q 383 1215 368 1197 q 422 1248 399 1233 q 481 1263 446 1263 q 525 1254 507 1263 q 559 1235 543 1246 q 592 1217 575 1225 q 635 1208 610 1208 q 678 1218 661 1208 q 706 1240 696 1228 q 722 1262 717 1251 q 726 1275 726 1272 l 761 1275 q 753 1253 760 1269 q 730 1218 746 1236 q 688 1186 714 1200 q 625 1172 663 1172 z "},"Z":{"ha":819,"x_min":-54,"x_max":903,"o":"m -46 42 l 835 942 l 154 942 l 164 986 l 903 986 l 893 944 l 15 44 l 699 44 l 689 0 l -54 0 l -46 42 z "},"Ź":{"ha":819,"x_min":-54,"x_max":903,"o":"m 526 1147 l 497 1165 l 603 1275 l 664 1275 l 526 1147 m -46 42 l 835 942 l 154 942 l 164 986 l 903 986 l 893 944 l 15 44 l 699 44 l 689 0 l -54 0 l -46 42 z "},"Ž":{"ha":819,"x_min":-54,"x_max":903,"o":"m 438 1256 l 472 1275 l 567 1188 l 697 1275 l 724 1256 l 575 1147 l 539 1147 l 438 1256 m -46 42 l 835 942 l 154 942 l 164 986 l 903 986 l 893 944 l 15 44 l 699 44 l 689 0 l -54 0 l -46 42 z "},"Ż":{"ha":819,"x_min":-54,"x_max":903,"o":"m -46 42 l 835 942 l 154 942 l 164 986 l 903 986 l 893 944 l 15 44 l 699 44 l 689 0 l -54 0 l -46 42 m 542 1160 l 567 1275 l 611 1275 l 588 1160 l 542 1160 z "},"a":{"ha":813,"x_min":40,"x_max":765,"o":"m 297 -14 q 190 11 238 -14 q 108 78 142 36 q 58 176 75 121 q 40 290 40 231 q 74 455 40 375 q 163 597 107 535 q 292 696 219 658 q 443 733 365 733 q 528 719 490 733 q 597 681 567 706 q 648 625 626 657 q 682 558 669 593 l 717 722 l 765 722 l 628 79 q 625 63 625 71 q 644 44 625 44 l 635 0 q 628 -1 632 0 q 621 -1 624 -1 q 588 12 599 -1 q 578 43 578 25 q 578 52 578 47 q 581 67 579 57 q 587 97 583 78 q 597 147 590 115 q 458 31 539 75 q 297 -14 378 -14 m 311 31 q 400 47 353 31 q 491 93 447 64 q 568 160 535 122 q 614 239 601 197 l 667 488 q 642 564 661 528 q 592 628 622 600 q 522 672 561 656 q 438 689 483 689 q 305 653 368 689 q 194 562 242 618 q 117 435 146 506 q 89 294 89 365 q 106 194 89 242 q 151 110 122 146 q 222 52 181 74 q 311 31 263 31 z "},"á":{"ha":813,"x_min":40,"x_max":765,"o":"m 297 -14 q 190 11 238 -14 q 108 78 142 36 q 58 176 75 121 q 40 290 40 231 q 74 455 40 375 q 163 597 107 535 q 292 696 219 658 q 443 733 365 733 q 528 719 490 733 q 597 681 567 706 q 648 625 626 657 q 682 558 669 593 l 717 722 l 765 722 l 628 79 q 625 63 625 71 q 644 44 625 44 l 635 0 q 628 -1 632 0 q 621 -1 624 -1 q 588 12 599 -1 q 578 43 578 25 q 578 52 578 47 q 581 67 579 57 q 587 97 583 78 q 597 147 590 115 q 458 31 539 75 q 297 -14 378 -14 m 311 31 q 400 47 353 31 q 491 93 447 64 q 568 160 535 122 q 614 239 601 197 l 667 488 q 642 564 661 528 q 592 628 622 600 q 522 672 561 656 q 438 689 483 689 q 305 653 368 689 q 194 562 242 618 q 117 435 146 506 q 89 294 89 365 q 106 194 89 242 q 151 110 122 146 q 222 52 181 74 q 311 31 263 31 m 478 886 l 449 904 l 554 1014 l 615 1014 l 478 886 z "},"ă":{"ha":813,"x_min":40,"x_max":765,"o":"m 297 -14 q 190 11 238 -14 q 108 78 142 36 q 58 176 75 121 q 40 290 40 231 q 74 455 40 375 q 163 597 107 535 q 292 696 219 658 q 443 733 365 733 q 528 719 490 733 q 597 681 567 706 q 648 625 626 657 q 682 558 669 593 l 717 722 l 765 722 l 628 79 q 625 63 625 71 q 644 44 625 44 l 635 0 q 628 -1 632 0 q 621 -1 624 -1 q 588 12 599 -1 q 578 43 578 25 q 578 52 578 47 q 581 67 579 57 q 587 97 583 78 q 597 147 590 115 q 458 31 539 75 q 297 -14 378 -14 m 311 31 q 400 47 353 31 q 491 93 447 64 q 568 160 535 122 q 614 239 601 197 l 667 488 q 642 564 661 528 q 592 628 622 600 q 522 672 561 656 q 438 689 483 689 q 305 653 368 689 q 194 562 242 618 q 117 435 146 506 q 89 294 89 365 q 106 194 89 242 q 151 110 122 146 q 222 52 181 74 q 311 31 263 31 m 496 928 q 551 953 524 928 q 589 1014 578 978 l 622 1014 q 603 969 617 990 q 572 931 590 947 q 533 906 554 915 q 490 897 511 897 q 427 924 451 897 q 403 990 403 950 q 403 1002 403 997 q 406 1014 404 1007 l 442 1014 q 439 997 439 1003 q 455 949 439 969 q 496 928 471 928 z "},"â":{"ha":813,"x_min":40,"x_max":765,"o":"m 297 -14 q 190 11 238 -14 q 108 78 142 36 q 58 176 75 121 q 40 290 40 231 q 74 455 40 375 q 163 597 107 535 q 292 696 219 658 q 443 733 365 733 q 528 719 490 733 q 597 681 567 706 q 648 625 626 657 q 682 558 669 593 l 717 722 l 765 722 l 628 79 q 625 63 625 71 q 644 44 625 44 l 635 0 q 628 -1 632 0 q 621 -1 624 -1 q 588 12 599 -1 q 578 43 578 25 q 578 52 578 47 q 581 67 579 57 q 587 97 583 78 q 597 147 590 115 q 458 31 539 75 q 297 -14 378 -14 m 311 31 q 400 47 353 31 q 491 93 447 64 q 568 160 535 122 q 614 239 601 197 l 667 488 q 642 564 661 528 q 592 628 622 600 q 522 672 561 656 q 438 689 483 689 q 305 653 368 689 q 194 562 242 618 q 117 435 146 506 q 89 294 89 365 q 106 194 89 242 q 151 110 122 146 q 222 52 181 74 q 311 31 263 31 m 361 907 l 508 1014 l 544 1014 l 647 907 l 613 886 l 518 974 l 388 886 l 361 907 z "},"ä":{"ha":813,"x_min":40,"x_max":765,"o":"m 297 -14 q 190 11 238 -14 q 108 78 142 36 q 58 176 75 121 q 40 290 40 231 q 74 455 40 375 q 163 597 107 535 q 292 696 219 658 q 443 733 365 733 q 528 719 490 733 q 597 681 567 706 q 648 625 626 657 q 682 558 669 593 l 717 722 l 765 722 l 628 79 q 625 63 625 71 q 644 44 625 44 l 635 0 q 628 -1 632 0 q 621 -1 624 -1 q 588 12 599 -1 q 578 43 578 25 q 578 52 578 47 q 581 67 579 57 q 587 97 583 78 q 597 147 590 115 q 458 31 539 75 q 297 -14 378 -14 m 311 31 q 400 47 353 31 q 491 93 447 64 q 568 160 535 122 q 614 239 601 197 l 667 488 q 642 564 661 528 q 592 628 622 600 q 522 672 561 656 q 438 689 483 689 q 305 653 368 689 q 194 562 242 618 q 117 435 146 506 q 89 294 89 365 q 106 194 89 242 q 151 110 122 146 q 222 52 181 74 q 311 31 263 31 m 392 899 l 415 1013 l 458 1013 l 435 899 l 392 899 m 558 899 l 582 1013 l 625 1013 l 601 899 l 558 899 z "},"æ":{"ha":1228,"x_min":0,"x_max":1183,"o":"m 189 -14 q 106 1 142 -14 q 47 40 71 15 q 12 98 24 65 q 0 168 0 131 q 26 269 0 224 q 97 348 51 315 q 203 399 142 381 q 335 417 264 417 q 427 409 381 417 q 514 389 474 401 q 539 458 524 425 q 569 524 554 492 q 525 647 569 600 q 401 693 481 693 q 286 670 347 693 q 158 604 225 647 l 144 639 q 287 710 222 688 q 413 733 351 733 q 546 691 493 733 q 610 569 599 649 q 748 688 668 643 q 915 733 828 733 q 1023 712 974 733 q 1108 652 1072 690 q 1163 563 1143 614 q 1183 451 1183 511 q 1178 391 1183 422 q 1165 340 1174 360 l 550 340 q 546 285 546 311 q 562 182 546 229 q 608 100 578 135 q 680 46 638 65 q 774 26 722 26 q 850 37 811 26 q 924 67 889 47 q 988 113 958 86 q 1038 172 1017 140 l 1078 161 q 1021 91 1056 124 q 944 35 986 58 q 856 -1 903 13 q 763 -14 808 -14 q 613 31 675 -14 q 521 151 550 76 q 447 75 490 107 q 358 24 404 43 q 268 -5 313 4 q 189 -14 224 -14 m 206 26 q 295 39 247 26 q 385 74 343 51 q 461 128 428 97 q 507 196 494 160 q 497 274 497 229 q 506 351 497 311 q 421 374 465 367 q 333 381 376 381 q 218 366 271 381 q 127 325 165 351 q 67 260 89 299 q 46 176 46 222 q 55 120 46 147 q 84 72 64 93 q 134 39 104 51 q 206 26 164 26 m 1128 378 q 1136 450 1136 413 q 1122 542 1136 499 q 1078 619 1107 586 q 1007 672 1050 653 q 908 692 964 692 q 794 668 850 692 q 692 603 739 644 q 610 503 644 561 q 557 378 575 446 l 1128 378 z "},"ǽ":{"ha":1228,"x_min":0,"x_max":1183,"o":"m 665 886 l 636 904 l 742 1014 l 803 1014 l 665 886 m 189 -14 q 106 1 142 -14 q 47 40 71 15 q 12 98 24 65 q 0 168 0 131 q 26 269 0 224 q 97 348 51 315 q 203 399 142 381 q 335 417 264 417 q 427 409 381 417 q 514 389 474 401 q 539 458 524 425 q 569 524 554 492 q 525 647 569 600 q 401 693 481 693 q 286 670 347 693 q 158 604 225 647 l 144 639 q 287 710 222 688 q 413 733 351 733 q 546 691 493 733 q 610 569 599 649 q 748 688 668 643 q 915 733 828 733 q 1023 712 974 733 q 1108 652 1072 690 q 1163 563 1143 614 q 1183 451 1183 511 q 1178 391 1183 422 q 1165 340 1174 360 l 550 340 q 546 285 546 311 q 562 182 546 229 q 608 100 578 135 q 680 46 638 65 q 774 26 722 26 q 850 37 811 26 q 924 67 889 47 q 988 113 958 86 q 1038 172 1017 140 l 1078 161 q 1021 91 1056 124 q 944 35 986 58 q 856 -1 903 13 q 763 -14 808 -14 q 613 31 675 -14 q 521 151 550 76 q 447 75 490 107 q 358 24 404 43 q 268 -5 313 4 q 189 -14 224 -14 m 206 26 q 295 39 247 26 q 385 74 343 51 q 461 128 428 97 q 507 196 494 160 q 497 274 497 229 q 506 351 497 311 q 421 374 465 367 q 333 381 376 381 q 218 366 271 381 q 127 325 165 351 q 67 260 89 299 q 46 176 46 222 q 55 120 46 147 q 84 72 64 93 q 134 39 104 51 q 206 26 164 26 m 1128 378 q 1136 450 1136 413 q 1122 542 1136 499 q 1078 619 1107 586 q 1007 672 1050 653 q 908 692 964 692 q 794 668 850 692 q 692 603 739 644 q 610 503 644 561 q 557 378 575 446 l 1128 378 z "},"à":{"ha":813,"x_min":40,"x_max":765,"o":"m 297 -14 q 190 11 238 -14 q 108 78 142 36 q 58 176 75 121 q 40 290 40 231 q 74 455 40 375 q 163 597 107 535 q 292 696 219 658 q 443 733 365 733 q 528 719 490 733 q 597 681 567 706 q 648 625 626 657 q 682 558 669 593 l 717 722 l 765 722 l 628 79 q 625 63 625 71 q 644 44 625 44 l 635 0 q 628 -1 632 0 q 621 -1 624 -1 q 588 12 599 -1 q 578 43 578 25 q 578 52 578 47 q 581 67 579 57 q 587 97 583 78 q 597 147 590 115 q 458 31 539 75 q 297 -14 378 -14 m 311 31 q 400 47 353 31 q 491 93 447 64 q 568 160 535 122 q 614 239 601 197 l 667 488 q 642 564 661 528 q 592 628 622 600 q 522 672 561 656 q 438 689 483 689 q 305 653 368 689 q 194 562 242 618 q 117 435 146 506 q 89 294 89 365 q 106 194 89 242 q 151 110 122 146 q 222 52 181 74 q 311 31 263 31 m 436 1014 l 497 1014 l 557 904 l 519 886 l 436 1014 z "},"ā":{"ha":813,"x_min":40,"x_max":765,"o":"m 297 -14 q 190 11 238 -14 q 108 78 142 36 q 58 176 75 121 q 40 290 40 231 q 74 455 40 375 q 163 597 107 535 q 292 696 219 658 q 443 733 365 733 q 528 719 490 733 q 597 681 567 706 q 648 625 626 657 q 682 558 669 593 l 717 722 l 765 722 l 628 79 q 625 63 625 71 q 644 44 625 44 l 635 0 q 628 -1 632 0 q 621 -1 624 -1 q 588 12 599 -1 q 578 43 578 25 q 578 52 578 47 q 581 67 579 57 q 587 97 583 78 q 597 147 590 115 q 458 31 539 75 q 297 -14 378 -14 m 311 31 q 400 47 353 31 q 491 93 447 64 q 568 160 535 122 q 614 239 601 197 l 667 488 q 642 564 661 528 q 592 628 622 600 q 522 672 561 656 q 438 689 483 689 q 305 653 368 689 q 194 562 242 618 q 117 435 146 506 q 89 294 89 365 q 106 194 89 242 q 151 110 122 146 q 222 52 181 74 q 311 31 263 31 m 325 943 l 332 982 l 706 982 l 697 943 l 325 943 z "},"&":{"ha":929,"x_min":26,"x_max":910,"o":"m 583 160 q 430 32 513 78 q 260 -14 347 -14 q 165 3 208 -14 q 92 50 122 19 q 44 123 61 81 q 26 217 26 165 q 94 400 26 317 q 304 565 161 483 q 241 681 260 636 q 222 764 222 725 q 245 853 222 811 q 306 928 268 896 q 394 979 344 960 q 499 999 444 999 q 632 960 574 999 q 719 853 690 922 l 688 824 q 610 923 661 886 q 492 960 558 960 q 407 944 447 960 q 336 901 367 928 q 287 841 306 875 q 268 769 268 807 q 288 688 268 733 q 354 576 308 643 l 590 238 q 674 394 639 308 q 728 578 710 479 l 910 578 l 901 536 l 765 536 q 705 354 743 439 q 615 201 667 269 l 757 0 l 693 0 l 583 160 m 268 29 q 422 73 347 29 q 558 196 496 117 l 328 532 q 138 383 199 457 q 76 221 76 308 q 130 82 76 135 q 268 29 183 29 z "},"ą":{"ha":813,"x_min":40,"x_max":765,"o":"m 521 -228 q 475 -200 490 -219 q 460 -154 460 -181 q 490 -79 460 -115 q 594 6 521 -43 q 578 43 578 18 q 578 52 578 47 q 581 67 579 57 q 587 97 583 78 q 597 147 590 115 q 458 31 539 75 q 297 -14 378 -14 q 190 11 238 -14 q 108 78 142 36 q 58 176 75 121 q 40 290 40 231 q 74 455 40 375 q 163 597 107 535 q 292 696 219 658 q 443 733 365 733 q 528 719 490 733 q 597 681 567 706 q 648 625 626 657 q 682 558 669 593 l 717 722 l 765 722 l 628 79 q 625 63 625 71 q 644 44 625 44 l 635 0 q 568 -44 594 -25 q 526 -79 542 -62 q 503 -112 510 -96 q 497 -144 497 -128 q 547 -196 497 -186 l 521 -228 m 311 31 q 400 47 353 31 q 491 93 447 64 q 568 160 535 122 q 614 239 601 197 l 667 488 q 642 564 661 528 q 592 628 622 600 q 522 672 561 656 q 438 689 483 689 q 305 653 368 689 q 194 562 242 618 q 117 435 146 506 q 89 294 89 365 q 106 194 89 242 q 151 110 122 146 q 222 52 181 74 q 311 31 263 31 z "},"ʼ":{"ha":747,"x_min":413,"x_max":579,"o":"m 413 904 l 481 975 l 490 1014 l 579 1014 l 442 886 l 413 904 z "},"å":{"ha":813,"x_min":40,"x_max":765,"o":"m 297 -14 q 190 11 238 -14 q 108 78 142 36 q 58 176 75 121 q 40 290 40 231 q 74 455 40 375 q 163 597 107 535 q 292 696 219 658 q 443 733 365 733 q 528 719 490 733 q 597 681 567 706 q 648 625 626 657 q 682 558 669 593 l 717 722 l 765 722 l 628 79 q 625 63 625 71 q 644 44 625 44 l 635 0 q 628 -1 632 0 q 621 -1 624 -1 q 588 12 599 -1 q 578 43 578 25 q 578 52 578 47 q 581 67 579 57 q 587 97 583 78 q 597 147 590 115 q 458 31 539 75 q 297 -14 378 -14 m 311 31 q 400 47 353 31 q 491 93 447 64 q 568 160 535 122 q 614 239 601 197 l 667 488 q 642 564 661 528 q 592 628 622 600 q 522 672 561 656 q 438 689 483 689 q 305 653 368 689 q 194 562 242 618 q 117 435 146 506 q 89 294 89 365 q 106 194 89 242 q 151 110 122 146 q 222 52 181 74 q 311 31 263 31 m 418 915 q 449 985 418 957 q 521 1014 481 1014 q 569 995 551 1014 q 586 947 586 976 q 556 878 586 907 q 485 849 525 849 q 436 867 454 849 q 418 915 418 886 m 514 988 q 468 969 489 988 q 447 921 447 950 q 459 888 447 901 q 490 875 471 875 q 536 894 514 875 q 558 942 558 914 q 546 975 558 963 q 514 988 533 988 z "},"ǻ":{"ha":813,"x_min":40,"x_max":765,"o":"m 297 -14 q 190 11 238 -14 q 108 78 142 36 q 58 176 75 121 q 40 290 40 231 q 74 455 40 375 q 163 597 107 535 q 292 696 219 658 q 443 733 365 733 q 528 719 490 733 q 597 681 567 706 q 648 625 626 657 q 682 558 669 593 l 717 722 l 765 722 l 628 79 q 625 63 625 71 q 644 44 625 44 l 635 0 q 628 -1 632 0 q 621 -1 624 -1 q 588 12 599 -1 q 578 43 578 25 q 578 52 578 47 q 581 67 579 57 q 587 97 583 78 q 597 147 590 115 q 458 31 539 75 q 297 -14 378 -14 m 311 31 q 400 47 353 31 q 491 93 447 64 q 568 160 535 122 q 614 239 601 197 l 667 488 q 642 564 661 528 q 592 628 622 600 q 522 672 561 656 q 438 689 483 689 q 305 653 368 689 q 194 562 242 618 q 117 435 146 506 q 89 294 89 365 q 106 194 89 242 q 151 110 122 146 q 222 52 181 74 q 311 31 263 31 m 506 1079 l 476 1097 l 582 1207 l 643 1207 l 506 1079 m 419 915 q 451 985 419 957 q 522 1014 482 1014 q 570 995 553 1014 q 588 947 588 976 q 557 878 588 907 q 486 849 526 849 q 438 867 456 849 q 419 915 419 886 m 515 988 q 469 969 490 988 q 449 921 449 950 q 460 888 449 901 q 492 875 472 875 q 538 894 515 875 q 560 942 560 914 q 547 975 560 963 q 515 988 535 988 z "},"^":{"ha":715,"x_min":75,"x_max":665,"o":"m 75 421 l 350 986 l 392 986 l 665 421 l 618 421 l 371 932 l 119 421 l 75 421 z "},"~":{"ha":635,"x_min":76,"x_max":550,"o":"m 76 344 q 84 367 76 349 q 108 408 92 386 q 149 448 125 431 q 207 465 174 465 q 262 452 236 465 q 312 424 288 439 q 361 395 336 408 q 414 382 386 382 q 458 392 439 382 q 488 417 476 403 q 506 442 500 431 q 513 457 513 454 l 550 456 q 542 437 550 454 q 517 399 533 419 q 474 361 500 378 q 410 344 447 344 q 349 358 376 344 q 297 386 321 371 q 249 415 272 401 q 204 428 226 428 q 165 415 182 428 q 137 388 149 403 q 119 359 125 372 q 113 344 113 346 l 76 344 l 76 344 z "},"*":{"ha":415,"x_min":186,"x_max":418,"o":"m 196 776 l 268 857 l 186 888 l 203 921 l 286 889 l 306 988 l 342 988 l 319 889 l 418 921 l 418 888 l 324 857 l 363 776 l 329 756 l 292 838 l 219 756 l 196 776 z "},"@":{"ha":1103,"x_min":36,"x_max":1015,"o":"m 758 13 q 843 49 803 13 q 915 144 883 86 q 964 274 946 201 q 982 417 982 346 q 956 572 982 500 q 882 694 929 643 q 768 775 835 746 q 621 804 701 804 q 417 756 517 804 q 241 627 318 708 q 117 440 164 546 q 69 221 69 335 q 96 66 69 138 q 169 -58 122 -6 q 283 -140 217 -110 q 428 -169 349 -169 q 531 -156 481 -169 q 635 -117 582 -143 l 643 -147 q 526 -189 585 -175 q 414 -203 467 -203 q 263 -171 332 -203 q 143 -82 193 -139 q 65 52 93 -25 q 36 219 36 129 q 88 454 36 342 q 222 651 139 567 q 412 787 306 736 q 628 838 518 838 q 784 807 713 838 q 907 721 856 776 q 987 590 958 665 q 1015 424 1015 514 q 995 269 1015 349 q 939 126 975 190 q 853 19 903 61 q 743 -22 803 -22 q 687 -2 706 -22 q 668 63 668 18 q 669 87 668 74 q 672 114 669 100 q 564 40 625 68 q 444 13 503 13 q 362 31 399 13 q 299 81 325 49 q 258 158 272 113 q 243 256 243 203 q 270 397 243 329 q 343 515 297 464 q 449 596 389 565 q 574 626 508 626 q 687 594 640 626 q 756 503 733 561 l 781 625 l 819 625 l 715 138 q 707 94 708 110 q 706 71 706 79 q 758 13 706 13 m 458 49 q 529 60 493 49 q 597 93 565 72 q 654 142 629 114 q 692 200 679 169 l 743 454 q 678 554 724 519 q 569 589 632 589 q 463 563 514 589 q 371 491 411 536 q 306 387 331 446 q 282 263 282 328 q 294 177 282 217 q 331 109 307 138 q 386 65 354 81 q 458 49 418 49 z "},"ã":{"ha":813,"x_min":40,"x_max":765,"o":"m 297 -14 q 190 11 238 -14 q 108 78 142 36 q 58 176 75 121 q 40 290 40 231 q 74 455 40 375 q 163 597 107 535 q 292 696 219 658 q 443 733 365 733 q 528 719 490 733 q 597 681 567 706 q 648 625 626 657 q 682 558 669 593 l 717 722 l 765 722 l 628 79 q 625 63 625 71 q 644 44 625 44 l 635 0 q 628 -1 632 0 q 621 -1 624 -1 q 588 12 599 -1 q 578 43 578 25 q 578 52 578 47 q 581 67 579 57 q 587 97 583 78 q 597 147 590 115 q 458 31 539 75 q 297 -14 378 -14 m 311 31 q 400 47 353 31 q 491 93 447 64 q 568 160 535 122 q 614 239 601 197 l 667 488 q 642 564 661 528 q 592 628 622 600 q 522 672 561 656 q 438 689 483 689 q 305 653 368 689 q 194 562 242 618 q 117 435 146 506 q 89 294 89 365 q 106 194 89 242 q 151 110 122 146 q 222 52 181 74 q 311 31 263 31 m 575 911 q 526 919 546 911 q 489 938 506 928 q 457 956 472 947 q 421 964 442 964 q 385 955 400 964 q 360 934 369 946 q 345 911 350 922 q 339 897 340 900 l 304 897 q 311 919 304 901 q 333 954 318 936 q 372 987 349 972 q 431 1001 396 1001 q 475 993 457 1001 q 509 974 493 985 q 542 956 525 964 q 585 947 560 947 q 628 957 611 947 q 656 978 646 967 q 672 1001 667 990 q 676 1014 676 1011 l 711 1014 q 703 992 710 1008 q 680 957 696 975 q 638 925 664 939 q 575 911 613 911 z "},"b":{"ha":807,"x_min":21,"x_max":743,"o":"m 331 -14 q 247 -1 285 -14 q 181 35 210 13 q 130 86 151 57 q 96 147 108 115 l 64 0 l 21 0 l 236 1014 l 283 1014 l 186 558 q 331 685 253 636 q 496 733 408 733 q 605 708 558 733 q 682 640 651 682 q 728 545 713 599 q 743 436 743 492 q 708 267 743 349 q 614 124 672 186 q 481 24 556 61 q 331 -14 407 -14 m 332 31 q 467 65 401 31 q 583 155 532 99 q 664 283 633 211 q 694 431 694 356 q 680 528 694 481 q 638 610 665 575 q 569 667 610 646 q 475 689 528 689 q 390 674 431 689 q 311 632 349 658 q 239 571 274 606 q 172 499 204 536 l 113 207 q 138 134 118 167 q 186 78 157 101 q 253 43 215 56 q 332 31 290 31 z "},"\\":{"ha":689,"x_min":146,"x_max":567,"o":"m 203 986 l 567 0 l 511 0 l 146 986 l 203 986 z "},"|":{"ha":367,"x_min":168,"x_max":213,"o":"m 168 -181 l 168 1076 l 213 1076 l 213 -181 l 168 -181 z "},"{":{"ha":315,"x_min":39,"x_max":376,"o":"m 294 985 l 208 581 q 196 544 206 569 q 161 500 186 519 q 174 476 171 489 q 176 449 176 463 q 174 419 176 431 l 85 0 l 158 0 l 149 -43 l 61 -43 q 46 -37 53 -43 q 39 -17 39 -32 q 40 -1 39 -7 l 129 413 q 132 436 132 426 q 124 465 132 453 q 100 481 117 478 l 108 522 q 133 531 122 522 q 150 549 143 539 q 160 571 157 560 q 165 588 164 582 l 250 986 q 269 1021 256 1014 q 289 1028 282 1028 l 376 1028 l 367 985 l 294 985 z "},"}":{"ha":315,"x_min":-29,"x_max":308,"o":"m 190 985 l 199 1028 l 285 1028 q 299 1023 290 1028 q 308 999 308 1018 q 307 986 308 990 l 222 588 q 219 565 219 579 q 226 536 219 550 q 251 522 232 522 l 243 481 q 204 457 218 478 q 185 413 190 436 l 97 -1 q 80 -34 92 -25 q 57 -43 68 -43 l -29 -43 l -21 0 l 51 0 l 142 419 q 154 455 143 429 q 189 500 165 481 q 176 525 179 511 q 172 551 172 539 q 175 581 172 569 l 263 985 l 190 985 z "},"[":{"ha":314,"x_min":28,"x_max":372,"o":"m 28 -56 l 258 1028 l 372 1028 l 363 985 l 294 985 l 82 -12 l 151 -12 l 143 -56 l 28 -56 z "},"]":{"ha":313,"x_min":-29,"x_max":314,"o":"m -29 -56 l -21 -12 l 47 -12 l 260 985 l 192 985 l 201 1028 l 314 1028 l 85 -56 l -29 -56 z "},"¦":{"ha":358,"x_min":164,"x_max":208,"o":"m 208 393 l 208 -181 l 164 -181 l 164 393 l 208 393 m 208 1076 l 208 503 l 164 503 l 164 1076 l 208 1076 z "},"•":{"ha":464,"x_min":132,"x_max":354,"o":"m 354 497 q 342 446 354 469 q 312 403 331 422 q 269 374 293 385 q 219 364 244 364 q 156 390 181 364 q 132 457 132 417 q 144 508 132 483 q 175 550 156 532 q 219 579 194 568 q 268 590 243 590 q 331 563 307 590 q 354 497 354 536 z "},"c":{"ha":718,"x_min":40,"x_max":693,"o":"m 306 -14 q 197 10 246 -14 q 113 75 147 33 q 59 172 78 117 q 40 292 40 228 q 75 461 40 381 q 168 602 110 542 q 303 698 226 663 q 463 733 379 733 q 614 690 554 733 q 693 569 674 646 l 643 553 q 572 653 624 617 q 450 689 521 689 q 316 658 381 689 q 201 573 251 626 q 119 449 150 519 q 89 299 89 378 q 105 194 89 243 q 150 109 121 146 q 220 51 179 72 q 311 31 261 31 q 389 42 349 31 q 465 74 429 54 q 528 119 500 93 q 569 174 556 144 l 614 160 q 560 90 593 122 q 485 35 526 58 q 398 -1 444 13 q 306 -14 351 -14 z "},"ć":{"ha":718,"x_min":40,"x_max":693,"o":"m 461 886 l 432 904 l 538 1014 l 599 1014 l 461 886 m 306 -14 q 197 10 246 -14 q 113 75 147 33 q 59 172 78 117 q 40 292 40 228 q 75 461 40 381 q 168 602 110 542 q 303 698 226 663 q 463 733 379 733 q 614 690 554 733 q 693 569 674 646 l 643 553 q 572 653 624 617 q 450 689 521 689 q 316 658 381 689 q 201 573 251 626 q 119 449 150 519 q 89 299 89 378 q 105 194 89 243 q 150 109 121 146 q 220 51 179 72 q 311 31 261 31 q 389 42 349 31 q 465 74 429 54 q 528 119 500 93 q 569 174 556 144 l 614 160 q 560 90 593 122 q 485 35 526 58 q 398 -1 444 13 q 306 -14 351 -14 z "},"č":{"ha":718,"x_min":40,"x_max":693,"o":"m 374 994 l 408 1014 l 503 926 l 633 1014 l 660 994 l 511 886 l 475 886 l 374 994 m 306 -14 q 197 10 246 -14 q 113 75 147 33 q 59 172 78 117 q 40 292 40 228 q 75 461 40 381 q 168 602 110 542 q 303 698 226 663 q 463 733 379 733 q 614 690 554 733 q 693 569 674 646 l 643 553 q 572 653 624 617 q 450 689 521 689 q 316 658 381 689 q 201 573 251 626 q 119 449 150 519 q 89 299 89 378 q 105 194 89 243 q 150 109 121 146 q 220 51 179 72 q 311 31 261 31 q 389 42 349 31 q 465 74 429 54 q 528 119 500 93 q 569 174 556 144 l 614 160 q 560 90 593 122 q 485 35 526 58 q 398 -1 444 13 q 306 -14 351 -14 z "},"ç":{"ha":718,"x_min":40,"x_max":693,"o":"m 169 -174 q 217 -191 188 -183 q 279 -199 246 -199 q 369 -135 369 -199 q 353 -104 369 -112 q 314 -96 338 -96 q 254 -103 286 -96 q 203 -117 222 -110 l 281 -12 q 182 17 226 -8 q 106 84 138 43 q 58 178 75 125 q 40 292 40 231 q 75 461 40 381 q 168 602 110 542 q 303 698 226 663 q 463 733 379 733 q 614 690 554 733 q 693 569 674 646 l 643 553 q 572 653 624 617 q 450 689 521 689 q 316 658 381 689 q 201 573 251 626 q 119 449 150 519 q 89 299 89 378 q 105 194 89 243 q 150 109 121 146 q 220 51 179 72 q 311 31 261 31 q 389 42 349 31 q 465 74 429 54 q 528 119 500 93 q 569 174 556 144 l 614 160 q 563 92 594 124 q 491 38 531 61 q 407 1 451 15 q 318 -14 363 -12 l 269 -76 q 299 -69 283 -71 q 325 -68 314 -68 q 403 -129 403 -68 q 367 -205 403 -179 q 267 -231 332 -231 q 201 -223 231 -231 q 147 -204 171 -215 l 169 -174 z "},"ĉ":{"ha":718,"x_min":40,"x_max":693,"o":"m 365 907 l 513 1014 l 549 1014 l 651 907 l 617 886 l 522 974 l 392 886 l 365 907 m 306 -14 q 197 10 246 -14 q 113 75 147 33 q 59 172 78 117 q 40 292 40 228 q 75 461 40 381 q 168 602 110 542 q 303 698 226 663 q 463 733 379 733 q 614 690 554 733 q 693 569 674 646 l 643 553 q 572 653 624 617 q 450 689 521 689 q 316 658 381 689 q 201 573 251 626 q 119 449 150 519 q 89 299 89 378 q 105 194 89 243 q 150 109 121 146 q 220 51 179 72 q 311 31 261 31 q 389 42 349 31 q 465 74 429 54 q 528 119 500 93 q 569 174 556 144 l 614 160 q 560 90 593 122 q 485 35 526 58 q 398 -1 444 13 q 306 -14 351 -14 z "},"ċ":{"ha":718,"x_min":40,"x_max":693,"o":"m 306 -14 q 197 10 246 -14 q 113 75 147 33 q 59 172 78 117 q 40 292 40 228 q 75 461 40 381 q 168 602 110 542 q 303 698 226 663 q 463 733 379 733 q 614 690 554 733 q 693 569 674 646 l 643 553 q 572 653 624 617 q 450 689 521 689 q 316 658 381 689 q 201 573 251 626 q 119 449 150 519 q 89 299 89 378 q 105 194 89 243 q 150 109 121 146 q 220 51 179 72 q 311 31 261 31 q 389 42 349 31 q 465 74 429 54 q 528 119 500 93 q 569 174 556 144 l 614 160 q 560 90 593 122 q 485 35 526 58 q 398 -1 444 13 q 306 -14 351 -14 m 478 899 l 503 1014 l 547 1014 l 524 899 l 478 899 z "},"¢":{"ha":732,"x_min":42,"x_max":694,"o":"m 243 -167 l 276 -12 q 177 19 221 -8 q 103 89 133 47 q 58 183 74 131 q 42 292 42 236 q 73 447 42 371 q 158 585 104 524 q 283 688 211 647 q 435 733 354 728 l 469 896 l 503 896 l 468 733 q 622 685 569 731 q 694 569 675 640 l 644 553 q 575 653 624 621 q 460 689 526 686 l 319 31 q 387 41 349 31 q 461 70 425 51 q 527 115 497 89 q 572 174 557 142 l 617 160 q 556 84 593 117 q 477 30 519 51 q 391 -3 435 8 q 310 -14 347 -14 l 276 -167 l 243 -167 m 90 297 q 104 201 90 247 q 143 120 118 156 q 204 61 168 85 q 286 33 240 38 l 425 688 q 292 645 353 683 q 185 551 231 607 q 115 428 140 494 q 90 297 90 361 z "},":":{"ha":228,"x_min":3,"x_max":199,"o":"m 133 615 l 156 718 l 199 718 l 176 615 l 133 615 m 3 0 l 25 103 l 67 103 l 46 0 l 3 0 z "},",":{"ha":343,"x_min":33,"x_max":128,"o":"m 33 -112 l 72 -8 l 54 -8 l 78 103 l 128 103 l 104 -8 l 61 -112 l 33 -112 z "},"©":{"ha":1165,"x_min":93,"x_max":1101,"o":"m 597 -10 q 397 28 489 -10 q 237 134 304 67 q 131 293 169 201 q 93 493 93 385 q 131 692 93 600 q 237 850 169 783 q 397 955 304 917 q 597 993 489 993 q 798 955 706 993 q 958 850 890 917 q 1063 692 1025 783 q 1101 493 1101 600 q 1063 293 1101 385 q 958 134 1025 201 q 798 28 890 67 q 597 -10 706 -10 m 599 24 q 783 58 697 24 q 931 153 868 92 q 1031 299 994 214 q 1067 489 1067 385 q 1031 677 1067 590 q 933 826 996 764 q 785 924 871 889 q 599 960 700 960 q 411 924 497 960 q 262 826 325 889 q 163 678 199 764 q 128 492 128 593 q 163 306 128 392 q 261 157 199 219 q 410 59 324 94 q 599 24 496 24 m 607 175 q 496 197 551 175 q 397 259 440 218 q 325 359 353 300 q 297 493 297 418 q 315 606 297 549 q 370 710 333 664 q 463 786 407 757 q 597 815 519 815 q 676 806 638 815 q 746 780 714 797 q 803 735 778 763 q 842 672 828 708 l 797 657 q 757 715 782 693 q 703 750 732 738 q 647 767 675 763 q 597 771 619 771 q 485 746 532 771 q 406 681 438 721 q 360 591 375 640 q 346 493 346 542 q 370 376 346 428 q 432 290 394 325 q 515 236 469 254 q 601 218 560 218 q 662 226 631 218 q 722 250 693 235 q 774 288 751 265 q 810 339 797 311 l 854 326 q 827 280 847 306 q 774 231 807 254 q 699 191 742 207 q 607 175 657 175 z "},"d":{"ha":813,"x_min":40,"x_max":826,"o":"m 300 -14 q 190 11 239 -14 q 108 78 142 36 q 58 176 75 121 q 40 292 40 232 q 74 455 40 375 q 163 597 107 535 q 293 696 219 658 q 446 733 367 733 q 529 719 492 733 q 597 681 567 706 q 648 625 626 657 q 682 558 669 593 l 778 1014 l 826 1014 l 626 78 q 625 70 625 74 q 625 64 625 67 q 644 44 625 44 l 635 0 q 613 1 618 0 q 586 17 594 4 q 578 44 578 29 q 578 51 578 47 q 581 66 579 56 q 587 96 583 76 q 597 147 590 115 q 458 31 539 75 q 300 -14 378 -14 m 315 31 q 400 47 353 31 q 490 92 447 64 q 567 159 533 121 q 614 239 601 197 l 667 488 q 640 566 661 529 q 589 630 619 603 q 521 673 558 657 q 443 689 483 689 q 306 654 371 689 q 194 563 242 619 q 117 438 146 507 q 89 299 89 368 q 105 195 89 244 q 151 110 121 146 q 222 52 181 74 q 315 31 264 31 z "},"†":{"ha":513,"x_min":46,"x_max":449,"o":"m 107 -181 l 219 354 l 46 354 l 56 399 l 231 399 l 375 1076 l 421 1076 l 276 399 l 449 399 l 439 354 l 265 354 l 153 -181 l 107 -181 z "},"‡":{"ha":521,"x_min":31,"x_max":476,"o":"m 111 -181 l 204 263 l 31 263 l 40 307 l 215 307 l 247 460 l 74 460 l 83 506 l 257 506 l 378 1076 l 424 1076 l 303 506 l 476 506 l 465 460 l 293 460 l 261 307 l 433 307 l 424 263 l 250 263 l 157 -181 l 111 -181 z "},"ď":{"ha":813,"x_min":40,"x_max":1029,"o":"m 863 904 l 968 1014 l 1029 1014 l 892 886 l 863 904 m 300 -14 q 190 11 239 -14 q 108 78 142 36 q 58 176 75 121 q 40 292 40 232 q 74 455 40 375 q 163 597 107 535 q 293 696 219 658 q 446 733 367 733 q 529 719 492 733 q 597 681 567 706 q 648 625 626 657 q 682 558 669 593 l 778 1014 l 826 1014 l 626 78 q 625 70 625 74 q 625 64 625 67 q 644 44 625 44 l 635 0 q 613 1 618 0 q 586 17 594 4 q 578 44 578 29 q 578 51 578 47 q 581 66 579 56 q 587 96 583 76 q 597 147 590 115 q 458 31 539 75 q 300 -14 378 -14 m 315 31 q 400 47 353 31 q 490 92 447 64 q 567 159 533 121 q 614 239 601 197 l 667 488 q 640 566 661 529 q 589 630 619 603 q 521 673 558 657 q 443 689 483 689 q 306 654 371 689 q 194 563 242 619 q 117 438 146 507 q 89 299 89 368 q 105 195 89 244 q 151 110 121 146 q 222 52 181 74 q 315 31 264 31 z "},"đ":{"ha":813,"x_min":40,"x_max":904,"o":"m 600 908 l 756 908 l 778 1014 l 826 1014 l 804 908 l 904 908 l 897 869 l 796 869 l 626 78 q 625 70 625 74 q 625 64 625 67 q 644 44 625 44 l 635 0 q 613 1 618 0 q 586 17 594 4 q 578 44 578 29 q 578 51 578 47 q 581 66 579 56 q 587 96 583 76 q 597 147 590 115 q 458 31 539 75 q 300 -14 378 -14 q 190 11 239 -14 q 108 78 142 36 q 58 176 75 121 q 40 292 40 232 q 74 455 40 375 q 163 597 107 535 q 293 696 219 658 q 446 733 367 733 q 529 719 492 733 q 597 681 567 706 q 648 625 626 657 q 682 558 669 593 l 747 869 l 592 869 l 600 908 m 315 31 q 400 47 353 31 q 490 92 447 64 q 567 159 533 121 q 614 239 601 197 l 667 488 q 640 566 661 529 q 589 630 619 603 q 521 673 558 657 q 443 689 483 689 q 306 654 371 689 q 194 563 242 619 q 117 438 146 507 q 89 299 89 368 q 105 195 89 244 q 151 110 121 146 q 222 52 181 74 q 315 31 264 31 z "},"°":{"ha":346,"x_min":172,"x_max":372,"o":"m 250 803 q 194 825 215 803 q 172 882 172 847 q 182 926 172 904 q 208 967 192 949 q 247 995 225 985 q 294 1006 269 1006 q 351 982 329 1006 q 372 922 372 958 q 362 877 372 899 q 335 839 351 856 q 296 813 318 822 q 250 803 274 803 m 258 838 q 285 844 271 838 q 311 861 300 850 q 330 886 322 872 q 338 917 338 900 q 324 954 338 942 q 286 967 310 967 q 234 945 257 967 q 211 892 211 924 q 223 853 211 868 q 258 838 235 838 z "},"÷":{"ha":757,"x_min":90,"x_max":650,"o":"m 347 540 l 347 640 l 392 640 l 392 540 l 347 540 m 347 121 l 347 219 l 392 219 l 392 121 l 347 121 m 90 360 l 90 403 l 650 403 l 650 360 l 90 360 z "},"$":{"ha":819,"x_min":4,"x_max":807,"o":"m 774 840 q 680 923 735 899 q 543 949 625 947 l 450 514 q 566 481 514 499 q 656 439 618 464 q 713 379 693 414 q 733 294 733 344 q 705 167 733 222 q 624 72 676 111 q 500 13 572 33 q 342 -7 428 -7 l 315 -133 l 281 -133 l 308 -6 q 4 143 114 3 l 40 178 q 318 35 133 44 l 413 474 q 303 503 351 488 q 221 542 254 519 q 170 597 188 565 q 153 675 153 629 q 180 803 153 746 q 256 901 207 861 q 372 965 304 942 q 519 992 439 989 l 550 1132 l 585 1132 l 554 993 q 703 964 642 992 q 807 876 765 936 l 774 840 m 681 282 q 619 399 681 358 q 440 468 558 439 l 347 35 q 485 51 424 35 q 590 98 547 67 q 657 175 633 129 q 681 282 681 221 m 204 689 q 217 627 204 653 q 258 582 231 601 q 326 549 285 563 q 422 521 367 535 l 513 947 q 372 923 431 944 q 276 867 314 901 q 222 788 239 833 q 204 689 204 742 z "},"ı":{"ha":265,"x_min":21,"x_max":221,"o":"m 174 722 l 221 722 l 68 0 l 21 0 l 174 722 z "},"ȷ":{"ha":265,"x_min":-296,"x_max":221,"o":"m -168 -240 q -242 -230 -208 -240 q -296 -192 -275 -219 l -261 -161 q -217 -189 -243 -182 q -162 -196 -190 -196 q -110 -184 -137 -196 q -58 -152 -82 -172 q -15 -105 -33 -132 q 10 -46 3 -78 l 174 722 l 221 722 l 57 -44 q 24 -124 49 -87 q -31 -185 0 -160 q -99 -226 -62 -211 q -168 -240 -135 -240 z "},"e":{"ha":729,"x_min":40,"x_max":683,"o":"m 308 -14 q 194 10 244 -14 q 110 76 144 35 q 58 174 76 118 q 40 292 40 229 q 73 454 40 375 q 163 596 106 533 q 297 696 219 658 q 465 733 375 733 q 543 721 504 733 q 613 685 582 708 q 664 625 644 661 q 683 542 683 589 q 313 339 683 339 q 211 340 264 339 q 93 346 158 342 q 89 293 89 318 q 103 190 89 239 q 147 106 118 142 q 219 48 176 69 q 319 26 263 26 q 395 38 357 26 q 469 69 433 49 q 535 117 504 89 q 585 182 565 146 l 626 169 q 567 94 603 128 q 490 37 532 61 q 402 -1 449 13 q 308 -14 356 -14 m 458 692 q 333 666 392 692 q 228 598 275 640 q 149 500 182 556 q 101 386 117 444 q 217 381 165 382 q 317 379 268 379 q 467 391 406 379 q 566 425 528 403 q 621 477 604 447 q 638 543 638 507 q 621 610 638 582 q 578 657 604 639 q 521 683 553 675 q 458 692 489 692 z "},"é":{"ha":729,"x_min":40,"x_max":683,"o":"m 463 886 l 433 904 l 539 1014 l 600 1014 l 463 886 m 308 -14 q 194 10 244 -14 q 110 76 144 35 q 58 174 76 118 q 40 292 40 229 q 73 454 40 375 q 163 596 106 533 q 297 696 219 658 q 465 733 375 733 q 543 721 504 733 q 613 685 582 708 q 664 625 644 661 q 683 542 683 589 q 313 339 683 339 q 211 340 264 339 q 93 346 158 342 q 89 293 89 318 q 103 190 89 239 q 147 106 118 142 q 219 48 176 69 q 319 26 263 26 q 395 38 357 26 q 469 69 433 49 q 535 117 504 89 q 585 182 565 146 l 626 169 q 567 94 603 128 q 490 37 532 61 q 402 -1 449 13 q 308 -14 356 -14 m 458 692 q 333 666 392 692 q 228 598 275 640 q 149 500 182 556 q 101 386 117 444 q 217 381 165 382 q 317 379 268 379 q 467 391 406 379 q 566 425 528 403 q 621 477 604 447 q 638 543 638 507 q 621 610 638 582 q 578 657 604 639 q 521 683 553 675 q 458 692 489 692 z "},"ĕ":{"ha":729,"x_min":40,"x_max":683,"o":"m 308 -14 q 194 10 244 -14 q 110 76 144 35 q 58 174 76 118 q 40 292 40 229 q 73 454 40 375 q 163 596 106 533 q 297 696 219 658 q 465 733 375 733 q 543 721 504 733 q 613 685 582 708 q 664 625 644 661 q 683 542 683 589 q 313 339 683 339 q 211 340 264 339 q 93 346 158 342 q 89 293 89 318 q 103 190 89 239 q 147 106 118 142 q 219 48 176 69 q 319 26 263 26 q 395 38 357 26 q 469 69 433 49 q 535 117 504 89 q 585 182 565 146 l 626 169 q 567 94 603 128 q 490 37 532 61 q 402 -1 449 13 q 308 -14 356 -14 m 458 692 q 333 666 392 692 q 228 598 275 640 q 149 500 182 556 q 101 386 117 444 q 217 381 165 382 q 317 379 268 379 q 467 391 406 379 q 566 425 528 403 q 621 477 604 447 q 638 543 638 507 q 621 610 638 582 q 578 657 604 639 q 521 683 553 675 q 458 692 489 692 m 503 928 q 558 953 531 928 q 596 1014 585 978 l 629 1014 q 610 969 624 990 q 579 931 597 947 q 540 906 561 915 q 497 897 518 897 q 434 924 458 897 q 410 990 410 950 q 410 1002 410 997 q 413 1014 411 1007 l 449 1014 q 446 997 446 1003 q 462 949 446 969 q 503 928 478 928 z "},"ě":{"ha":729,"x_min":40,"x_max":683,"o":"m 371 994 l 406 1014 l 500 926 l 631 1014 l 657 994 l 508 886 l 472 886 l 371 994 m 308 -14 q 194 10 244 -14 q 110 76 144 35 q 58 174 76 118 q 40 292 40 229 q 73 454 40 375 q 163 596 106 533 q 297 696 219 658 q 465 733 375 733 q 543 721 504 733 q 613 685 582 708 q 664 625 644 661 q 683 542 683 589 q 313 339 683 339 q 211 340 264 339 q 93 346 158 342 q 89 293 89 318 q 103 190 89 239 q 147 106 118 142 q 219 48 176 69 q 319 26 263 26 q 395 38 357 26 q 469 69 433 49 q 535 117 504 89 q 585 182 565 146 l 626 169 q 567 94 603 128 q 490 37 532 61 q 402 -1 449 13 q 308 -14 356 -14 m 458 692 q 333 666 392 692 q 228 598 275 640 q 149 500 182 556 q 101 386 117 444 q 217 381 165 382 q 317 379 268 379 q 467 391 406 379 q 566 425 528 403 q 621 477 604 447 q 638 543 638 507 q 621 610 638 582 q 578 657 604 639 q 521 683 553 675 q 458 692 489 692 z "},"ê":{"ha":729,"x_min":40,"x_max":683,"o":"m 369 907 l 517 1014 l 553 1014 l 656 907 l 621 886 l 526 974 l 396 886 l 369 907 m 308 -14 q 194 10 244 -14 q 110 76 144 35 q 58 174 76 118 q 40 292 40 229 q 73 454 40 375 q 163 596 106 533 q 297 696 219 658 q 465 733 375 733 q 543 721 504 733 q 613 685 582 708 q 664 625 644 661 q 683 542 683 589 q 313 339 683 339 q 211 340 264 339 q 93 346 158 342 q 89 293 89 318 q 103 190 89 239 q 147 106 118 142 q 219 48 176 69 q 319 26 263 26 q 395 38 357 26 q 469 69 433 49 q 535 117 504 89 q 585 182 565 146 l 626 169 q 567 94 603 128 q 490 37 532 61 q 402 -1 449 13 q 308 -14 356 -14 m 458 692 q 333 666 392 692 q 228 598 275 640 q 149 500 182 556 q 101 386 117 444 q 217 381 165 382 q 317 379 268 379 q 467 391 406 379 q 566 425 528 403 q 621 477 604 447 q 638 543 638 507 q 621 610 638 582 q 578 657 604 639 q 521 683 553 675 q 458 692 489 692 z "},"ë":{"ha":729,"x_min":40,"x_max":683,"o":"m 393 899 l 417 1013 l 460 1013 l 436 899 l 393 899 m 560 899 l 583 1013 l 626 1013 l 603 899 l 560 899 m 308 -14 q 194 10 244 -14 q 110 76 144 35 q 58 174 76 118 q 40 292 40 229 q 73 454 40 375 q 163 596 106 533 q 297 696 219 658 q 465 733 375 733 q 543 721 504 733 q 613 685 582 708 q 664 625 644 661 q 683 542 683 589 q 313 339 683 339 q 211 340 264 339 q 93 346 158 342 q 89 293 89 318 q 103 190 89 239 q 147 106 118 142 q 219 48 176 69 q 319 26 263 26 q 395 38 357 26 q 469 69 433 49 q 535 117 504 89 q 585 182 565 146 l 626 169 q 567 94 603 128 q 490 37 532 61 q 402 -1 449 13 q 308 -14 356 -14 m 458 692 q 333 666 392 692 q 228 598 275 640 q 149 500 182 556 q 101 386 117 444 q 217 381 165 382 q 317 379 268 379 q 467 391 406 379 q 566 425 528 403 q 621 477 604 447 q 638 543 638 507 q 621 610 638 582 q 578 657 604 639 q 521 683 553 675 q 458 692 489 692 z "},"ė":{"ha":729,"x_min":40,"x_max":683,"o":"m 308 -14 q 194 10 244 -14 q 110 76 144 35 q 58 174 76 118 q 40 292 40 229 q 73 454 40 375 q 163 596 106 533 q 297 696 219 658 q 465 733 375 733 q 543 721 504 733 q 613 685 582 708 q 664 625 644 661 q 683 542 683 589 q 313 339 683 339 q 211 340 264 339 q 93 346 158 342 q 89 293 89 318 q 103 190 89 239 q 147 106 118 142 q 219 48 176 69 q 319 26 263 26 q 395 38 357 26 q 469 69 433 49 q 535 117 504 89 q 585 182 565 146 l 626 169 q 567 94 603 128 q 490 37 532 61 q 402 -1 449 13 q 308 -14 356 -14 m 458 692 q 333 666 392 692 q 228 598 275 640 q 149 500 182 556 q 101 386 117 444 q 217 381 165 382 q 317 379 268 379 q 467 391 406 379 q 566 425 528 403 q 621 477 604 447 q 638 543 638 507 q 621 610 638 582 q 578 657 604 639 q 521 683 553 675 q 458 692 489 692 m 479 899 l 504 1014 l 549 1014 l 525 899 l 479 899 z "},"è":{"ha":729,"x_min":40,"x_max":683,"o":"m 308 -14 q 194 10 244 -14 q 110 76 144 35 q 58 174 76 118 q 40 292 40 229 q 73 454 40 375 q 163 596 106 533 q 297 696 219 658 q 465 733 375 733 q 543 721 504 733 q 613 685 582 708 q 664 625 644 661 q 683 542 683 589 q 313 339 683 339 q 211 340 264 339 q 93 346 158 342 q 89 293 89 318 q 103 190 89 239 q 147 106 118 142 q 219 48 176 69 q 319 26 263 26 q 395 38 357 26 q 469 69 433 49 q 535 117 504 89 q 585 182 565 146 l 626 169 q 567 94 603 128 q 490 37 532 61 q 402 -1 449 13 q 308 -14 356 -14 m 458 692 q 333 666 392 692 q 228 598 275 640 q 149 500 182 556 q 101 386 117 444 q 217 381 165 382 q 317 379 268 379 q 467 391 406 379 q 566 425 528 403 q 621 477 604 447 q 638 543 638 507 q 621 610 638 582 q 578 657 604 639 q 521 683 553 675 q 458 692 489 692 m 444 1014 l 506 1014 l 565 904 l 528 886 l 444 1014 z "},"₈":{"ha":515,"x_min":-28,"x_max":415,"o":"m 381 57 q 360 -14 381 18 q 307 -69 340 -46 q 231 -104 274 -92 q 142 -117 188 -117 q 17 -77 61 -117 q -28 17 -28 -37 q -13 74 -28 47 q 24 121 1 100 q 76 156 47 142 q 132 178 104 169 q 73 216 97 190 q 49 278 49 242 q 68 341 49 313 q 118 388 88 369 q 186 417 149 407 q 260 428 224 428 q 318 420 290 428 q 367 398 346 413 q 402 362 389 383 q 415 314 415 340 q 404 267 415 289 q 374 228 393 246 q 331 199 356 211 q 279 178 306 186 q 352 133 324 164 q 381 57 381 101 m 343 56 q 331 100 343 81 q 298 133 318 119 q 253 153 278 146 q 201 161 228 161 q 135 151 169 161 q 74 122 101 140 q 28 78 46 104 q 11 22 11 53 q 24 -22 11 -3 q 56 -54 36 -40 q 101 -75 76 -68 q 153 -82 126 -82 q 219 -72 185 -82 q 281 -44 253 -62 q 326 -1 308 -26 q 343 56 343 24 m 88 279 q 98 242 88 258 q 126 215 108 226 q 165 199 143 204 q 210 193 188 193 q 266 201 236 193 q 320 223 296 208 q 360 258 344 238 q 376 307 376 279 q 339 370 376 347 q 251 393 301 393 q 192 385 221 393 q 140 362 163 376 q 102 326 117 347 q 88 279 88 304 z "},"⁸":{"ha":517,"x_min":121,"x_max":563,"o":"m 529 756 q 508 684 529 717 q 454 628 488 651 q 378 593 421 606 q 290 581 335 581 q 166 620 211 581 q 121 714 121 660 q 135 772 121 746 q 173 819 150 799 q 225 853 196 839 q 282 876 254 868 q 222 914 246 889 q 197 975 197 939 q 217 1038 197 1010 q 267 1085 236 1067 q 335 1115 297 1104 q 408 1125 372 1125 q 465 1117 438 1125 q 515 1096 493 1110 q 549 1060 536 1082 q 563 1013 563 1039 q 551 966 563 988 q 522 927 540 944 q 479 897 503 910 q 429 876 456 885 q 501 831 474 861 q 529 756 529 800 m 492 753 q 479 797 492 778 q 447 831 467 817 q 403 851 428 844 q 351 858 378 858 q 284 849 318 858 q 222 820 250 839 q 177 776 194 801 q 160 719 160 750 q 172 676 160 694 q 205 644 185 657 q 250 624 225 631 q 301 617 275 617 q 367 626 333 617 q 429 653 401 636 q 474 696 457 671 q 492 753 492 721 m 235 976 q 246 940 235 956 q 274 913 257 924 q 313 896 292 901 q 357 890 335 890 q 413 898 383 890 q 468 920 443 906 q 509 956 493 935 q 525 1004 525 978 q 515 1041 525 1025 q 487 1068 504 1057 q 447 1085 469 1079 q 400 1090 425 1090 q 340 1082 369 1090 q 288 1059 311 1074 q 249 1024 264 1044 q 235 976 235 1003 z "},"…":{"ha":518,"x_min":8,"x_max":358,"o":"m 8 0 l 31 103 l 74 103 l 51 0 l 8 0 m 151 0 l 174 103 l 215 103 l 194 0 l 151 0 m 293 0 l 315 103 l 358 103 l 336 0 l 293 0 z "},"ē":{"ha":729,"x_min":40,"x_max":706,"o":"m 308 -14 q 194 10 244 -14 q 110 76 144 35 q 58 174 76 118 q 40 292 40 229 q 73 454 40 375 q 163 596 106 533 q 297 696 219 658 q 465 733 375 733 q 543 721 504 733 q 613 685 582 708 q 664 625 644 661 q 683 542 683 589 q 313 339 683 339 q 211 340 264 339 q 93 346 158 342 q 89 293 89 318 q 103 190 89 239 q 147 106 118 142 q 219 48 176 69 q 319 26 263 26 q 395 38 357 26 q 469 69 433 49 q 535 117 504 89 q 585 182 565 146 l 626 169 q 567 94 603 128 q 490 37 532 61 q 402 -1 449 13 q 308 -14 356 -14 m 458 692 q 333 666 392 692 q 228 598 275 640 q 149 500 182 556 q 101 386 117 444 q 217 381 165 382 q 317 379 268 379 q 467 391 406 379 q 566 425 528 403 q 621 477 604 447 q 638 543 638 507 q 621 610 638 582 q 578 657 604 639 q 521 683 553 675 q 458 692 489 692 m 325 943 l 332 982 l 706 982 l 697 943 l 325 943 z "},"—":{"ha":1174,"x_min":79,"x_max":1076,"o":"m 79 354 l 88 400 l 1076 400 l 1068 354 l 79 354 z "},"–":{"ha":732,"x_min":79,"x_max":636,"o":"m 79 354 l 88 400 l 636 400 l 626 354 l 79 354 z "},"ŋ":{"ha":758,"x_min":21,"x_max":672,"o":"m 332 -240 q 259 -230 292 -240 q 204 -192 226 -219 l 240 -161 q 284 -189 258 -182 q 338 -196 310 -196 q 390 -184 363 -196 q 442 -152 418 -172 q 485 -105 467 -132 q 510 -46 503 -78 l 606 403 q 622 542 622 483 q 500 689 622 689 q 405 671 454 689 q 310 621 356 653 q 227 546 265 589 q 164 451 189 503 l 68 0 l 21 0 l 174 722 l 218 722 l 181 542 q 249 620 210 585 q 334 681 289 656 q 426 719 379 706 q 519 733 474 733 q 635 690 599 733 q 672 558 672 646 q 667 489 672 526 q 654 408 663 451 l 558 -44 q 525 -124 549 -87 q 469 -185 501 -160 q 401 -226 438 -211 q 332 -240 365 -240 z "},"ę":{"ha":729,"x_min":40,"x_max":683,"o":"m 228 -239 q 182 -211 197 -231 q 167 -165 167 -192 q 194 -93 167 -128 q 289 -12 222 -58 q 184 17 231 -8 q 106 83 138 42 q 57 177 74 124 q 40 292 40 231 q 73 454 40 375 q 163 596 106 533 q 297 696 219 658 q 465 733 375 733 q 543 721 504 733 q 613 685 582 708 q 664 625 644 661 q 683 542 683 589 q 313 339 683 339 q 211 340 264 339 q 93 346 158 342 q 89 293 89 318 q 103 190 89 239 q 147 106 118 142 q 219 48 176 69 q 319 26 263 26 q 395 38 357 26 q 469 69 433 49 q 535 117 504 89 q 585 182 565 146 l 626 169 q 504 44 582 93 q 339 -12 426 -4 q 274 -55 300 -36 q 233 -90 249 -74 q 210 -123 217 -107 q 204 -156 204 -139 q 254 -207 204 -197 l 228 -239 m 458 692 q 333 666 392 692 q 228 598 275 640 q 149 500 182 556 q 101 386 117 444 q 217 381 165 382 q 317 379 268 379 q 467 391 406 379 q 566 425 528 403 q 621 477 604 447 q 638 543 638 507 q 621 610 638 582 q 578 657 604 639 q 521 683 553 675 q 458 692 489 692 z "},"=":{"ha":636,"x_min":104,"x_max":515,"o":"m 104 306 l 104 346 l 515 346 l 515 306 l 104 306 m 104 421 l 104 461 l 515 461 l 515 421 l 104 421 z "},"ð":{"ha":793,"x_min":35,"x_max":750,"o":"m 750 964 l 611 882 q 708 698 682 793 q 735 514 735 603 q 696 294 735 392 q 595 128 657 196 q 456 23 533 60 q 300 -14 378 -14 q 192 8 240 -14 q 108 68 143 31 q 54 156 74 106 q 35 264 35 207 q 69 415 35 343 q 162 540 104 486 q 292 627 219 594 q 439 660 364 660 q 529 646 488 660 q 603 606 571 632 q 658 546 636 581 q 688 469 679 511 q 690 511 690 490 q 690 554 690 532 q 664 706 688 629 q 575 863 640 783 l 394 756 l 382 782 l 556 883 q 490 949 526 915 q 406 1014 453 982 l 472 1014 q 538 960 508 988 q 593 904 568 932 l 736 990 l 750 964 m 83 269 q 100 176 83 219 q 147 100 117 132 q 218 49 176 68 q 310 31 260 31 q 440 60 376 31 q 554 140 504 90 q 635 254 604 190 q 667 386 667 318 q 649 476 667 433 q 601 549 632 518 q 528 599 571 581 q 436 617 486 617 q 308 588 371 617 q 194 512 244 560 q 114 401 144 464 q 83 269 83 338 z "},"ẽ":{"ha":729,"x_min":40,"x_max":711,"o":"m 308 -14 q 194 10 244 -14 q 110 76 144 35 q 58 174 76 118 q 40 292 40 229 q 73 454 40 375 q 163 596 106 533 q 297 696 219 658 q 465 733 375 733 q 543 721 504 733 q 613 685 582 708 q 664 625 644 661 q 683 542 683 589 q 313 339 683 339 q 211 340 264 339 q 93 346 158 342 q 89 293 89 318 q 103 190 89 239 q 147 106 118 142 q 219 48 176 69 q 319 26 263 26 q 395 38 357 26 q 469 69 433 49 q 535 117 504 89 q 585 182 565 146 l 626 169 q 567 94 603 128 q 490 37 532 61 q 402 -1 449 13 q 308 -14 356 -14 m 458 692 q 333 666 392 692 q 228 598 275 640 q 149 500 182 556 q 101 386 117 444 q 217 381 165 382 q 317 379 268 379 q 467 391 406 379 q 566 425 528 403 q 621 477 604 447 q 638 543 638 507 q 621 610 638 582 q 578 657 604 639 q 521 683 553 675 q 458 692 489 692 m 575 911 q 526 919 546 911 q 489 938 506 928 q 457 956 472 947 q 421 964 442 964 q 385 955 400 964 q 360 934 369 946 q 345 911 350 922 q 339 897 340 900 l 304 897 q 311 919 304 901 q 333 954 318 936 q 372 987 349 972 q 431 1001 396 1001 q 475 993 457 1001 q 509 974 493 985 q 542 956 525 964 q 585 947 560 947 q 628 957 611 947 q 656 978 646 967 q 672 1001 667 990 q 676 1014 676 1011 l 711 1014 q 703 992 710 1008 q 680 957 696 975 q 638 925 664 939 q 575 911 613 911 z "},"!":{"ha":321,"x_min":49,"x_max":306,"o":"m 110 289 l 260 996 l 306 996 l 157 289 l 110 289 m 49 0 l 75 128 l 128 128 l 94 0 l 49 0 z "},"¡":{"ha":321,"x_min":47,"x_max":306,"o":"m 244 706 l 94 -1 l 47 -1 l 197 706 l 244 706 m 306 994 l 279 867 l 226 867 l 258 994 l 306 994 z "},"f":{"ha":418,"x_min":-18,"x_max":572,"o":"m 189 681 l 92 681 l 100 722 l 199 722 l 204 749 q 297 954 231 881 q 451 1028 364 1028 q 523 1015 490 1028 q 572 981 556 1001 l 543 950 q 503 975 529 965 q 449 985 478 985 q 326 924 378 985 q 251 749 275 864 l 246 722 l 444 722 l 436 681 l 236 681 l 29 -296 l -18 -296 l 189 681 z "},"ﬀ":{"ha":739,"x_min":44,"x_max":879,"o":"m 189 681 l 92 681 l 100 722 l 199 722 l 201 735 q 230 820 210 778 q 281 897 250 863 q 354 951 313 931 q 450 972 396 972 q 529 960 496 972 q 578 936 563 949 q 659 1003 614 978 q 767 1028 704 1028 q 821 1022 800 1028 q 854 1008 842 1015 q 872 992 867 1000 q 879 981 876 985 l 850 950 q 842 960 847 954 q 827 971 836 965 q 803 980 818 976 q 765 983 788 983 q 674 962 714 983 q 606 906 635 940 q 560 831 578 872 q 535 749 543 789 l 529 722 l 764 722 l 756 681 l 519 681 l 375 0 l 328 0 l 472 681 l 236 681 l 92 0 l 44 0 l 189 681 m 481 722 q 509 822 492 782 q 551 897 526 863 q 500 923 532 917 q 447 929 468 929 q 366 910 400 929 q 308 861 332 890 q 270 798 285 832 q 249 735 256 764 l 246 722 l 481 722 z "},"ﬃ":{"ha":903,"x_min":44,"x_max":931,"o":"m 189 681 l 92 681 l 100 722 l 199 722 l 200 733 q 228 819 208 776 q 280 895 249 861 q 354 951 311 929 q 451 972 397 972 q 529 960 496 972 q 578 936 563 949 q 662 1003 614 978 q 772 1028 710 1028 q 833 1021 806 1028 q 881 1005 861 1014 q 914 988 901 996 q 931 975 926 979 l 896 943 q 848 971 885 958 q 768 983 811 983 q 676 962 717 983 q 608 906 636 940 q 561 831 579 872 q 535 749 543 789 l 529 722 l 860 722 l 706 0 l 658 0 l 803 681 l 519 681 l 375 0 l 328 0 l 472 681 l 236 681 l 92 0 l 44 0 l 189 681 m 481 722 q 510 819 493 775 q 551 897 526 863 q 500 923 532 917 q 447 929 468 929 q 365 910 400 929 q 306 861 331 890 q 267 798 282 832 q 247 735 253 764 l 246 722 l 481 722 z "},"ﬄ":{"ha":1006,"x_min":44,"x_max":935,"o":"m 822 -7 q 748 18 771 -7 q 725 82 725 43 q 726 99 725 90 q 729 119 726 108 l 882 835 q 886 871 886 851 q 856 951 886 918 q 763 983 826 983 q 676 963 714 983 q 612 908 639 942 q 567 832 585 875 q 540 746 549 789 l 536 722 l 693 722 l 683 681 l 526 681 l 382 0 l 335 0 l 479 681 l 236 681 l 92 0 l 44 0 l 189 681 l 92 681 l 100 722 l 199 722 l 200 733 q 234 827 211 783 q 290 903 257 871 q 365 953 322 935 q 460 972 407 972 q 535 960 508 972 q 576 938 561 949 q 658 1003 611 979 q 767 1028 704 1028 q 892 987 850 1028 q 935 883 935 946 q 931 840 935 863 l 778 124 q 775 101 775 110 q 790 57 775 78 q 839 36 804 36 q 863 38 850 36 q 889 43 876 40 q 910 48 901 46 q 919 50 918 50 l 924 8 q 913 5 922 7 q 888 0 903 3 q 855 -5 872 -3 q 822 -7 838 -7 m 488 722 q 515 824 500 781 q 550 899 531 867 q 506 924 532 918 q 457 929 481 929 q 376 912 411 929 q 314 867 340 894 q 272 803 288 839 q 247 733 256 768 l 246 722 l 488 722 z "},"ﬁ":{"ha":619,"x_min":44,"x_max":647,"o":"m 189 681 l 92 681 l 100 722 l 199 722 l 204 749 q 235 844 213 794 q 292 934 257 893 q 376 1001 328 975 q 488 1028 425 1028 q 551 1021 522 1028 q 599 1005 579 1014 q 632 988 619 996 q 647 975 644 979 l 613 943 q 565 971 601 958 q 479 983 529 983 q 392 962 431 983 q 326 906 354 940 q 278 831 297 872 q 251 749 260 789 l 246 722 l 575 722 l 422 0 l 375 0 l 519 681 l 236 681 l 92 0 l 44 0 l 189 681 z "},"ﬂ":{"ha":717,"x_min":44,"x_max":646,"o":"m 528 -7 q 459 19 482 -7 q 436 82 436 44 q 437 99 436 90 q 440 118 438 107 l 593 835 q 597 872 597 851 q 590 915 597 894 q 568 950 583 935 q 528 974 553 965 q 467 983 503 983 q 386 963 422 983 q 323 908 350 942 q 278 833 296 875 q 251 747 260 790 l 246 722 l 404 722 l 394 681 l 236 681 l 92 0 l 44 0 l 189 681 l 92 681 l 100 722 l 199 722 l 204 750 q 240 859 217 808 q 297 947 263 910 q 375 1006 331 985 q 476 1028 419 1028 q 603 988 561 1028 q 646 885 646 947 q 640 840 646 861 l 489 124 q 486 103 486 110 q 501 57 486 78 q 547 36 515 36 q 601 43 574 36 q 631 50 629 50 l 635 8 q 625 5 635 7 q 600 0 615 3 q 565 -5 585 -3 q 528 -7 546 -7 z "},"⅝":{"ha":1079,"x_min":61,"x_max":1025,"o":"m 333 815 q 451 776 406 815 q 496 675 496 738 q 475 592 496 629 q 420 526 454 554 q 342 483 386 499 q 253 468 299 468 q 147 497 190 468 q 88 575 103 526 l 119 590 q 172 526 135 550 q 263 503 208 503 q 336 515 301 503 q 398 550 371 528 q 441 602 425 572 q 457 668 457 632 q 446 717 457 696 q 416 752 435 738 q 373 774 397 767 q 322 782 349 782 q 237 764 279 782 q 165 715 194 746 l 129 715 q 158 781 138 735 q 199 876 178 826 q 238 965 221 925 q 258 1014 256 1006 l 542 1014 l 533 978 l 279 978 l 186 765 q 256 803 218 790 q 333 815 293 815 m 61 22 l 1000 989 l 1025 965 l 86 -3 l 61 22 m 732 -6 q 608 34 653 -6 q 563 128 563 74 q 577 185 563 158 q 615 232 592 211 q 666 267 638 253 q 722 289 694 281 q 663 327 688 301 q 639 389 639 353 q 658 452 639 424 q 708 499 678 481 q 776 528 739 518 q 850 539 814 539 q 908 531 881 539 q 958 509 936 524 q 992 473 979 494 q 1006 425 1006 451 q 994 378 1006 400 q 965 340 983 357 q 921 310 946 322 q 869 289 896 297 q 942 244 914 275 q 971 168 971 213 q 951 97 971 129 q 897 42 931 65 q 821 7 864 19 q 732 -6 778 -6 m 743 29 q 809 39 775 29 q 871 67 843 49 q 916 110 899 85 q 933 167 933 135 q 921 211 933 192 q 888 244 908 231 q 843 265 868 257 q 792 272 818 272 q 726 262 760 272 q 664 233 692 251 q 619 190 636 215 q 601 133 601 164 q 614 90 601 108 q 647 57 626 71 q 692 36 667 43 q 743 29 717 29 m 800 304 q 856 312 826 304 q 910 334 886 319 q 951 369 935 349 q 967 418 967 390 q 956 455 967 439 q 928 482 946 471 q 889 499 911 493 q 842 504 867 504 q 782 496 811 504 q 730 473 753 488 q 692 437 707 458 q 678 390 678 415 q 688 353 678 369 q 716 326 699 338 q 756 310 733 315 q 800 304 778 304 z "},"⁄":{"ha":181,"x_min":-376,"x_max":588,"o":"m -376 22 l 563 989 l 588 965 l -351 -3 l -376 22 z "},"⁵":{"ha":492,"x_min":107,"x_max":561,"o":"m 353 926 q 470 888 425 926 q 515 786 515 849 q 494 703 515 740 q 440 638 474 665 q 362 594 406 610 q 272 579 318 579 q 166 608 210 579 q 107 686 122 638 l 139 701 q 191 638 154 661 q 282 614 228 614 q 356 626 321 614 q 417 661 390 639 q 460 713 444 683 q 476 779 476 743 q 465 828 476 807 q 435 863 454 849 q 392 885 417 878 q 342 893 368 893 q 256 875 299 893 q 185 826 214 857 l 149 826 q 177 892 157 846 q 219 987 197 938 q 258 1076 240 1036 q 278 1125 275 1117 l 561 1125 l 553 1089 l 299 1089 l 206 876 q 275 914 238 901 q 353 926 313 926 z "},"₅":{"ha":492,"x_min":-42,"x_max":413,"o":"m 206 229 q 322 190 276 229 q 367 88 367 150 q 346 4 367 42 q 291 -60 325 -33 q 213 -103 257 -87 q 124 -118 169 -118 q 17 -89 61 -118 q -42 -12 -26 -60 l -10 4 q 43 -60 6 -36 q 133 -83 81 -83 q 207 -71 172 -83 q 269 -36 242 -58 q 312 16 296 -14 q 328 81 328 46 q 317 130 328 108 q 287 166 306 151 q 244 188 268 181 q 193 196 219 196 q 108 178 150 196 q 36 128 67 160 l 0 128 q 17 166 6 140 q 42 224 28 192 q 70 290 56 256 q 97 352 85 324 q 119 401 110 381 q 129 428 128 422 l 413 428 l 404 390 l 151 390 l 57 179 q 127 217 89 204 q 206 229 165 229 z "},"ƒ":{"ha":683,"x_min":-86,"x_max":757,"o":"m 40 -240 q -33 -230 0 -240 q -86 -192 -65 -219 l -51 -161 q -7 -189 -33 -182 q 46 -196 19 -196 q 100 -184 72 -196 q 152 -152 128 -172 q 194 -105 176 -132 q 219 -46 213 -78 l 356 596 l 258 596 l 267 638 l 365 638 l 389 749 q 482 954 417 881 q 636 1028 547 1028 q 707 1015 674 1028 q 757 981 740 1001 l 726 950 q 688 975 714 965 q 633 985 663 985 q 510 924 561 985 q 436 749 460 864 l 413 638 l 611 638 l 603 596 l 403 596 l 267 -46 q 233 -124 257 -89 q 178 -185 210 -160 q 110 -226 146 -211 q 40 -240 74 -240 z "},"₄":{"ha":496,"x_min":-44,"x_max":381,"o":"m 229 -111 l 261 39 l -44 39 l -37 72 l 354 428 l 381 428 l 306 75 l 379 75 l 372 39 l 299 39 l 265 -111 l 229 -111 m 10 75 l 269 75 l 332 368 l 10 75 z "},"⁴":{"ha":497,"x_min":104,"x_max":529,"o":"m 378 586 l 410 736 l 104 736 l 113 771 l 503 1125 l 529 1125 l 454 772 l 528 772 l 521 736 l 447 736 l 415 586 l 378 586 m 158 772 l 418 772 l 481 1065 l 158 772 z "},"g":{"ha":807,"x_min":-35,"x_max":761,"o":"m 231 -310 q 125 -297 169 -310 q 49 -262 81 -285 q -2 -209 18 -240 q -35 -140 -22 -178 l 4 -121 q 92 -233 29 -199 q 239 -268 156 -268 q 344 -253 293 -268 q 438 -206 396 -237 q 512 -129 481 -175 q 556 -22 543 -83 l 593 147 q 454 32 535 76 q 296 -12 374 -12 q 188 13 235 -12 q 107 80 140 38 q 56 177 74 122 q 39 292 39 232 q 72 453 39 374 q 161 594 106 532 q 290 695 217 657 q 446 733 364 733 q 528 719 492 733 q 594 682 565 706 q 644 626 622 658 q 683 558 667 594 l 718 722 l 761 722 l 603 -22 q 550 -150 588 -96 q 463 -240 513 -204 q 352 -292 413 -275 q 231 -310 292 -310 m 314 31 q 408 49 360 31 q 497 98 456 68 q 569 165 539 128 q 613 239 600 201 l 665 488 q 639 568 658 531 q 589 632 619 606 q 521 674 558 658 q 442 689 483 689 q 302 653 367 689 q 190 560 238 617 q 115 433 142 503 q 88 299 88 364 q 103 196 88 244 q 149 110 119 147 q 221 52 179 74 q 314 31 263 31 z "},"ğ":{"ha":807,"x_min":-35,"x_max":761,"o":"m 231 -310 q 125 -297 169 -310 q 49 -262 81 -285 q -2 -209 18 -240 q -35 -140 -22 -178 l 4 -121 q 92 -233 29 -199 q 239 -268 156 -268 q 344 -253 293 -268 q 438 -206 396 -237 q 512 -129 481 -175 q 556 -22 543 -83 l 593 147 q 454 32 535 76 q 296 -12 374 -12 q 188 13 235 -12 q 107 80 140 38 q 56 177 74 122 q 39 292 39 232 q 72 453 39 374 q 161 594 106 532 q 290 695 217 657 q 446 733 364 733 q 528 719 492 733 q 594 682 565 706 q 644 626 622 658 q 683 558 667 594 l 718 722 l 761 722 l 603 -22 q 550 -150 588 -96 q 463 -240 513 -204 q 352 -292 413 -275 q 231 -310 292 -310 m 314 31 q 408 49 360 31 q 497 98 456 68 q 569 165 539 128 q 613 239 600 201 l 665 488 q 639 568 658 531 q 589 632 619 606 q 521 674 558 658 q 442 689 483 689 q 302 653 367 689 q 190 560 238 617 q 115 433 142 503 q 88 299 88 364 q 103 196 88 244 q 149 110 119 147 q 221 52 179 74 q 314 31 263 31 m 485 928 q 540 953 513 928 q 578 1014 567 978 l 611 1014 q 592 969 606 990 q 561 931 579 947 q 522 906 543 915 q 479 897 500 897 q 416 924 440 897 q 392 990 392 950 q 392 1002 392 997 q 394 1014 393 1007 l 431 1014 q 428 997 428 1003 q 444 949 428 969 q 485 928 460 928 z "},"ĝ":{"ha":807,"x_min":-35,"x_max":761,"o":"m 351 907 l 499 1014 l 535 1014 l 638 907 l 603 886 l 508 974 l 378 886 l 351 907 m 231 -310 q 125 -297 169 -310 q 49 -262 81 -285 q -2 -209 18 -240 q -35 -140 -22 -178 l 4 -121 q 92 -233 29 -199 q 239 -268 156 -268 q 344 -253 293 -268 q 438 -206 396 -237 q 512 -129 481 -175 q 556 -22 543 -83 l 593 147 q 454 32 535 76 q 296 -12 374 -12 q 188 13 235 -12 q 107 80 140 38 q 56 177 74 122 q 39 292 39 232 q 72 453 39 374 q 161 594 106 532 q 290 695 217 657 q 446 733 364 733 q 528 719 492 733 q 594 682 565 706 q 644 626 622 658 q 683 558 667 594 l 718 722 l 761 722 l 603 -22 q 550 -150 588 -96 q 463 -240 513 -204 q 352 -292 413 -275 q 231 -310 292 -310 m 314 31 q 408 49 360 31 q 497 98 456 68 q 569 165 539 128 q 613 239 600 201 l 665 488 q 639 568 658 531 q 589 632 619 606 q 521 674 558 658 q 442 689 483 689 q 302 653 367 689 q 190 560 238 617 q 115 433 142 503 q 88 299 88 364 q 103 196 88 244 q 149 110 119 147 q 221 52 179 74 q 314 31 263 31 z "},"ģ":{"ha":807,"x_min":-35,"x_max":761,"o":"m 536 1018 l 501 932 l 518 932 l 499 843 l 449 843 l 468 932 l 508 1018 l 536 1018 m 231 -310 q 125 -297 169 -310 q 49 -262 81 -285 q -2 -209 18 -240 q -35 -140 -22 -178 l 4 -121 q 92 -233 29 -199 q 239 -268 156 -268 q 344 -253 293 -268 q 438 -206 396 -237 q 512 -129 481 -175 q 556 -22 543 -83 l 593 147 q 454 32 535 76 q 296 -12 374 -12 q 188 13 235 -12 q 107 80 140 38 q 56 177 74 122 q 39 292 39 232 q 72 453 39 374 q 161 594 106 532 q 290 695 217 657 q 446 733 364 733 q 528 719 492 733 q 594 682 565 706 q 644 626 622 658 q 683 558 667 594 l 718 722 l 761 722 l 603 -22 q 550 -150 588 -96 q 463 -240 513 -204 q 352 -292 413 -275 q 231 -310 292 -310 m 314 31 q 408 49 360 31 q 497 98 456 68 q 569 165 539 128 q 613 239 600 201 l 665 488 q 639 568 658 531 q 589 632 619 606 q 521 674 558 658 q 442 689 483 689 q 302 653 367 689 q 190 560 238 617 q 115 433 142 503 q 88 299 88 364 q 103 196 88 244 q 149 110 119 147 q 221 52 179 74 q 314 31 263 31 z "},"ġ":{"ha":807,"x_min":-35,"x_max":761,"o":"m 231 -310 q 125 -297 169 -310 q 49 -262 81 -285 q -2 -209 18 -240 q -35 -140 -22 -178 l 4 -121 q 92 -233 29 -199 q 239 -268 156 -268 q 344 -253 293 -268 q 438 -206 396 -237 q 512 -129 481 -175 q 556 -22 543 -83 l 593 147 q 454 32 535 76 q 296 -12 374 -12 q 188 13 235 -12 q 107 80 140 38 q 56 177 74 122 q 39 292 39 232 q 72 453 39 374 q 161 594 106 532 q 290 695 217 657 q 446 733 364 733 q 528 719 492 733 q 594 682 565 706 q 644 626 622 658 q 683 558 667 594 l 718 722 l 761 722 l 603 -22 q 550 -150 588 -96 q 463 -240 513 -204 q 352 -292 413 -275 q 231 -310 292 -310 m 314 31 q 408 49 360 31 q 497 98 456 68 q 569 165 539 128 q 613 239 600 201 l 665 488 q 639 568 658 531 q 589 632 619 606 q 521 674 558 658 q 442 689 483 689 q 302 653 367 689 q 190 560 238 617 q 115 433 142 503 q 88 299 88 364 q 103 196 88 244 q 149 110 119 147 q 221 52 179 74 q 314 31 263 31 m 463 899 l 488 1014 l 532 1014 l 508 899 l 463 899 z "},"ß":{"ha":729,"x_min":21,"x_max":679,"o":"m 228 36 q 499 117 400 39 q 599 335 599 196 q 543 481 599 426 q 390 536 488 536 l 367 536 l 376 581 l 399 581 q 487 597 444 581 q 561 643 529 614 q 612 712 593 672 q 631 796 631 751 q 586 906 631 864 q 469 947 542 947 q 307 881 375 947 q 215 706 239 814 l 67 0 l 21 0 l 171 710 q 214 824 185 772 q 284 914 243 876 q 375 972 325 951 q 481 992 425 992 q 562 978 525 992 q 624 940 599 964 q 665 883 650 917 q 679 810 679 849 q 662 725 679 767 q 616 650 644 683 q 551 593 588 617 q 476 561 515 569 q 604 483 561 542 q 647 342 647 425 q 617 199 647 263 q 533 90 588 135 q 398 21 478 46 q 218 -8 318 -4 l 228 36 z "},">":{"ha":753,"x_min":106,"x_max":685,"o":"m 685 343 l 106 -4 l 106 47 l 617 360 l 106 671 l 106 722 l 685 375 l 685 343 z "},"«":{"ha":713,"x_min":43,"x_max":665,"o":"m 50 375 l 418 614 l 408 568 l 88 360 l 319 151 l 310 106 l 43 343 l 50 375 m 296 375 l 665 614 l 654 568 l 333 360 l 565 151 l 557 106 l 290 343 l 296 375 z "},"»":{"ha":713,"x_min":24,"x_max":644,"o":"m 638 343 l 271 106 l 279 151 l 600 360 l 368 568 l 378 614 l 644 375 l 638 343 m 392 343 l 24 106 l 33 151 l 354 360 l 122 568 l 132 614 l 397 375 l 392 343 z "},"‹":{"ha":465,"x_min":43,"x_max":418,"o":"m 50 375 l 418 614 l 408 568 l 88 360 l 319 151 l 310 106 l 43 343 l 50 375 z "},"›":{"ha":465,"x_min":24,"x_max":397,"o":"m 392 343 l 24 106 l 33 151 l 354 360 l 122 568 l 132 614 l 397 375 l 392 343 z "},"h":{"ha":758,"x_min":21,"x_max":669,"o":"m 236 1014 l 283 1014 l 183 542 q 251 620 214 585 q 331 681 289 656 q 417 719 372 706 q 506 733 461 733 q 629 685 589 733 q 669 543 669 636 q 666 480 669 514 q 654 408 663 446 l 568 0 l 521 0 l 606 403 q 621 526 621 476 q 486 689 621 689 q 394 671 442 689 q 303 621 347 653 q 224 545 260 589 q 164 451 188 501 l 68 0 l 21 0 l 236 1014 z "},"ħ":{"ha":758,"x_min":21,"x_max":669,"o":"m 117 908 l 214 908 l 236 1014 l 283 1014 l 261 908 l 419 908 l 413 869 l 253 869 l 183 542 q 251 620 214 585 q 331 681 289 656 q 417 719 372 706 q 506 733 461 733 q 629 685 589 733 q 669 543 669 636 q 666 480 669 514 q 654 408 663 446 l 568 0 l 521 0 l 606 403 q 621 526 621 476 q 486 689 621 689 q 394 671 442 689 q 303 621 347 653 q 224 545 260 589 q 164 451 188 501 l 68 0 l 21 0 l 206 869 l 108 869 l 117 908 z "},"ĥ":{"ha":758,"x_min":21,"x_max":675,"o":"m 393 907 l 539 1014 l 574 1014 l 675 907 l 642 886 l 549 974 l 419 886 l 393 907 m 236 1014 l 283 1014 l 183 542 q 251 620 214 585 q 331 681 289 656 q 417 719 372 706 q 506 733 461 733 q 629 685 589 733 q 669 543 669 636 q 666 480 669 514 q 654 408 663 446 l 568 0 l 521 0 l 606 403 q 621 526 621 476 q 486 689 621 689 q 394 671 442 689 q 303 621 347 653 q 224 545 260 589 q 164 451 188 501 l 68 0 l 21 0 l 236 1014 z "},"-":{"ha":561,"x_min":79,"x_max":465,"o":"m 79 354 l 88 400 l 465 400 l 456 354 l 79 354 z "},"i":{"ha":265,"x_min":21,"x_max":283,"o":"m 174 722 l 221 722 l 68 0 l 21 0 l 174 722 m 236 1014 l 283 1014 l 258 897 l 211 897 l 236 1014 z "},"í":{"ha":265,"x_min":21,"x_max":367,"o":"m 229 886 l 200 904 l 306 1014 l 367 1014 l 229 886 m 174 722 l 221 722 l 68 0 l 21 0 l 174 722 z "},"ĭ":{"ha":265,"x_min":21,"x_max":356,"o":"m 174 722 l 221 722 l 68 0 l 21 0 l 174 722 m 229 928 q 284 953 257 928 q 322 1014 311 978 l 356 1014 q 337 969 350 990 q 306 931 324 947 q 266 906 288 915 q 224 897 244 897 q 160 924 185 897 q 136 990 136 950 q 137 1002 136 997 q 139 1014 138 1007 l 175 1014 q 172 997 172 1003 q 188 949 172 969 q 229 928 204 928 z "},"î":{"ha":265,"x_min":21,"x_max":378,"o":"m 92 907 l 239 1014 l 275 1014 l 378 907 l 343 886 l 249 974 l 118 886 l 92 907 m 174 722 l 221 722 l 68 0 l 21 0 l 174 722 z "},"ï":{"ha":265,"x_min":21,"x_max":361,"o":"m 128 899 l 151 1013 l 194 1013 l 171 899 l 128 899 m 294 899 l 318 1013 l 361 1013 l 338 899 l 294 899 m 174 722 l 221 722 l 68 0 l 21 0 l 174 722 z "},"ì":{"ha":265,"x_min":21,"x_max":250,"o":"m 174 722 l 221 722 l 68 0 l 21 0 l 174 722 m 129 1014 l 190 1014 l 250 904 l 213 886 l 129 1014 z "},"ĳ":{"ha":542,"x_min":-19,"x_max":558,"o":"m 174 722 l 221 722 l 68 0 l 21 0 l 174 722 m 236 1014 l 283 1014 l 258 897 l 211 897 l 236 1014 m 107 -240 q 34 -230 67 -240 q -19 -192 1 -219 l 15 -161 q 60 -189 33 -182 q 113 -196 86 -196 q 167 -184 139 -196 q 219 -152 194 -172 q 261 -105 243 -132 q 286 -46 279 -78 l 449 722 l 496 722 l 333 -44 q 300 -124 324 -87 q 244 -185 276 -160 q 176 -226 213 -211 q 107 -240 140 -240 m 511 1014 l 558 1014 l 533 897 l 486 897 l 511 1014 z "},"j":{"ha":276,"x_min":-285,"x_max":293,"o":"m -158 -240 q -231 -230 -199 -240 q -285 -192 -264 -219 l -250 -161 q -206 -189 -232 -182 q -153 -196 -179 -196 q -99 -184 -126 -196 q -47 -152 -71 -172 q -4 -105 -22 -132 q 21 -46 14 -78 l 183 722 l 231 722 l 68 -44 q 35 -124 58 -87 q -21 -185 11 -160 q -89 -226 -53 -211 q -158 -240 -125 -240 m 246 1014 l 293 1014 l 268 897 l 221 897 l 246 1014 z "},"ī":{"ha":265,"x_min":21,"x_max":426,"o":"m 174 722 l 221 722 l 68 0 l 21 0 l 174 722 m 46 943 l 53 982 l 426 982 l 418 943 l 46 943 z "},"į":{"ha":267,"x_min":-106,"x_max":285,"o":"m -44 -228 q -90 -200 -75 -219 q -106 -154 -106 -181 q -77 -81 -106 -115 q 22 1 -49 -46 l 175 722 l 222 722 l 69 0 q 3 -44 29 -25 q -40 -79 -24 -62 q -62 -112 -56 -96 q -68 -144 -68 -128 q -18 -196 -68 -186 l -44 -228 m 238 1014 l 285 1014 l 260 897 l 213 897 l 238 1014 z "},"ĩ":{"ha":265,"x_min":21,"x_max":439,"o":"m 174 722 l 221 722 l 68 0 l 21 0 l 174 722 m 303 911 q 253 919 274 911 q 217 938 233 928 q 185 956 200 947 q 149 964 169 964 q 113 955 128 964 q 88 934 97 946 q 73 911 78 922 q 67 897 68 900 l 32 897 q 39 919 32 901 q 61 954 46 936 q 100 987 76 972 q 158 1001 124 1001 q 203 993 185 1001 q 237 974 221 985 q 270 956 253 964 q 313 947 288 947 q 356 957 339 947 q 384 978 374 967 q 399 1001 394 990 q 404 1014 404 1011 l 439 1014 q 431 992 438 1008 q 408 957 424 975 q 366 925 392 939 q 303 911 340 911 z "},"ĵ":{"ha":265,"x_min":-296,"x_max":372,"o":"m -168 -240 q -242 -230 -208 -240 q -296 -192 -275 -219 l -261 -161 q -217 -189 -243 -182 q -162 -196 -190 -196 q -110 -184 -137 -196 q -58 -152 -82 -172 q -15 -105 -33 -132 q 10 -46 3 -78 l 174 722 l 221 722 l 57 -44 q 24 -124 49 -87 q -31 -185 0 -160 q -99 -226 -62 -211 q -168 -240 -135 -240 m 86 907 l 233 1014 l 269 1014 l 372 907 l 338 886 l 243 974 l 113 886 l 86 907 z "},"k":{"ha":729,"x_min":21,"x_max":710,"o":"m 236 1014 l 283 1014 l 171 485 q 350 672 256 607 q 542 738 444 738 q 666 699 622 738 q 710 592 710 660 q 631 431 710 500 q 413 329 551 361 l 578 0 l 525 0 l 353 354 q 583 445 504 385 q 663 585 663 506 q 628 667 663 639 q 532 696 594 696 q 156 415 350 696 l 68 0 l 21 0 l 236 1014 z "},"ķ":{"ha":729,"x_min":21,"x_max":710,"o":"m 192 -244 l 226 -158 l 210 -158 l 229 -69 l 279 -69 l 260 -158 l 219 -244 l 192 -244 m 236 1014 l 283 1014 l 171 485 q 350 672 256 607 q 542 738 444 738 q 666 699 622 738 q 710 592 710 660 q 631 431 710 500 q 413 329 551 361 l 578 0 l 525 0 l 353 354 q 583 445 504 385 q 663 585 663 506 q 628 667 663 639 q 532 696 594 696 q 156 415 350 696 l 68 0 l 21 0 l 236 1014 z "},"ĸ":{"ha":682,"x_min":21,"x_max":718,"o":"m 174 722 l 221 722 l 129 288 l 661 719 l 718 719 l 365 431 l 574 0 l 521 0 l 325 400 l 117 232 l 68 0 l 21 0 l 174 722 z "},"l":{"ha":328,"x_min":47,"x_max":289,"o":"m 138 -7 q 72 17 96 -7 q 47 82 47 42 q 47 97 47 89 q 50 114 47 106 l 242 1014 l 289 1014 l 99 124 q 97 112 97 117 q 96 100 96 107 q 115 53 96 69 q 167 36 133 36 q 203 40 182 36 q 242 50 224 43 l 244 11 q 191 -1 222 4 q 138 -7 160 -7 z "},"ĺ":{"ha":328,"x_min":47,"x_max":406,"o":"m 268 1081 l 239 1099 l 344 1208 l 406 1208 l 268 1081 m 138 -7 q 72 17 96 -7 q 47 82 47 42 q 47 97 47 89 q 50 114 47 106 l 242 1014 l 289 1014 l 99 124 q 97 112 97 117 q 96 100 96 107 q 115 53 96 69 q 167 36 133 36 q 203 40 182 36 q 242 50 224 43 l 244 11 q 191 -1 222 4 q 138 -7 160 -7 z "},"ľ":{"ha":317,"x_min":47,"x_max":506,"o":"m 339 904 l 444 1014 l 506 1014 l 368 886 l 339 904 m 138 -7 q 72 17 96 -7 q 47 82 47 42 q 47 97 47 89 q 50 114 47 106 l 242 1014 l 289 1014 l 99 124 q 97 112 97 117 q 96 100 96 107 q 115 53 96 69 q 167 36 133 36 q 203 40 182 36 q 242 50 224 43 l 244 11 q 191 -1 222 4 q 138 -7 160 -7 z "},"ļ":{"ha":328,"x_min":47,"x_max":289,"o":"m 53 -244 l 88 -158 l 71 -158 l 90 -69 l 140 -69 l 121 -158 l 81 -244 l 53 -244 m 138 -7 q 72 17 96 -7 q 47 82 47 42 q 47 97 47 89 q 50 114 47 106 l 242 1014 l 289 1014 l 99 124 q 97 112 97 117 q 96 100 96 107 q 115 53 96 69 q 167 36 133 36 q 203 40 182 36 q 242 50 224 43 l 244 11 q 191 -1 222 4 q 138 -7 160 -7 z "},"ŀ":{"ha":357,"x_min":47,"x_max":351,"o":"m 138 -7 q 72 17 96 -7 q 47 82 47 42 q 47 97 47 89 q 50 114 47 106 l 242 1014 l 289 1014 l 99 124 q 97 112 97 117 q 96 100 96 107 q 115 53 96 69 q 167 36 133 36 q 203 40 182 36 q 242 50 224 43 l 244 11 q 191 -1 222 4 q 138 -7 160 -7 m 282 353 l 308 479 l 351 479 l 325 353 l 282 353 z "},"<":{"ha":753,"x_min":43,"x_max":622,"o":"m 43 375 l 622 722 l 622 671 l 111 360 l 622 47 l 622 -4 l 43 343 l 43 375 z "},"¬":{"ha":758,"x_min":118,"x_max":675,"o":"m 675 481 l 613 189 l 569 189 l 622 435 l 118 435 l 128 481 l 675 481 z "},"ł":{"ha":349,"x_min":28,"x_max":386,"o":"m 28 446 l 167 558 l 264 1014 l 311 1014 l 224 604 l 368 721 l 386 692 l 213 551 l 122 129 q 118 100 118 113 q 137 53 118 69 q 189 36 156 36 q 224 40 204 36 q 264 50 244 43 l 267 11 q 213 -1 244 4 q 160 -7 182 -7 q 92 17 117 -7 q 68 81 68 40 q 72 114 68 97 l 156 506 l 44 417 l 28 446 z "},"m":{"ha":1207,"x_min":21,"x_max":1122,"o":"m 174 722 l 218 722 l 181 542 q 323 683 243 633 q 485 733 403 733 q 606 685 563 733 q 649 550 649 638 q 648 537 649 543 q 647 524 647 531 q 711 614 675 575 q 789 679 747 653 q 875 719 831 706 q 964 733 919 733 q 1084 688 1046 733 q 1122 553 1122 642 q 1117 486 1122 522 q 1104 408 1113 450 l 1018 0 l 971 0 l 1056 403 q 1067 474 1063 440 q 1071 535 1071 507 q 943 689 1071 689 q 854 672 899 689 q 770 623 810 654 q 697 547 731 592 q 638 450 663 503 l 543 0 l 496 0 l 581 403 q 597 538 597 482 q 469 689 597 689 q 381 672 425 689 q 298 623 338 654 q 224 548 258 592 q 164 451 189 504 l 68 0 l 21 0 l 174 722 z "},"−":{"ha":763,"x_min":94,"x_max":654,"o":"m 94 365 l 94 407 l 654 407 l 654 365 l 94 365 z "},"µ":{"ha":813,"x_min":-31,"x_max":746,"o":"m 186 722 l 233 722 l 147 317 q 132 200 132 247 q 163 72 132 113 q 269 31 194 31 q 363 48 315 31 q 455 96 411 65 q 536 169 499 126 q 600 264 574 213 l 697 722 l 746 722 l 608 75 q 607 64 607 71 q 626 44 607 44 l 615 0 q 576 12 592 0 q 561 56 561 24 q 565 76 561 58 q 572 114 568 93 q 581 153 576 135 q 586 178 585 172 q 517 99 556 135 q 436 39 479 64 q 348 0 393 14 q 258 -14 303 -14 q 151 21 189 -14 q 104 122 113 56 l 17 -294 l -31 -294 l 186 722 z "},"×":{"ha":642,"x_min":96,"x_max":525,"o":"m 525 194 l 492 163 l 310 344 l 128 163 l 97 196 l 278 376 l 96 558 l 129 590 l 310 408 l 493 592 l 524 558 l 342 376 l 525 194 z "},"n":{"ha":758,"x_min":21,"x_max":672,"o":"m 174 722 l 218 722 l 181 542 q 249 620 210 585 q 334 681 289 656 q 426 719 379 706 q 519 733 474 733 q 635 690 599 733 q 672 558 672 646 q 667 489 672 526 q 654 408 663 451 l 568 0 l 521 0 l 606 403 q 622 542 622 483 q 500 689 622 689 q 405 671 454 689 q 310 621 356 653 q 227 546 265 589 q 164 451 189 503 l 68 0 l 21 0 l 174 722 z "},"ń":{"ha":758,"x_min":21,"x_max":672,"o":"m 489 886 l 460 904 l 565 1014 l 626 1014 l 489 886 m 174 722 l 218 722 l 181 542 q 249 620 210 585 q 334 681 289 656 q 426 719 379 706 q 519 733 474 733 q 635 690 599 733 q 672 558 672 646 q 667 489 672 526 q 654 408 663 451 l 568 0 l 521 0 l 606 403 q 622 542 622 483 q 500 689 622 689 q 405 671 454 689 q 310 621 356 653 q 227 546 265 589 q 164 451 189 503 l 68 0 l 21 0 l 174 722 z "},"ŉ":{"ha":758,"x_min":-57,"x_max":672,"o":"m -57 904 l 11 975 l 21 1014 l 110 1014 l -28 886 l -57 904 m 174 722 l 218 722 l 181 542 q 249 620 210 585 q 334 681 289 656 q 426 719 379 706 q 519 733 474 733 q 635 690 599 733 q 672 558 672 646 q 667 489 672 526 q 654 408 663 451 l 568 0 l 521 0 l 606 403 q 622 542 622 483 q 500 689 622 689 q 405 671 454 689 q 310 621 356 653 q 227 546 265 589 q 164 451 189 503 l 68 0 l 21 0 l 174 722 z "},"ň":{"ha":758,"x_min":21,"x_max":672,"o":"m 360 994 l 394 1014 l 489 926 l 619 1014 l 646 994 l 497 886 l 461 886 l 360 994 m 174 722 l 218 722 l 181 542 q 249 620 210 585 q 334 681 289 656 q 426 719 379 706 q 519 733 474 733 q 635 690 599 733 q 672 558 672 646 q 667 489 672 526 q 654 408 663 451 l 568 0 l 521 0 l 606 403 q 622 542 622 483 q 500 689 622 689 q 405 671 454 689 q 310 621 356 653 q 227 546 265 589 q 164 451 189 503 l 68 0 l 21 0 l 174 722 z "},"ņ":{"ha":758,"x_min":21,"x_max":672,"o":"m 224 -244 l 258 -158 l 242 -158 l 261 -69 l 311 -69 l 292 -158 l 251 -244 l 224 -244 m 174 722 l 218 722 l 181 542 q 249 620 210 585 q 334 681 289 656 q 426 719 379 706 q 519 733 474 733 q 635 690 599 733 q 672 558 672 646 q 667 489 672 526 q 654 408 663 451 l 568 0 l 521 0 l 606 403 q 622 542 622 483 q 500 689 622 689 q 405 671 454 689 q 310 621 356 653 q 227 546 265 589 q 164 451 189 503 l 68 0 l 21 0 l 174 722 z "},"ṅ":{"ha":758,"x_min":21,"x_max":672,"o":"m 465 899 l 490 1014 l 535 1014 l 511 899 l 465 899 m 174 722 l 218 722 l 181 542 q 249 620 210 585 q 334 681 289 656 q 426 719 379 706 q 519 733 474 733 q 635 690 599 733 q 672 558 672 646 q 667 489 672 526 q 654 408 663 451 l 568 0 l 521 0 l 606 403 q 622 542 622 483 q 500 689 622 689 q 405 671 454 689 q 310 621 356 653 q 227 546 265 589 q 164 451 189 503 l 68 0 l 21 0 l 174 722 z "},"₉":{"ha":533,"x_min":-12,"x_max":431,"o":"m 10 218 q 31 300 10 261 q 86 368 51 339 q 166 415 121 397 q 260 432 211 432 q 384 385 338 432 q 431 258 431 339 q 410 113 431 181 q 350 -7 389 44 q 258 -88 311 -58 q 139 -118 204 -118 q 39 -90 79 -118 q -12 -14 -1 -62 l 18 7 q 60 -58 25 -33 q 146 -83 96 -83 q 288 -17 225 -83 q 379 172 351 50 q 293 94 349 124 q 176 64 238 64 q 108 76 139 64 q 56 108 78 88 q 22 158 33 129 q 10 218 10 186 m 251 397 q 176 383 213 397 q 110 346 139 369 q 65 291 82 322 q 47 226 47 260 q 87 135 47 172 q 189 97 126 97 q 265 111 228 97 q 330 149 301 125 q 376 203 358 172 q 393 269 393 235 q 353 360 393 322 q 251 397 314 397 z "},"⁹":{"ha":532,"x_min":135,"x_max":576,"o":"m 157 911 q 178 993 157 954 q 233 1061 199 1032 q 312 1108 267 1090 q 406 1125 357 1125 q 530 1079 483 1125 q 576 953 576 1033 q 556 806 576 875 q 496 686 535 738 q 403 605 457 635 q 285 575 350 575 q 185 603 226 575 q 135 679 144 631 l 164 700 q 206 635 171 660 q 293 610 242 610 q 435 676 372 610 q 525 865 499 743 q 440 787 496 817 q 324 757 383 757 q 203 801 249 757 q 157 911 157 846 m 397 1090 q 322 1076 358 1090 q 257 1039 285 1063 q 212 985 229 1015 q 194 919 194 954 q 233 828 194 865 q 335 790 272 790 q 410 804 374 790 q 476 842 447 818 q 522 897 504 865 q 539 963 539 928 q 499 1053 539 1015 q 397 1090 460 1090 z "},"ñ":{"ha":758,"x_min":21,"x_max":703,"o":"m 174 722 l 218 722 l 181 542 q 249 620 210 585 q 334 681 289 656 q 426 719 379 706 q 519 733 474 733 q 635 690 599 733 q 672 558 672 646 q 667 489 672 526 q 654 408 663 451 l 568 0 l 521 0 l 606 403 q 622 542 622 483 q 500 689 622 689 q 405 671 454 689 q 310 621 356 653 q 227 546 265 589 q 164 451 189 503 l 68 0 l 21 0 l 174 722 m 567 911 q 517 919 538 911 q 481 938 497 928 q 449 956 464 947 q 413 964 433 964 q 376 955 392 964 q 351 934 361 946 q 337 911 342 922 q 331 897 332 900 l 296 897 q 303 919 296 901 q 325 954 310 936 q 364 987 340 972 q 422 1001 388 1001 q 467 993 449 1001 q 501 974 485 985 q 534 956 517 964 q 576 947 551 947 q 620 957 603 947 q 648 978 638 967 q 663 1001 658 990 q 668 1014 668 1011 l 703 1014 q 694 992 701 1008 q 672 957 688 975 q 630 925 656 939 q 567 911 604 911 z "},"#":{"ha":876,"x_min":29,"x_max":883,"o":"m 875 658 l 715 658 l 576 343 l 754 343 l 746 301 l 557 301 l 425 0 l 381 0 l 515 301 l 219 301 l 88 0 l 43 0 l 178 301 l 29 301 l 38 343 l 197 343 l 335 658 l 158 658 l 168 699 l 354 699 l 482 986 l 525 986 l 396 699 l 692 699 l 818 986 l 863 986 l 733 699 l 883 699 l 875 658 m 533 343 l 672 658 l 378 658 l 239 343 l 533 343 z "},"o":{"ha":783,"x_min":39,"x_max":719,"o":"m 300 -14 q 192 10 240 -14 q 109 74 143 33 q 57 170 75 115 q 39 288 39 225 q 75 456 39 375 q 171 599 111 538 q 306 697 231 660 q 460 733 381 733 q 566 710 518 733 q 648 644 614 686 q 701 547 682 603 q 719 429 719 492 q 684 263 719 343 q 590 121 649 182 q 456 23 532 60 q 300 -14 381 -14 m 308 31 q 440 63 375 31 q 557 149 506 94 q 640 274 608 203 q 672 422 672 344 q 656 526 672 478 q 610 611 639 575 q 540 668 581 647 q 450 689 499 689 q 319 656 385 689 q 203 569 254 624 q 119 442 151 514 q 88 293 88 371 q 103 191 88 239 q 149 108 119 143 q 218 51 178 72 q 308 31 258 31 z "},"ó":{"ha":783,"x_min":39,"x_max":719,"o":"m 486 886 l 457 904 l 563 1014 l 624 1014 l 486 886 m 300 -14 q 192 10 240 -14 q 109 74 143 33 q 57 170 75 115 q 39 288 39 225 q 75 456 39 375 q 171 599 111 538 q 306 697 231 660 q 460 733 381 733 q 566 710 518 733 q 648 644 614 686 q 701 547 682 603 q 719 429 719 492 q 684 263 719 343 q 590 121 649 182 q 456 23 532 60 q 300 -14 381 -14 m 308 31 q 440 63 375 31 q 557 149 506 94 q 640 274 608 203 q 672 422 672 344 q 656 526 672 478 q 610 611 639 575 q 540 668 581 647 q 450 689 499 689 q 319 656 385 689 q 203 569 254 624 q 119 442 151 514 q 88 293 88 371 q 103 191 88 239 q 149 108 119 143 q 218 51 178 72 q 308 31 258 31 z "},"ŏ":{"ha":783,"x_min":39,"x_max":719,"o":"m 300 -14 q 192 10 240 -14 q 109 74 143 33 q 57 170 75 115 q 39 288 39 225 q 75 456 39 375 q 171 599 111 538 q 306 697 231 660 q 460 733 381 733 q 566 710 518 733 q 648 644 614 686 q 701 547 682 603 q 719 429 719 492 q 684 263 719 343 q 590 121 649 182 q 456 23 532 60 q 300 -14 381 -14 m 308 31 q 440 63 375 31 q 557 149 506 94 q 640 274 608 203 q 672 422 672 344 q 656 526 672 478 q 610 611 639 575 q 540 668 581 647 q 450 689 499 689 q 319 656 385 689 q 203 569 254 624 q 119 442 151 514 q 88 293 88 371 q 103 191 88 239 q 149 108 119 143 q 218 51 178 72 q 308 31 258 31 m 493 928 q 548 953 521 928 q 586 1014 575 978 l 619 1014 q 601 969 614 990 q 569 931 588 947 q 530 906 551 915 q 488 897 508 897 q 424 924 449 897 q 400 990 400 950 q 401 1002 400 997 q 403 1014 401 1007 l 439 1014 q 436 997 436 1003 q 452 949 436 969 q 493 928 468 928 z "},"ô":{"ha":783,"x_min":39,"x_max":719,"o":"m 357 907 l 504 1014 l 540 1014 l 643 907 l 608 886 l 514 974 l 383 886 l 357 907 m 300 -14 q 192 10 240 -14 q 109 74 143 33 q 57 170 75 115 q 39 288 39 225 q 75 456 39 375 q 171 599 111 538 q 306 697 231 660 q 460 733 381 733 q 566 710 518 733 q 648 644 614 686 q 701 547 682 603 q 719 429 719 492 q 684 263 719 343 q 590 121 649 182 q 456 23 532 60 q 300 -14 381 -14 m 308 31 q 440 63 375 31 q 557 149 506 94 q 640 274 608 203 q 672 422 672 344 q 656 526 672 478 q 610 611 639 575 q 540 668 581 647 q 450 689 499 689 q 319 656 385 689 q 203 569 254 624 q 119 442 151 514 q 88 293 88 371 q 103 191 88 239 q 149 108 119 143 q 218 51 178 72 q 308 31 258 31 z "},"ö":{"ha":783,"x_min":39,"x_max":719,"o":"m 386 899 l 410 1013 l 453 1013 l 429 899 l 386 899 m 553 899 l 576 1013 l 619 1013 l 596 899 l 553 899 m 300 -14 q 192 10 240 -14 q 109 74 143 33 q 57 170 75 115 q 39 288 39 225 q 75 456 39 375 q 171 599 111 538 q 306 697 231 660 q 460 733 381 733 q 566 710 518 733 q 648 644 614 686 q 701 547 682 603 q 719 429 719 492 q 684 263 719 343 q 590 121 649 182 q 456 23 532 60 q 300 -14 381 -14 m 308 31 q 440 63 375 31 q 557 149 506 94 q 640 274 608 203 q 672 422 672 344 q 656 526 672 478 q 610 611 639 575 q 540 668 581 647 q 450 689 499 689 q 319 656 385 689 q 203 569 254 624 q 119 442 151 514 q 88 293 88 371 q 103 191 88 239 q 149 108 119 143 q 218 51 178 72 q 308 31 258 31 z "},"œ":{"ha":1383,"x_min":39,"x_max":1332,"o":"m 299 -14 q 192 9 240 -14 q 110 72 144 32 q 58 167 76 113 q 39 285 39 222 q 75 456 39 375 q 170 599 111 538 q 306 697 229 661 q 461 733 382 733 q 558 715 514 733 q 635 663 603 696 q 688 581 668 629 q 710 475 707 533 q 777 583 738 535 q 863 664 817 631 q 963 715 910 697 q 1074 733 1017 733 q 1264 650 1196 733 q 1332 425 1332 567 q 1328 364 1332 381 q 1321 340 1325 347 l 708 340 q 704 288 704 311 q 722 184 704 232 q 770 101 739 136 q 845 47 801 67 q 942 26 889 26 q 1019 37 981 26 q 1094 67 1058 47 q 1158 113 1129 86 q 1207 172 1188 140 l 1247 161 q 1188 90 1224 122 q 1109 35 1151 58 q 1021 -1 1067 13 q 929 -14 975 -14 q 830 5 876 -14 q 748 58 783 24 q 690 140 713 93 q 663 244 668 188 q 591 138 632 186 q 503 56 550 90 q 403 4 456 22 q 299 -14 351 -14 m 308 31 q 442 63 376 31 q 558 149 507 94 q 641 274 610 203 q 672 425 672 346 q 656 529 672 481 q 611 613 640 578 q 542 669 582 649 q 451 689 501 689 q 319 656 385 689 q 203 569 254 624 q 119 442 151 514 q 88 290 88 369 q 103 188 88 235 q 148 106 119 140 q 217 51 176 71 q 308 31 258 31 m 1283 378 q 1288 440 1288 408 q 1272 542 1288 496 q 1226 622 1256 589 q 1156 674 1197 656 q 1064 692 1114 692 q 951 668 1006 692 q 849 603 896 644 q 768 503 803 561 q 715 378 733 446 l 1283 378 z "},"ò":{"ha":783,"x_min":39,"x_max":719,"o":"m 300 -14 q 192 10 240 -14 q 109 74 143 33 q 57 170 75 115 q 39 288 39 225 q 75 456 39 375 q 171 599 111 538 q 306 697 231 660 q 460 733 381 733 q 566 710 518 733 q 648 644 614 686 q 701 547 682 603 q 719 429 719 492 q 684 263 719 343 q 590 121 649 182 q 456 23 532 60 q 300 -14 381 -14 m 308 31 q 440 63 375 31 q 557 149 506 94 q 640 274 608 203 q 672 422 672 344 q 656 526 672 478 q 610 611 639 575 q 540 668 581 647 q 450 689 499 689 q 319 656 385 689 q 203 569 254 624 q 119 442 151 514 q 88 293 88 371 q 103 191 88 239 q 149 108 119 143 q 218 51 178 72 q 308 31 258 31 m 436 1014 l 497 1014 l 557 904 l 519 886 l 436 1014 z "},"ő":{"ha":783,"x_min":39,"x_max":719,"o":"m 382 886 l 357 904 l 461 1014 l 518 1014 l 382 886 m 526 886 l 500 904 l 604 1014 l 663 1014 l 526 886 m 300 -14 q 192 10 240 -14 q 109 74 143 33 q 57 170 75 115 q 39 288 39 225 q 75 456 39 375 q 171 599 111 538 q 306 697 231 660 q 460 733 381 733 q 566 710 518 733 q 648 644 614 686 q 701 547 682 603 q 719 429 719 492 q 684 263 719 343 q 590 121 649 182 q 456 23 532 60 q 300 -14 381 -14 m 308 31 q 440 63 375 31 q 557 149 506 94 q 640 274 608 203 q 672 422 672 344 q 656 526 672 478 q 610 611 639 575 q 540 668 581 647 q 450 689 499 689 q 319 656 385 689 q 203 569 254 624 q 119 442 151 514 q 88 293 88 371 q 103 191 88 239 q 149 108 119 143 q 218 51 178 72 q 308 31 258 31 z "},"ō":{"ha":783,"x_min":39,"x_max":719,"o":"m 317 943 l 324 982 l 697 982 l 689 943 l 317 943 m 300 -14 q 192 10 240 -14 q 109 74 143 33 q 57 170 75 115 q 39 288 39 225 q 75 456 39 375 q 171 599 111 538 q 306 697 231 660 q 460 733 381 733 q 566 710 518 733 q 648 644 614 686 q 701 547 682 603 q 719 429 719 492 q 684 263 719 343 q 590 121 649 182 q 456 23 532 60 q 300 -14 381 -14 m 308 31 q 440 63 375 31 q 557 149 506 94 q 640 274 608 203 q 672 422 672 344 q 656 526 672 478 q 610 611 639 575 q 540 668 581 647 q 450 689 499 689 q 319 656 385 689 q 203 569 254 624 q 119 442 151 514 q 88 293 88 371 q 103 191 88 239 q 149 108 119 143 q 218 51 178 72 q 308 31 258 31 z "},"⅛":{"ha":1072,"x_min":40,"x_max":1004,"o":"m 40 22 l 979 989 l 1004 965 l 65 -3 l 40 22 m 346 506 l 338 468 l 90 468 l 99 506 l 207 506 l 306 969 q 280 949 297 961 q 242 927 263 938 q 201 910 222 917 q 164 903 181 903 l 172 940 q 217 951 193 940 q 263 976 242 963 q 299 1002 285 990 q 314 1015 314 1014 l 353 1015 l 243 506 l 346 506 m 726 -6 q 602 34 647 -6 q 557 128 557 74 q 572 185 557 158 q 609 232 586 211 q 660 267 632 253 q 717 289 689 281 q 658 327 682 301 q 633 389 633 353 q 653 452 633 424 q 703 499 672 481 q 771 528 733 518 q 844 539 808 539 q 903 531 875 539 q 952 509 931 524 q 987 473 974 494 q 1000 425 1000 451 q 989 378 1000 400 q 959 340 978 357 q 915 310 940 322 q 864 289 890 297 q 937 244 908 275 q 965 168 965 213 q 945 97 965 129 q 892 42 925 65 q 815 7 858 19 q 726 -6 772 -6 m 738 29 q 803 39 769 29 q 865 67 838 49 q 910 110 893 85 q 928 167 928 135 q 915 211 928 192 q 883 244 903 231 q 838 265 863 257 q 786 272 813 272 q 720 262 754 272 q 658 233 686 251 q 613 190 631 215 q 596 133 596 164 q 608 90 596 108 q 641 57 621 71 q 686 36 661 43 q 738 29 711 29 m 794 304 q 851 312 821 304 q 905 334 881 319 q 945 369 929 349 q 961 418 961 390 q 951 455 961 439 q 923 482 940 471 q 883 499 906 493 q 836 504 861 504 q 776 496 806 504 q 724 473 747 488 q 687 437 701 458 q 672 390 672 415 q 683 353 672 369 q 710 326 693 338 q 750 310 728 315 q 794 304 772 304 z "},"¹":{"ha":342,"x_min":101,"x_max":364,"o":"m 357 617 l 349 579 l 101 579 l 110 617 l 218 617 l 317 1081 q 291 1060 308 1072 q 253 1038 274 1049 q 213 1021 233 1028 q 175 1014 192 1014 l 183 1051 q 228 1063 204 1051 q 274 1088 253 1074 q 310 1113 296 1101 q 325 1126 325 1125 l 364 1126 l 254 617 l 357 617 z "},"½":{"ha":1074,"x_min":21,"x_max":1017,"o":"m 546 0 q 622 159 568 104 q 760 244 676 214 q 834 269 796 257 q 903 299 872 282 q 955 343 935 317 q 975 411 975 369 q 947 481 975 451 q 856 510 918 510 q 790 501 819 510 q 738 481 761 493 q 697 453 714 468 q 669 428 679 439 l 649 453 q 668 472 651 457 q 713 503 685 486 q 779 533 740 519 q 865 546 818 546 q 981 509 944 546 q 1017 419 1017 472 q 995 338 1017 371 q 940 283 974 306 q 867 247 907 261 q 789 219 826 232 q 703 178 736 201 q 649 131 669 156 q 619 81 629 106 q 606 36 610 57 l 939 36 l 931 0 l 546 0 m 21 22 l 960 989 l 985 965 l 46 -3 l 21 22 m 350 506 l 342 468 l 94 468 l 103 506 l 211 506 l 310 969 q 284 949 301 961 q 247 927 267 938 q 206 910 226 917 q 168 903 185 903 l 176 940 q 222 951 197 940 q 267 976 246 963 q 303 1002 289 990 q 318 1015 318 1014 l 357 1015 l 247 506 l 350 506 z "},"₂":{"ha":501,"x_min":-57,"x_max":417,"o":"m -57 -111 q 19 48 -35 -7 q 158 133 74 103 q 233 158 194 146 q 303 188 271 171 q 355 232 335 206 q 375 300 375 258 q 346 369 375 340 q 254 399 317 399 q 189 390 218 399 q 136 369 160 382 q 95 342 113 357 q 67 317 78 328 l 46 342 q 65 360 49 346 q 110 392 82 375 q 178 422 139 408 q 265 435 217 435 q 381 398 344 435 q 417 308 417 361 q 395 228 417 261 q 340 174 374 196 q 266 137 307 151 q 188 110 225 122 q 101 68 135 92 q 47 19 67 44 q 17 -30 26 -6 q 3 -75 7 -54 l 339 -75 l 331 -111 l -57 -111 z "},"₁":{"ha":347,"x_min":-46,"x_max":219,"o":"m 217 -75 l 208 -111 l -46 -111 l -39 -75 l 74 -75 l 172 389 q 147 369 164 381 q 108 347 129 357 q 66 331 88 338 q 28 324 44 324 l 36 360 q 82 371 57 360 q 129 396 107 382 q 166 422 151 410 q 182 436 181 435 l 219 436 l 111 -75 l 217 -75 z "},"¼":{"ha":1017,"x_min":56,"x_max":1019,"o":"m 799 150 l 493 150 l 500 183 l 892 539 l 918 539 l 843 186 l 917 186 l 910 150 l 836 150 l 803 0 l 767 0 l 799 150 m 807 186 l 869 479 l 547 186 l 807 186 m 56 22 l 994 989 l 1019 965 l 81 -3 l 56 22 m 343 506 l 335 468 l 88 468 l 96 506 l 204 506 l 303 969 q 277 949 294 961 q 240 927 260 938 q 199 910 219 917 q 161 903 178 903 l 169 940 q 215 951 190 940 q 260 976 239 963 q 297 1002 282 990 q 311 1015 311 1014 l 350 1015 l 240 506 l 343 506 z "},"⅓":{"ha":1072,"x_min":26,"x_max":1003,"o":"m 26 22 l 965 989 l 990 965 l 51 -3 l 26 22 m 349 506 l 340 468 l 93 468 l 101 506 l 210 506 l 308 969 q 283 949 300 961 q 245 927 265 938 q 204 910 225 917 q 167 903 183 903 l 175 940 q 220 951 196 940 q 266 976 244 963 q 302 1002 288 990 q 317 1015 317 1014 l 356 1015 l 246 506 l 349 506 m 728 -7 q 668 1 699 -7 q 613 24 638 8 q 573 65 589 40 q 557 124 557 90 l 588 142 q 626 63 588 97 q 736 29 665 29 q 808 39 774 29 q 869 66 843 49 q 910 106 894 83 q 925 157 925 129 q 879 231 925 204 q 751 258 833 258 l 722 258 l 729 292 l 758 292 q 908 322 854 292 q 963 411 963 353 q 925 483 963 456 q 829 511 888 511 q 728 488 774 511 q 657 429 682 465 l 636 456 q 720 521 665 496 q 836 546 775 546 q 957 509 911 546 q 1003 418 1003 472 q 856 275 1003 307 q 934 234 906 265 q 963 160 963 203 q 943 92 963 122 q 891 40 924 61 q 816 6 858 18 q 728 -7 774 -7 z "},"₃":{"ha":508,"x_min":-35,"x_max":411,"o":"m 136 -118 q 76 -112 107 -118 q 22 -91 46 -106 q -19 -51 -3 -76 q -35 13 -35 -25 l -4 31 q 35 -50 -4 -18 q 144 -82 74 -82 q 217 -72 182 -82 q 277 -45 251 -62 q 318 -5 303 -28 q 333 46 333 18 q 287 120 333 93 q 160 147 240 147 l 131 147 l 138 181 l 167 181 q 317 211 263 181 q 371 300 371 242 q 333 372 371 344 q 238 400 296 400 q 136 377 182 400 q 65 318 90 354 l 44 344 q 128 410 74 385 q 244 435 183 435 q 365 398 319 435 q 411 307 411 361 q 264 164 411 196 q 342 123 314 154 q 371 49 371 92 q 351 -19 371 11 q 299 -72 332 -50 q 224 -106 267 -93 q 136 -118 182 -118 z "},"ǫ":{"ha":783,"x_min":39,"x_max":719,"o":"m 225 -239 q 179 -211 194 -231 q 164 -165 164 -192 q 192 -93 164 -128 q 286 -14 219 -58 q 183 14 229 -11 q 106 79 138 39 q 56 173 74 119 q 39 288 39 226 q 75 456 39 375 q 171 599 111 538 q 306 697 231 660 q 460 733 381 733 q 566 710 518 733 q 648 644 614 686 q 701 547 682 603 q 719 429 719 492 q 688 272 719 347 q 603 136 657 196 q 481 37 550 76 q 338 -11 413 -3 q 272 -55 297 -36 q 230 -90 246 -74 q 208 -123 214 -107 q 201 -156 201 -139 q 251 -207 201 -197 l 225 -239 m 308 31 q 440 63 375 31 q 557 149 506 94 q 640 274 608 203 q 672 422 672 344 q 656 526 672 478 q 610 611 639 575 q 540 668 581 647 q 450 689 499 689 q 319 656 385 689 q 203 569 254 624 q 119 442 151 514 q 88 293 88 371 q 103 191 88 239 q 149 108 119 143 q 218 51 178 72 q 308 31 258 31 z "},"ª":{"ha":565,"x_min":108,"x_max":546,"o":"m 236 486 q 143 522 178 486 q 108 610 108 557 q 126 678 108 647 q 176 732 144 710 q 249 767 207 754 q 339 779 290 779 q 415 773 378 779 q 479 754 451 767 l 489 800 q 493 838 493 821 q 464 915 493 886 q 381 943 435 943 q 215 886 310 943 l 203 921 q 392 985 308 985 q 506 949 467 985 q 546 847 546 914 q 544 822 546 835 q 540 794 543 808 l 493 568 q 492 558 492 565 q 508 543 492 544 l 497 494 q 454 507 465 494 q 443 539 443 519 q 447 576 443 556 q 350 509 406 532 q 236 486 294 486 m 257 529 q 320 538 288 529 q 381 560 353 546 q 430 594 410 575 q 454 636 450 614 l 471 717 q 409 737 443 732 q 339 742 375 742 q 212 709 263 742 q 161 619 161 676 q 187 556 161 582 q 257 529 213 529 z "},"º":{"ha":599,"x_min":125,"x_max":604,"o":"m 310 486 q 233 502 267 486 q 174 546 199 518 q 138 610 150 574 q 125 689 125 647 q 149 801 125 747 q 214 895 174 854 q 306 960 254 936 q 415 985 358 985 q 493 969 458 985 q 553 925 528 953 q 591 860 578 897 q 604 781 604 822 q 580 670 604 724 q 515 576 556 617 q 421 510 474 535 q 310 486 368 486 m 318 524 q 407 544 364 524 q 484 599 450 565 q 539 679 518 633 q 560 775 560 725 q 549 842 560 811 q 517 897 538 874 q 469 933 497 919 q 408 946 442 946 q 321 926 364 946 q 244 871 278 906 q 189 790 210 836 q 168 693 168 744 q 179 626 168 657 q 210 573 190 596 q 257 537 229 550 q 318 524 285 524 z "},"ø":{"ha":783,"x_min":39,"x_max":719,"o":"m 119 64 q 60 163 81 106 q 39 288 39 221 q 75 456 39 375 q 171 599 111 538 q 306 697 231 660 q 460 733 381 733 q 545 719 506 733 q 617 676 585 704 l 656 722 l 699 722 l 640 653 q 699 553 678 611 q 719 429 719 496 q 684 263 719 343 q 590 121 649 182 q 456 23 532 60 q 301 -14 381 -14 q 215 1 254 -14 q 143 42 175 15 l 107 0 l 64 0 l 119 64 m 88 293 q 104 186 88 235 q 153 101 121 138 l 585 638 q 523 675 557 661 q 450 689 489 689 q 319 656 383 689 q 203 569 254 624 q 119 442 151 514 q 88 293 88 371 m 308 31 q 440 63 375 31 q 557 149 506 94 q 640 274 608 203 q 672 422 672 344 q 656 529 672 479 q 607 615 639 579 l 174 81 q 308 31 231 31 z "},"ǿ":{"ha":783,"x_min":39,"x_max":719,"o":"m 119 64 q 60 163 81 106 q 39 288 39 221 q 75 456 39 375 q 171 599 111 538 q 306 697 231 660 q 460 733 381 733 q 545 719 506 733 q 617 676 585 704 l 656 722 l 699 722 l 640 653 q 699 553 678 611 q 719 429 719 496 q 684 263 719 343 q 590 121 649 182 q 456 23 532 60 q 301 -14 381 -14 q 215 1 254 -14 q 143 42 175 15 l 107 0 l 64 0 l 119 64 m 88 293 q 104 186 88 235 q 153 101 121 138 l 585 638 q 523 675 557 661 q 450 689 489 689 q 319 656 383 689 q 203 569 254 624 q 119 442 151 514 q 88 293 88 371 m 308 31 q 440 63 375 31 q 557 149 506 94 q 640 274 608 203 q 672 422 672 344 q 656 529 672 479 q 607 615 639 579 l 174 81 q 308 31 231 31 m 486 886 l 457 904 l 563 1014 l 624 1014 l 486 886 z "},"õ":{"ha":783,"x_min":39,"x_max":719,"o":"m 300 -14 q 192 10 240 -14 q 109 74 143 33 q 57 170 75 115 q 39 288 39 225 q 75 456 39 375 q 171 599 111 538 q 306 697 231 660 q 460 733 381 733 q 566 710 518 733 q 648 644 614 686 q 701 547 682 603 q 719 429 719 492 q 684 263 719 343 q 590 121 649 182 q 456 23 532 60 q 300 -14 381 -14 m 308 31 q 440 63 375 31 q 557 149 506 94 q 640 274 608 203 q 672 422 672 344 q 656 526 672 478 q 610 611 639 575 q 540 668 581 647 q 450 689 499 689 q 319 656 385 689 q 203 569 254 624 q 119 442 151 514 q 88 293 88 371 q 103 191 88 239 q 149 108 119 143 q 218 51 178 72 q 308 31 258 31 m 571 911 q 522 919 542 911 q 485 938 501 928 q 453 956 468 947 q 417 964 438 964 q 381 955 396 964 q 356 934 365 946 q 341 911 346 922 q 335 897 336 900 l 300 897 q 307 919 300 901 q 329 954 314 936 q 368 987 344 972 q 426 1001 392 1001 q 471 993 453 1001 q 505 974 489 985 q 538 956 521 964 q 581 947 556 947 q 624 957 607 947 q 652 978 642 967 q 667 1001 663 990 q 672 1014 672 1011 l 707 1014 q 699 992 706 1008 q 676 957 692 975 q 634 925 660 939 q 571 911 608 911 z "},"p":{"ha":808,"x_min":-42,"x_max":743,"o":"m 175 722 l 218 722 l 186 572 q 325 688 244 643 q 485 733 406 733 q 594 708 546 733 q 675 639 642 682 q 726 541 708 596 q 743 426 743 486 q 710 265 743 344 q 623 124 678 186 q 494 24 568 63 q 339 -14 421 -14 q 257 0 294 -14 q 190 38 219 14 q 138 93 160 61 q 103 161 117 125 l 6 -296 l -42 -296 l 175 722 m 340 31 q 477 65 413 31 q 590 156 542 100 q 666 282 638 213 q 694 421 694 351 q 678 524 694 475 q 633 609 663 572 q 561 667 603 646 q 468 689 519 689 q 383 672 431 689 q 293 626 336 654 q 216 560 250 597 q 169 481 182 522 l 117 232 q 145 153 125 190 q 194 90 165 117 q 260 47 224 63 q 340 31 297 31 z "},"¶":{"ha":767,"x_min":89,"x_max":821,"o":"m 89 596 q 121 756 89 683 q 211 878 153 828 q 353 958 269 929 q 539 986 436 986 l 821 986 l 811 944 l 719 944 l 494 -111 l 451 -111 l 547 338 l 435 338 l 339 -111 l 294 -111 l 390 338 q 167 408 246 340 q 89 596 89 476 m 133 606 q 154 507 133 549 q 211 438 175 465 q 295 396 247 410 q 399 379 343 382 l 519 944 q 356 919 428 944 q 234 850 283 894 q 159 743 185 806 q 133 606 133 681 m 676 944 l 564 944 l 443 379 l 556 379 l 676 944 z "},"(":{"ha":331,"x_min":67,"x_max":406,"o":"m 67 357 q 91 534 67 450 q 157 698 115 618 q 255 856 199 778 q 374 1014 311 933 l 406 992 q 307 864 358 938 q 213 708 256 790 q 141 538 169 625 q 113 368 113 451 q 117 276 113 325 q 132 176 122 226 q 156 76 142 125 q 190 -18 171 26 l 150 -40 q 88 158 110 53 q 67 357 67 263 z "},")":{"ha":331,"x_min":-44,"x_max":292,"o":"m 292 601 q 270 438 292 518 q 209 279 249 358 q 113 121 169 200 q -14 -40 57 42 l -44 -18 q 73 133 19 57 q 165 285 126 208 q 224 438 203 363 q 244 589 244 514 q 238 697 244 640 q 222 807 232 753 q 198 908 211 861 q 169 992 185 956 l 211 1014 q 269 812 246 918 q 292 601 292 706 z "},"%":{"ha":913,"x_min":-10,"x_max":953,"o":"m 292 613 q 183 658 225 613 q 142 771 142 704 q 162 858 142 817 q 215 931 182 900 q 289 981 247 963 q 375 1000 331 1000 q 483 953 442 1000 q 525 840 525 907 q 505 753 525 794 q 452 680 485 711 q 378 631 419 649 q 292 613 336 613 m 300 647 q 368 663 335 647 q 427 705 401 679 q 469 765 453 731 q 485 835 485 799 q 451 927 485 890 q 367 964 417 964 q 299 949 332 964 q 240 907 265 933 q 199 847 214 881 q 183 778 183 814 q 215 685 183 722 q 300 647 247 647 m 569 -14 q 461 32 503 -14 q 419 146 419 78 q 440 233 419 192 q 492 305 460 274 q 567 355 525 336 q 653 374 608 374 q 760 328 719 374 q 801 215 801 282 q 782 128 801 169 q 730 55 763 86 q 656 5 697 24 q 569 -14 614 -14 m 576 22 q 644 38 611 22 q 703 78 678 53 q 745 138 729 104 q 761 207 761 171 q 728 301 761 263 q 644 339 694 339 q 576 323 610 339 q 517 281 543 307 q 476 220 492 254 q 460 150 460 186 q 492 59 460 96 q 576 22 524 22 m -10 22 l 929 989 l 953 965 l 14 -3 l -10 22 z "},".":{"ha":232,"x_min":8,"x_max":74,"o":"m 8 0 l 31 103 l 74 103 l 51 0 l 8 0 z "},"‰":{"ha":1349,"x_min":-1,"x_max":1257,"o":"m 303 613 q 192 658 233 613 q 150 769 150 703 q 170 858 150 815 q 223 931 190 900 q 297 981 256 963 q 381 1000 338 1000 q 492 954 451 1000 q 533 842 533 908 q 513 754 533 796 q 460 681 493 713 q 387 631 428 650 q 303 613 346 613 m 311 647 q 377 663 344 647 q 435 706 410 679 q 477 766 461 732 q 493 836 493 800 q 459 927 493 890 q 372 964 425 964 q 306 948 339 964 q 248 906 274 932 q 207 847 222 881 q 192 775 192 813 q 225 685 192 722 q 311 647 258 647 m 581 -14 q 469 32 510 -14 q 428 144 428 78 q 448 232 428 190 q 500 305 468 274 q 574 355 532 336 q 658 374 615 374 q 769 328 728 374 q 810 215 810 282 q 790 128 810 169 q 738 55 769 86 q 665 5 706 24 q 581 -14 624 -14 m 588 22 q 653 38 621 22 q 712 79 686 53 q 753 140 738 106 q 769 210 769 174 q 736 301 769 263 q 650 339 703 339 q 584 323 617 339 q 526 281 551 307 q 484 220 500 254 q 468 149 468 186 q 501 59 468 96 q 588 22 533 22 m 1026 -14 q 915 31 957 -14 q 874 144 874 76 q 894 232 874 190 q 947 305 914 274 q 1020 355 979 336 q 1104 374 1061 374 q 1216 328 1175 374 q 1257 215 1257 282 q 1237 128 1257 169 q 1184 55 1217 86 q 1110 5 1151 24 q 1026 -14 1068 -14 m 1033 22 q 1101 38 1068 22 q 1159 79 1133 53 q 1201 139 1185 106 q 1217 208 1217 172 q 1183 301 1217 263 q 1096 339 1149 339 q 1030 323 1063 339 q 972 281 997 307 q 930 220 946 254 q 914 149 914 186 q 947 59 914 96 q 1033 22 979 22 m -1 22 l 938 989 l 961 965 l 22 -3 l -1 22 z "},"+":{"ha":571,"x_min":89,"x_max":510,"o":"m 510 514 l 510 472 l 322 472 l 322 269 l 276 269 l 276 472 l 89 472 l 89 514 l 276 514 l 276 717 l 322 717 l 322 514 l 510 514 z "},"±":{"ha":671,"x_min":103,"x_max":529,"o":"m 103 108 l 103 151 l 529 151 l 529 108 l 103 108 m 529 518 l 529 475 l 339 475 l 339 271 l 293 271 l 293 475 l 103 475 l 103 518 l 293 518 l 293 722 l 339 722 l 339 518 l 529 518 z "},"q":{"ha":807,"x_min":39,"x_max":761,"o":"m 285 -14 q 179 10 225 -14 q 102 76 133 35 q 55 172 71 118 q 39 285 39 226 q 75 453 39 372 q 169 596 111 533 q 303 696 228 658 q 457 733 378 733 q 599 687 538 733 q 686 572 660 640 l 717 722 l 761 722 l 561 -219 q 560 -231 560 -225 q 579 -251 560 -249 l 571 -294 q 528 -284 547 -294 q 510 -246 510 -274 q 513 -232 510 -240 l 596 161 q 443 31 521 75 q 285 -14 365 -14 m 303 31 q 392 47 349 31 q 476 90 436 63 q 549 153 515 117 q 610 228 582 189 l 667 489 q 644 566 661 529 q 599 630 626 603 q 535 673 572 657 q 454 689 499 689 q 315 654 382 689 q 198 563 249 619 q 117 435 147 507 q 86 292 86 364 q 101 191 86 239 q 143 108 115 143 q 211 51 171 72 q 303 31 251 31 z "},"?":{"ha":628,"x_min":131,"x_max":647,"o":"m 190 258 q 219 360 203 318 q 257 431 236 401 q 302 478 278 460 q 356 511 326 496 q 438 549 394 531 q 517 597 481 568 q 578 672 554 626 q 601 789 601 717 q 588 863 601 832 q 552 915 575 894 q 499 946 529 936 q 435 956 468 956 q 285 913 358 956 q 163 800 211 871 l 131 819 q 195 896 158 863 q 273 952 232 929 q 358 987 314 975 q 443 999 401 999 q 522 985 485 999 q 587 947 558 972 q 631 882 615 921 q 647 793 647 843 q 624 667 647 715 q 563 585 600 618 q 478 530 525 553 q 386 483 432 507 q 339 456 361 471 q 297 416 317 440 q 262 354 278 392 q 233 258 246 317 l 190 258 m 136 0 l 163 126 l 206 126 l 179 0 l 136 0 z "},"¿":{"ha":621,"x_min":-51,"x_max":465,"o":"m 406 444 q 376 342 393 383 q 339 272 360 301 q 294 224 318 243 q 240 192 269 206 q 158 153 201 172 q 78 104 115 133 q 18 31 42 75 q -6 -86 -6 -14 q 8 -160 -6 -129 q 44 -212 21 -192 q 97 -243 67 -233 q 161 -253 128 -253 q 311 -210 238 -253 q 433 -97 385 -168 l 465 -117 q 401 -193 438 -160 q 323 -249 364 -226 q 238 -284 282 -272 q 153 -296 194 -296 q 74 -283 111 -296 q 9 -244 38 -269 q -35 -179 -19 -218 q -51 -90 -51 -140 q -28 35 -51 -14 q 33 117 -4 85 q 117 173 71 150 q 210 219 164 196 q 257 247 235 232 q 299 287 279 263 q 334 349 318 311 q 363 444 350 386 l 406 444 m 460 703 l 433 576 l 390 576 l 417 703 l 460 703 z "},"\"":{"ha":325,"x_min":171,"x_max":346,"o":"m 171 772 l 217 989 l 260 989 l 214 772 l 171 772 m 256 772 l 301 989 l 346 989 l 299 772 l 256 772 z "},"„":{"ha":458,"x_min":33,"x_max":246,"o":"m 33 -117 l 74 0 l 56 0 l 81 114 l 132 114 l 107 0 l 61 -117 l 33 -117 m 146 -117 l 186 0 l 168 0 l 193 114 l 246 114 l 221 0 l 174 -117 l 146 -117 z "},"‚":{"ha":344,"x_min":33,"x_max":132,"o":"m 33 -117 l 74 0 l 56 0 l 81 114 l 132 114 l 107 0 l 61 -117 l 33 -117 z "},"“":{"ha":358,"x_min":165,"x_max":388,"o":"m 267 1014 l 224 886 l 242 886 l 218 772 l 165 772 l 190 886 l 239 1014 l 267 1014 m 388 1014 l 344 886 l 363 886 l 339 772 l 286 772 l 311 886 l 361 1014 l 388 1014 z "},"‘":{"ha":238,"x_min":165,"x_max":267,"o":"m 267 1014 l 224 886 l 242 886 l 218 772 l 165 772 l 190 886 l 239 1014 l 267 1014 z "},"”":{"ha":354,"x_min":168,"x_max":390,"o":"m 168 772 l 211 900 l 193 900 l 217 1014 l 269 1014 l 244 900 l 196 772 l 168 772 m 290 772 l 333 900 l 315 900 l 338 1014 l 390 1014 l 367 900 l 317 772 l 290 772 z "},"’":{"ha":232,"x_min":168,"x_max":269,"o":"m 168 772 l 211 900 l 193 900 l 217 1014 l 269 1014 l 244 900 l 196 772 l 168 772 z "},"'":{"ha":239,"x_min":171,"x_max":260,"o":"m 171 771 l 217 989 l 260 989 l 214 771 l 171 771 z "},"r":{"ha":451,"x_min":21,"x_max":483,"o":"m 174 722 l 218 722 l 181 539 q 244 616 210 582 q 317 674 279 650 q 393 710 354 697 q 469 722 432 722 q 483 721 476 722 l 474 678 q 295 615 378 674 q 164 454 213 556 l 68 0 l 21 0 l 174 722 z "},"ŕ":{"ha":451,"x_min":21,"x_max":483,"o":"m 322 886 l 293 904 l 399 1014 l 460 1014 l 322 886 m 174 722 l 218 722 l 181 539 q 244 616 210 582 q 317 674 279 650 q 393 710 354 697 q 469 722 432 722 q 483 721 476 722 l 474 678 q 295 615 378 674 q 164 454 213 556 l 68 0 l 21 0 l 174 722 z "},"ř":{"ha":451,"x_min":21,"x_max":504,"o":"m 218 994 l 253 1014 l 347 926 l 478 1014 l 504 994 l 356 886 l 319 886 l 218 994 m 174 722 l 218 722 l 181 539 q 244 616 210 582 q 317 674 279 650 q 393 710 354 697 q 469 722 432 722 q 483 721 476 722 l 474 678 q 295 615 378 674 q 164 454 213 556 l 68 0 l 21 0 l 174 722 z "},"ŗ":{"ha":451,"x_min":-37,"x_max":483,"o":"m -37 -244 l -3 -158 l -19 -158 l 0 -69 l 50 -69 l 31 -158 l -10 -244 l -37 -244 m 174 722 l 218 722 l 181 539 q 244 616 210 582 q 317 674 279 650 q 393 710 354 697 q 469 722 432 722 q 483 721 476 722 l 474 678 q 295 615 378 674 q 164 454 213 556 l 68 0 l 21 0 l 174 722 z "},"®":{"ha":1165,"x_min":93,"x_max":1101,"o":"m 597 -10 q 397 28 489 -10 q 237 134 304 67 q 131 293 169 201 q 93 493 93 385 q 131 692 93 600 q 237 850 169 783 q 397 955 304 917 q 597 993 489 993 q 798 955 706 993 q 958 850 890 917 q 1063 692 1025 783 q 1101 493 1101 600 q 1063 293 1101 385 q 958 134 1025 201 q 798 28 890 67 q 597 -10 706 -10 m 597 22 q 783 56 697 22 q 931 152 868 90 q 1031 301 994 214 q 1067 493 1067 388 q 1031 678 1067 593 q 933 826 996 764 q 785 924 871 889 q 597 960 699 960 q 410 924 496 960 q 263 826 325 889 q 165 678 200 764 q 129 493 129 593 q 164 306 129 392 q 261 156 199 219 q 410 58 324 93 q 597 22 496 22 m 393 808 l 656 808 q 729 792 696 808 q 787 747 763 775 q 824 684 811 719 q 838 613 838 649 q 826 543 838 576 q 794 484 815 510 q 744 442 774 458 q 681 421 715 425 l 840 171 l 793 171 l 636 418 l 435 418 l 435 171 l 393 171 l 393 808 m 660 456 q 763 502 728 456 q 797 613 797 549 q 787 673 797 644 q 757 722 776 701 q 711 756 738 743 q 654 768 685 768 l 435 768 l 435 456 l 660 456 z "},"s":{"ha":632,"x_min":-19,"x_max":601,"o":"m 226 -14 q 84 14 147 -14 q -19 100 21 42 l 13 132 q 110 53 57 79 q 235 26 163 26 q 333 40 288 26 q 413 78 379 53 q 465 138 446 103 q 485 215 485 172 q 472 264 485 244 q 433 299 458 283 q 372 326 408 314 q 288 350 335 338 q 206 374 242 363 q 146 401 169 385 q 110 438 122 417 q 97 492 97 460 q 122 597 97 551 q 188 673 147 643 q 283 718 229 703 q 393 733 336 733 q 528 704 475 733 q 601 631 582 675 l 567 607 q 495 671 547 649 q 379 693 443 693 q 291 682 333 693 q 216 647 249 671 q 164 588 183 624 q 144 504 144 553 q 185 433 144 454 q 306 392 225 413 q 401 364 358 378 q 472 332 443 350 q 517 289 501 314 q 533 228 533 264 q 510 131 533 175 q 447 54 488 86 q 349 4 406 22 q 226 -14 293 -14 z "},"ﬆ":{"ha":1032,"x_min":-8,"x_max":1035,"o":"m 235 -14 q 88 19 149 -14 q -8 97 28 51 l 24 129 q 244 26 114 26 q 331 37 286 26 q 412 69 375 47 q 473 127 449 92 q 497 211 497 163 q 481 273 497 250 q 438 309 465 296 q 374 328 411 322 q 296 340 338 335 q 217 351 254 344 q 151 374 179 358 q 106 419 122 390 q 89 497 89 447 q 117 606 89 561 q 188 679 144 651 q 283 720 231 707 q 386 733 336 733 q 538 692 483 733 q 525 751 531 724 q 519 814 519 779 q 531 893 519 853 q 569 967 542 933 q 644 1022 597 1000 q 764 1043 692 1043 q 874 1014 844 1043 q 904 922 904 985 q 895 835 904 883 q 874 722 886 786 l 1035 722 l 1026 681 l 864 681 l 744 119 q 743 103 743 113 q 765 53 743 69 q 819 38 788 38 q 858 42 839 38 q 892 53 876 47 q 919 64 908 58 q 933 72 929 69 l 942 33 q 924 26 938 32 q 892 12 911 19 q 850 -1 874 4 q 801 -7 826 -7 q 723 17 753 -7 q 693 82 693 42 q 697 118 693 101 l 817 681 l 719 681 l 729 722 l 826 722 q 848 835 840 788 q 856 914 856 882 q 831 989 856 969 q 751 1008 807 1008 q 651 991 690 1008 q 590 945 613 974 q 560 881 568 917 q 551 808 551 844 q 566 698 551 743 q 588 631 581 653 l 551 607 q 478 676 528 658 q 379 693 429 693 q 292 683 336 693 q 214 651 249 674 q 158 595 179 629 q 136 511 136 561 q 151 445 136 469 q 192 408 167 421 q 252 388 218 394 q 322 378 286 382 q 401 367 361 374 q 472 344 440 361 q 525 298 504 328 q 546 218 546 268 q 517 113 546 157 q 442 41 488 69 q 341 -1 396 13 q 235 -14 286 -14 z "},"ś":{"ha":632,"x_min":-19,"x_max":601,"o":"m 404 886 l 375 904 l 481 1014 l 542 1014 l 404 886 m 226 -14 q 84 14 147 -14 q -19 100 21 42 l 13 132 q 110 53 57 79 q 235 26 163 26 q 333 40 288 26 q 413 78 379 53 q 465 138 446 103 q 485 215 485 172 q 472 264 485 244 q 433 299 458 283 q 372 326 408 314 q 288 350 335 338 q 206 374 242 363 q 146 401 169 385 q 110 438 122 417 q 97 492 97 460 q 122 597 97 551 q 188 673 147 643 q 283 718 229 703 q 393 733 336 733 q 528 704 475 733 q 601 631 582 675 l 567 607 q 495 671 547 649 q 379 693 443 693 q 291 682 333 693 q 216 647 249 671 q 164 588 183 624 q 144 504 144 553 q 185 433 144 454 q 306 392 225 413 q 401 364 358 378 q 472 332 443 350 q 517 289 501 314 q 533 228 533 264 q 510 131 533 175 q 447 54 488 86 q 349 4 406 22 q 226 -14 293 -14 z "},"š":{"ha":632,"x_min":-19,"x_max":601,"o":"m 296 994 l 331 1014 l 425 926 l 556 1014 l 582 994 l 433 886 l 397 886 l 296 994 m 226 -14 q 84 14 147 -14 q -19 100 21 42 l 13 132 q 110 53 57 79 q 235 26 163 26 q 333 40 288 26 q 413 78 379 53 q 465 138 446 103 q 485 215 485 172 q 472 264 485 244 q 433 299 458 283 q 372 326 408 314 q 288 350 335 338 q 206 374 242 363 q 146 401 169 385 q 110 438 122 417 q 97 492 97 460 q 122 597 97 551 q 188 673 147 643 q 283 718 229 703 q 393 733 336 733 q 528 704 475 733 q 601 631 582 675 l 567 607 q 495 671 547 649 q 379 693 443 693 q 291 682 333 693 q 216 647 249 671 q 164 588 183 624 q 144 504 144 553 q 185 433 144 454 q 306 392 225 413 q 401 364 358 378 q 472 332 443 350 q 517 289 501 314 q 533 228 533 264 q 510 131 533 175 q 447 54 488 86 q 349 4 406 22 q 226 -14 293 -14 z "},"ə":{"ha":767,"x_min":21,"x_max":701,"o":"m 285 -14 q 176 8 225 -14 q 93 67 128 29 q 40 158 58 106 q 21 271 21 210 q 23 326 21 296 q 35 379 25 356 l 649 379 q 653 435 653 408 q 636 538 653 490 q 590 619 619 585 q 519 673 561 654 q 428 692 478 692 q 351 681 390 692 q 277 651 313 671 q 213 606 242 632 q 163 547 183 579 l 124 558 q 180 628 146 596 q 256 683 214 660 q 345 720 299 707 q 439 733 392 733 q 547 710 499 733 q 629 644 594 686 q 683 547 664 603 q 701 426 701 490 q 667 259 701 339 q 574 119 632 179 q 440 22 515 58 q 285 -14 365 -14 m 293 26 q 405 50 350 26 q 506 116 460 74 q 588 216 553 158 q 640 342 624 274 l 74 342 q 69 279 69 308 q 85 176 69 222 q 131 96 101 129 q 201 44 160 63 q 293 26 242 26 z "},"ŝ":{"ha":632,"x_min":-19,"x_max":601,"o":"m 293 907 l 440 1014 l 476 1014 l 579 907 l 544 886 l 450 974 l 319 886 l 293 907 m 226 -14 q 84 14 147 -14 q -19 100 21 42 l 13 132 q 110 53 57 79 q 235 26 163 26 q 333 40 288 26 q 413 78 379 53 q 465 138 446 103 q 485 215 485 172 q 472 264 485 244 q 433 299 458 283 q 372 326 408 314 q 288 350 335 338 q 206 374 242 363 q 146 401 169 385 q 110 438 122 417 q 97 492 97 460 q 122 597 97 551 q 188 673 147 643 q 283 718 229 703 q 393 733 336 733 q 528 704 475 733 q 601 631 582 675 l 567 607 q 495 671 547 649 q 379 693 443 693 q 291 682 333 693 q 216 647 249 671 q 164 588 183 624 q 144 504 144 553 q 185 433 144 454 q 306 392 225 413 q 401 364 358 378 q 472 332 443 350 q 517 289 501 314 q 533 228 533 264 q 510 131 533 175 q 447 54 488 86 q 349 4 406 22 q 226 -14 293 -14 z "},"§":{"ha":658,"x_min":1,"x_max":639,"o":"m 493 257 q 526 215 515 242 q 536 154 536 189 q 506 34 536 86 q 429 -53 475 -18 q 329 -105 383 -87 q 228 -122 275 -122 q 88 -87 142 -122 q 1 -4 35 -51 l 40 25 q 128 -51 81 -26 q 238 -76 175 -76 q 323 -62 279 -76 q 403 -19 367 -47 q 463 50 439 10 q 486 140 486 90 q 471 201 486 178 q 432 236 456 224 q 378 253 408 249 q 317 260 347 258 q 234 272 272 261 q 167 304 196 283 q 123 357 139 325 q 107 433 107 389 q 130 529 107 483 q 181 601 153 575 q 147 651 158 617 q 135 724 135 685 q 164 838 135 788 q 238 922 193 888 q 335 975 282 957 q 436 993 388 993 q 572 962 528 993 q 639 881 617 931 l 596 863 q 572 906 589 889 q 531 932 554 922 q 480 945 507 942 q 428 949 453 949 q 344 933 388 949 q 265 890 300 918 q 206 822 229 863 q 183 731 183 782 q 231 628 183 658 q 357 599 279 599 q 437 590 399 599 q 506 560 475 581 q 554 507 536 539 q 572 429 572 475 q 549 332 572 379 q 493 257 525 285 m 153 433 q 169 367 153 392 q 210 327 185 342 q 269 306 236 313 q 335 296 301 300 q 399 288 368 292 q 451 274 429 283 q 505 338 483 297 q 526 421 526 379 q 510 485 526 458 q 469 526 494 511 q 411 549 443 542 q 349 556 379 556 q 279 562 313 556 q 221 581 246 568 q 173 518 193 557 q 153 433 153 479 z "},";":{"ha":235,"x_min":-18,"x_max":201,"o":"m 138 615 l 158 718 l 201 718 l 179 615 l 138 615 m -18 -112 l 21 -8 l 3 -8 l 26 103 l 78 103 l 53 -8 l 10 -112 l -18 -112 z "},"⅞":{"ha":1069,"x_min":-15,"x_max":999,"o":"m -15 22 l 924 989 l 949 965 l 10 -3 l -15 22 m 725 -6 q 601 34 646 -6 q 556 128 556 74 q 570 185 556 158 q 608 232 585 211 q 659 267 631 253 q 715 289 688 281 q 656 327 681 301 q 632 389 632 353 q 651 452 632 424 q 701 499 671 481 q 769 528 732 518 q 843 539 807 539 q 901 531 874 539 q 951 509 929 524 q 985 473 972 494 q 999 425 999 451 q 988 378 999 400 q 958 340 976 357 q 914 310 939 322 q 863 289 889 297 q 935 244 907 275 q 964 168 964 213 q 944 97 964 129 q 890 42 924 65 q 814 7 857 19 q 725 -6 771 -6 m 736 29 q 802 39 768 29 q 864 67 836 49 q 909 110 892 85 q 926 167 926 135 q 914 211 926 192 q 881 244 901 231 q 836 265 861 257 q 785 272 811 272 q 719 262 753 272 q 657 233 685 251 q 612 190 629 215 q 594 133 594 164 q 607 90 594 108 q 640 57 619 71 q 685 36 660 43 q 736 29 710 29 m 793 304 q 849 312 819 304 q 903 334 879 319 q 944 369 928 349 q 960 418 960 390 q 949 455 960 439 q 922 482 939 471 q 882 499 904 493 q 835 504 860 504 q 775 496 804 504 q 723 473 746 488 q 685 437 700 458 q 671 390 671 415 q 681 353 671 369 q 709 326 692 338 q 749 310 726 315 q 793 304 771 304 m 514 978 l 176 978 l 185 1014 l 581 1014 l 164 475 l 122 475 l 514 978 z "},"⁷":{"ha":446,"x_min":121,"x_max":579,"o":"m 513 1089 l 176 1089 l 183 1125 l 579 1125 l 163 586 l 121 586 l 513 1089 z "},"₇":{"ha":446,"x_min":-28,"x_max":431,"o":"m 364 390 l 28 390 l 35 428 l 431 428 l 14 -111 l -28 -111 l 364 390 z "},"₆":{"ha":532,"x_min":-8,"x_max":433,"o":"m 411 96 q 390 13 411 51 q 335 -56 369 -26 q 255 -101 300 -85 q 161 -118 210 -118 q 38 -72 85 -118 q -8 54 -8 -26 q 13 201 -8 132 q 74 321 35 269 q 166 402 113 372 q 283 432 219 432 q 383 404 342 432 q 433 328 424 376 l 404 307 q 362 372 397 347 q 276 397 326 397 q 133 331 196 397 q 43 140 71 264 q 128 219 72 189 q 244 249 185 249 q 365 205 319 249 q 411 96 411 161 m 171 -83 q 247 -69 210 -83 q 312 -32 283 -56 q 358 22 340 -8 q 375 88 375 53 q 365 138 375 114 q 335 178 354 161 q 290 206 317 196 q 233 217 264 217 q 158 203 194 217 q 92 165 121 189 q 47 110 64 142 q 29 44 29 79 q 69 -46 29 -8 q 171 -83 110 -83 z "},"⁶":{"ha":532,"x_min":139,"x_max":582,"o":"m 560 789 q 539 706 560 744 q 483 638 518 667 q 403 592 449 608 q 308 575 357 575 q 185 621 232 575 q 139 747 139 667 q 160 894 139 825 q 221 1014 182 963 q 313 1095 260 1065 q 431 1125 367 1125 q 530 1097 489 1125 q 582 1021 571 1069 l 551 1000 q 509 1065 544 1040 q 424 1090 474 1090 q 281 1024 343 1090 q 190 833 218 957 q 276 913 219 883 q 392 942 332 942 q 513 898 467 942 q 560 789 560 854 m 318 610 q 394 624 357 610 q 459 661 431 638 q 505 715 488 685 q 522 781 522 746 q 512 831 522 807 q 483 872 501 854 q 438 899 464 889 q 381 910 411 910 q 305 896 342 910 q 240 858 268 882 q 194 803 211 835 q 176 738 176 772 q 217 647 176 685 q 318 610 257 610 z "}," ":{"ha":351,"x_min":0,"x_max":0,"o":""},"£":{"ha":632,"x_min":-4,"x_max":646,"o":"m 90 511 l 228 511 q 195 615 213 565 q 178 719 178 665 q 201 824 178 775 q 265 911 225 874 q 353 971 304 949 q 456 993 403 993 q 573 953 522 993 q 646 847 624 914 l 608 818 q 545 915 589 881 q 443 950 501 950 q 363 932 403 950 q 293 883 324 914 q 244 812 263 853 q 225 725 225 771 q 242 621 225 672 q 275 511 260 569 l 508 511 l 499 469 l 283 469 q 288 437 286 453 q 290 403 290 421 q 283 324 290 361 q 253 247 276 288 q 185 156 229 206 q 68 39 142 107 q 165 50 117 50 q 218 46 194 50 q 263 37 242 42 q 306 28 285 32 q 353 24 328 24 q 485 51 403 24 l 489 11 q 340 -21 408 -21 q 287 -16 311 -21 q 240 -6 263 -11 q 192 3 217 -1 q 139 8 168 8 q 73 3 110 8 q 4 -10 36 -1 l -4 26 q 128 151 79 100 q 203 242 176 201 q 237 317 229 282 q 244 397 244 353 q 242 434 244 417 q 238 469 240 451 l 82 469 l 90 511 z "},"t":{"ha":407,"x_min":67,"x_max":410,"o":"m 172 -7 q 97 17 126 -7 q 67 85 67 42 q 67 99 67 92 q 69 113 68 106 l 190 681 l 93 681 l 101 722 l 200 722 l 253 971 l 300 971 l 247 722 l 410 722 l 400 681 l 238 681 l 129 176 q 119 129 122 144 q 117 106 117 114 q 138 55 117 72 q 190 38 160 38 q 231 42 211 38 q 267 53 251 47 q 294 65 283 60 q 307 72 304 71 l 315 33 q 300 24 313 31 q 268 11 288 18 q 224 -1 249 4 q 172 -7 199 -7 z "},"ŧ":{"ha":408,"x_min":47,"x_max":410,"o":"m 54 496 l 151 496 l 192 681 l 94 681 l 103 722 l 200 722 l 254 971 l 301 971 l 247 722 l 410 722 l 401 681 l 239 681 l 199 496 l 363 496 l 354 458 l 190 458 l 129 169 q 121 131 124 146 q 118 106 118 117 q 139 54 118 71 q 192 38 160 38 q 233 42 213 38 q 269 53 253 47 q 295 65 285 60 q 308 72 306 71 l 317 33 q 301 24 314 31 q 269 11 289 18 q 225 -1 250 4 q 174 -7 200 -7 q 98 17 128 -7 q 68 85 68 42 q 69 99 68 92 q 71 113 69 106 l 144 458 l 47 458 l 54 496 z "},"ť":{"ha":407,"x_min":67,"x_max":546,"o":"m 379 904 l 485 1014 l 546 1014 l 408 886 l 379 904 m 172 -7 q 97 17 126 -7 q 67 85 67 42 q 67 99 67 92 q 69 113 68 106 l 190 681 l 93 681 l 101 722 l 200 722 l 253 971 l 300 971 l 247 722 l 410 722 l 400 681 l 238 681 l 129 176 q 119 129 122 144 q 117 106 117 114 q 138 55 117 72 q 190 38 160 38 q 231 42 211 38 q 267 53 251 47 q 294 65 283 60 q 307 72 304 71 l 315 33 q 300 24 313 31 q 268 11 288 18 q 224 -1 249 4 q 172 -7 199 -7 z "},"þ":{"ha":800,"x_min":-42,"x_max":738,"o":"m 231 986 l 278 986 l 189 567 q 327 687 253 640 q 489 733 401 733 q 598 709 551 733 q 676 644 644 685 q 722 553 707 604 q 738 446 738 501 q 707 284 738 367 q 622 135 676 201 q 493 26 568 68 q 328 -17 418 -17 q 180 26 236 -17 q 97 136 124 69 l 6 -296 l -42 -296 l 231 986 m 340 29 q 468 62 406 29 q 580 150 531 94 q 659 279 629 206 q 689 435 689 353 q 675 535 689 489 q 634 616 661 582 q 568 669 607 650 q 478 689 529 689 q 390 674 432 689 q 308 631 347 658 q 235 568 269 604 q 172 492 200 532 l 118 236 q 115 223 115 228 q 115 215 115 218 q 134 142 115 176 q 184 83 153 108 q 256 44 215 58 q 340 29 297 29 z "},"⅜":{"ha":1079,"x_min":71,"x_max":1035,"o":"m 267 463 q 207 470 238 463 q 151 494 176 478 q 111 535 126 510 q 96 593 96 560 l 126 611 q 165 533 126 567 q 275 500 203 500 q 347 510 313 500 q 407 536 381 519 q 449 576 433 553 q 464 628 464 600 q 417 701 464 674 q 290 728 371 728 l 261 728 l 268 761 l 297 761 q 447 792 393 761 q 500 882 500 824 q 463 953 500 926 q 368 981 426 981 q 267 958 313 981 q 196 899 221 935 l 175 925 q 259 991 204 967 q 375 1015 314 1015 q 495 979 450 1015 q 540 888 540 943 q 503 797 540 833 q 393 746 467 761 q 473 704 444 736 q 501 631 501 672 q 482 562 501 593 q 430 509 463 531 q 355 475 397 488 q 267 463 313 463 m 71 22 l 1010 989 l 1035 965 l 96 -3 l 71 22 m 731 -6 q 606 34 651 -6 q 561 128 561 74 q 576 185 561 158 q 613 232 590 211 q 665 267 636 253 q 721 289 693 281 q 662 327 686 301 q 638 389 638 353 q 657 452 638 424 q 707 499 676 481 q 775 528 738 518 q 849 539 813 539 q 907 531 879 539 q 956 509 935 524 q 991 473 978 494 q 1004 425 1004 451 q 993 378 1004 400 q 963 340 982 357 q 919 310 944 322 q 868 289 894 297 q 941 244 913 275 q 969 168 969 213 q 949 97 969 129 q 896 42 929 65 q 819 7 863 19 q 731 -6 776 -6 m 742 29 q 808 39 774 29 q 869 67 842 49 q 915 110 897 85 q 932 167 932 135 q 919 211 932 192 q 887 244 907 231 q 842 265 867 257 q 790 272 817 272 q 724 262 758 272 q 663 233 690 251 q 617 190 635 215 q 600 133 600 164 q 613 90 600 108 q 645 57 625 71 q 690 36 665 43 q 742 29 715 29 m 799 304 q 855 312 825 304 q 909 334 885 319 q 949 369 933 349 q 965 418 965 390 q 955 455 965 439 q 927 482 944 471 q 888 499 910 493 q 840 504 865 504 q 781 496 810 504 q 728 473 751 488 q 691 437 706 458 q 676 390 676 415 q 687 353 676 369 q 715 326 697 338 q 754 310 732 315 q 799 304 776 304 z "},"³":{"ha":508,"x_min":113,"x_max":557,"o":"m 285 574 q 158 610 201 574 q 113 704 115 646 l 143 722 q 181 642 143 672 q 292 611 219 611 q 363 621 329 611 q 424 647 397 631 q 465 688 450 664 q 481 739 481 711 q 435 812 481 785 q 307 839 389 839 l 278 839 l 285 872 l 314 872 q 463 903 410 872 q 517 992 517 933 q 480 1064 517 1036 q 385 1092 443 1092 q 284 1069 331 1092 q 213 1010 238 1046 l 192 1036 q 276 1102 221 1078 q 392 1126 331 1126 q 512 1090 467 1126 q 557 999 557 1054 q 520 909 557 946 q 410 857 483 872 q 490 816 461 847 q 518 742 518 785 q 499 673 518 704 q 447 620 479 642 q 372 586 414 599 q 285 574 329 574 z "},"¾":{"ha":1040,"x_min":92,"x_max":1068,"o":"m 263 463 q 203 470 233 463 q 147 494 172 478 q 107 535 122 510 q 92 593 92 560 l 122 611 q 160 533 122 567 q 271 500 199 500 q 342 510 308 500 q 403 536 376 519 q 444 576 429 553 q 460 628 460 600 q 413 701 460 674 q 286 728 367 728 l 257 728 l 264 761 l 293 761 q 442 792 389 761 q 496 882 496 824 q 459 953 496 926 q 364 981 422 981 q 263 958 308 981 q 192 899 217 935 l 171 925 q 255 991 200 967 q 371 1015 310 1015 q 491 979 446 1015 q 536 888 536 943 q 499 797 536 833 q 389 746 463 761 q 469 704 440 736 q 497 631 497 672 q 478 562 497 593 q 426 509 458 531 q 351 475 393 488 q 263 463 308 463 m 813 150 l 507 150 l 514 183 l 906 539 l 932 539 l 857 186 l 931 186 l 924 150 l 850 150 l 817 0 l 781 0 l 813 150 m 821 186 l 883 479 l 561 186 l 821 186 m 104 22 l 1043 989 l 1068 965 l 129 -3 l 104 22 z "},"™":{"ha":894,"x_min":190,"x_max":904,"o":"m 479 950 l 354 950 l 279 597 l 240 597 l 315 950 l 190 950 l 199 989 l 488 989 l 479 950 m 549 986 l 596 986 l 665 704 l 856 986 l 904 986 l 821 597 l 783 597 l 851 921 l 672 656 l 640 656 l 572 921 l 504 597 l 465 597 l 549 986 z "},"²":{"ha":500,"x_min":90,"x_max":564,"o":"m 90 581 q 167 740 113 686 q 306 825 221 794 q 380 850 342 838 q 450 881 418 863 q 502 925 482 899 q 522 993 522 951 q 493 1061 522 1032 q 401 1090 464 1090 q 336 1082 365 1090 q 283 1061 307 1074 q 242 1034 260 1049 q 214 1008 225 1019 l 193 1033 q 213 1052 196 1038 q 258 1083 229 1067 q 325 1113 286 1100 q 413 1126 364 1126 q 528 1090 492 1126 q 564 1000 564 1053 q 542 919 564 951 q 487 864 521 886 q 413 828 453 842 q 335 801 372 814 q 248 761 282 785 q 194 713 214 738 q 164 663 174 688 q 150 617 154 638 l 483 617 l 476 581 l 90 581 z "},"⅔":{"ha":1094,"x_min":74,"x_max":1063,"o":"m 74 469 q 149 629 96 575 q 288 714 203 683 q 360 739 322 726 q 430 769 399 751 q 481 814 461 788 q 501 882 501 840 q 473 950 501 921 q 382 979 444 979 q 318 971 347 979 q 265 950 289 963 q 224 923 242 938 q 196 897 207 908 l 175 922 q 194 941 178 926 q 240 972 211 956 q 307 1002 268 989 q 393 1015 346 1015 q 508 978 472 1015 q 543 889 543 942 q 522 809 543 842 q 467 754 500 776 q 393 717 433 732 q 315 689 353 701 q 229 648 263 671 q 176 600 196 625 q 146 551 156 575 q 132 506 136 526 l 464 506 l 457 469 l 74 469 m 99 22 l 1038 989 l 1063 965 l 124 -3 l 99 22 m 747 -7 q 688 1 718 -7 q 633 24 657 8 q 592 65 608 40 q 576 124 576 90 l 607 142 q 646 63 607 97 q 756 29 685 29 q 828 39 793 29 q 888 66 863 49 q 929 106 914 83 q 944 157 944 129 q 899 231 944 204 q 771 258 853 258 l 742 258 l 749 292 l 778 292 q 928 322 874 292 q 982 411 982 353 q 944 483 982 456 q 849 511 907 511 q 747 488 793 511 q 676 429 701 465 l 656 456 q 740 521 685 496 q 856 546 794 546 q 976 509 931 546 q 1022 418 1022 472 q 875 275 1022 307 q 953 234 925 265 q 982 160 982 203 q 963 92 982 122 q 910 40 943 61 q 835 6 878 18 q 747 -7 793 -7 z "},"u":{"ha":772,"x_min":61,"x_max":724,"o":"m 229 -14 q 61 178 61 -14 q 78 311 61 236 l 165 722 l 213 722 l 126 317 q 110 189 110 243 q 249 31 110 31 q 342 48 294 31 q 434 96 390 65 q 515 169 478 126 q 579 264 553 213 l 676 722 l 724 722 l 593 104 q 588 79 590 90 q 585 65 585 68 q 606 44 585 44 l 594 0 q 572 1 578 0 q 540 43 540 7 q 541 51 540 46 q 544 69 542 56 q 551 108 546 83 q 565 178 556 133 q 494 98 533 133 q 412 38 456 63 q 322 -1 368 13 q 229 -14 275 -14 z "},"ú":{"ha":772,"x_min":61,"x_max":724,"o":"m 442 886 l 413 904 l 518 1014 l 579 1014 l 442 886 m 229 -14 q 61 178 61 -14 q 78 311 61 236 l 165 722 l 213 722 l 126 317 q 110 189 110 243 q 249 31 110 31 q 342 48 294 31 q 434 96 390 65 q 515 169 478 126 q 579 264 553 213 l 676 722 l 724 722 l 593 104 q 588 79 590 90 q 585 65 585 68 q 606 44 585 44 l 594 0 q 572 1 578 0 q 540 43 540 7 q 541 51 540 46 q 544 69 542 56 q 551 108 546 83 q 565 178 556 133 q 494 98 533 133 q 412 38 456 63 q 322 -1 368 13 q 229 -14 275 -14 z "},"ŭ":{"ha":772,"x_min":61,"x_max":724,"o":"m 229 -14 q 61 178 61 -14 q 78 311 61 236 l 165 722 l 213 722 l 126 317 q 110 189 110 243 q 249 31 110 31 q 342 48 294 31 q 434 96 390 65 q 515 169 478 126 q 579 264 553 213 l 676 722 l 724 722 l 593 104 q 588 79 590 90 q 585 65 585 68 q 606 44 585 44 l 594 0 q 572 1 578 0 q 540 43 540 7 q 541 51 540 46 q 544 69 542 56 q 551 108 546 83 q 565 178 556 133 q 494 98 533 133 q 412 38 456 63 q 322 -1 368 13 q 229 -14 275 -14 m 465 928 q 520 953 493 928 q 558 1014 547 978 l 592 1014 q 573 969 586 990 q 542 931 560 947 q 502 906 524 915 q 460 897 481 897 q 397 924 421 897 q 372 990 372 950 q 373 1002 372 997 q 375 1014 374 1007 l 411 1014 q 408 997 408 1003 q 424 949 408 969 q 465 928 440 928 z "},"û":{"ha":772,"x_min":61,"x_max":724,"o":"m 336 907 l 483 1014 l 519 1014 l 622 907 l 588 886 l 493 974 l 363 886 l 336 907 m 229 -14 q 61 178 61 -14 q 78 311 61 236 l 165 722 l 213 722 l 126 317 q 110 189 110 243 q 249 31 110 31 q 342 48 294 31 q 434 96 390 65 q 515 169 478 126 q 579 264 553 213 l 676 722 l 724 722 l 593 104 q 588 79 590 90 q 585 65 585 68 q 606 44 585 44 l 594 0 q 572 1 578 0 q 540 43 540 7 q 541 51 540 46 q 544 69 542 56 q 551 108 546 83 q 565 178 556 133 q 494 98 533 133 q 412 38 456 63 q 322 -1 368 13 q 229 -14 275 -14 z "},"ü":{"ha":772,"x_min":61,"x_max":724,"o":"m 368 899 l 392 1013 l 435 1013 l 411 899 l 368 899 m 535 899 l 558 1013 l 601 1013 l 578 899 l 535 899 m 229 -14 q 61 178 61 -14 q 78 311 61 236 l 165 722 l 213 722 l 126 317 q 110 189 110 243 q 249 31 110 31 q 342 48 294 31 q 434 96 390 65 q 515 169 478 126 q 579 264 553 213 l 676 722 l 724 722 l 593 104 q 588 79 590 90 q 585 65 585 68 q 606 44 585 44 l 594 0 q 572 1 578 0 q 540 43 540 7 q 541 51 540 46 q 544 69 542 56 q 551 108 546 83 q 565 178 556 133 q 494 98 533 133 q 412 38 456 63 q 322 -1 368 13 q 229 -14 275 -14 z "},"ù":{"ha":772,"x_min":61,"x_max":724,"o":"m 229 -14 q 61 178 61 -14 q 78 311 61 236 l 165 722 l 213 722 l 126 317 q 110 189 110 243 q 249 31 110 31 q 342 48 294 31 q 434 96 390 65 q 515 169 478 126 q 579 264 553 213 l 676 722 l 724 722 l 593 104 q 588 79 590 90 q 585 65 585 68 q 606 44 585 44 l 594 0 q 572 1 578 0 q 540 43 540 7 q 541 51 540 46 q 544 69 542 56 q 551 108 546 83 q 565 178 556 133 q 494 98 533 133 q 412 38 456 63 q 322 -1 368 13 q 229 -14 275 -14 m 379 1014 l 440 1014 l 500 904 l 463 886 l 379 1014 z "},"ű":{"ha":772,"x_min":61,"x_max":724,"o":"m 229 -14 q 61 178 61 -14 q 78 311 61 236 l 165 722 l 213 722 l 126 317 q 110 189 110 243 q 249 31 110 31 q 342 48 294 31 q 434 96 390 65 q 515 169 478 126 q 579 264 553 213 l 676 722 l 724 722 l 593 104 q 588 79 590 90 q 585 65 585 68 q 606 44 585 44 l 594 0 q 572 1 578 0 q 540 43 540 7 q 541 51 540 46 q 544 69 542 56 q 551 108 546 83 q 565 178 556 133 q 494 98 533 133 q 412 38 456 63 q 322 -1 368 13 q 229 -14 275 -14 m 357 886 l 332 904 l 436 1014 l 493 1014 l 357 886 m 501 886 l 475 904 l 579 1014 l 638 1014 l 501 886 z "},"ū":{"ha":772,"x_min":61,"x_max":724,"o":"m 229 -14 q 61 178 61 -14 q 78 311 61 236 l 165 722 l 213 722 l 126 317 q 110 189 110 243 q 249 31 110 31 q 342 48 294 31 q 434 96 390 65 q 515 169 478 126 q 579 264 553 213 l 676 722 l 724 722 l 593 104 q 588 79 590 90 q 585 65 585 68 q 606 44 585 44 l 594 0 q 572 1 578 0 q 540 43 540 7 q 541 51 540 46 q 544 69 542 56 q 551 108 546 83 q 565 178 556 133 q 494 98 533 133 q 412 38 456 63 q 322 -1 368 13 q 229 -14 275 -14 m 289 943 l 296 982 l 669 982 l 661 943 l 289 943 z "},"_":{"ha":704,"x_min":-7,"x_max":517,"o":"m -7 -44 l 3 0 l 517 0 l 507 -44 l -7 -44 z "}," ":{"ha":351,"x_min":0,"x_max":0,"o":""},"­":{"ha":732,"x_min":79,"x_max":636,"o":"m 79 354 l 88 400 l 636 400 l 626 354 l 79 354 z "},"Ş":{"ha":808,"x_min":-1,"x_max":801,"o":"m 207 -174 q 254 -191 225 -183 q 317 -199 283 -199 q 407 -135 407 -199 q 391 -104 407 -112 q 351 -96 375 -96 q 292 -103 324 -96 q 240 -117 260 -110 l 322 -7 q -1 143 111 -3 l 33 178 q 346 35 135 35 q 585 98 496 35 q 675 282 675 161 q 658 351 675 322 q 610 403 642 381 q 528 441 578 425 q 415 472 479 457 q 301 502 351 486 q 217 541 251 518 q 165 597 183 564 q 147 675 147 629 q 176 809 147 750 q 258 909 206 868 q 383 972 311 950 q 540 993 454 993 q 695 965 632 993 q 801 876 758 938 l 768 840 q 673 924 729 900 q 533 949 617 949 q 381 928 444 949 q 277 874 318 908 q 217 791 236 839 q 199 689 199 743 q 214 624 199 650 q 259 578 229 597 q 335 544 289 558 q 443 515 381 529 q 559 483 507 500 q 649 442 611 467 q 706 381 686 417 q 726 294 726 346 q 700 171 726 225 q 626 78 674 117 q 510 18 578 39 q 361 -6 443 -3 l 307 -76 q 336 -69 321 -71 q 363 -68 351 -68 q 440 -129 440 -68 q 405 -205 440 -179 q 304 -231 369 -231 q 238 -223 268 -231 q 185 -204 208 -215 l 207 -174 z "},"ş":{"ha":632,"x_min":-19,"x_max":601,"o":"m 90 -174 q 138 -191 108 -183 q 200 -199 167 -199 q 290 -135 290 -199 q 274 -104 290 -112 q 235 -96 258 -96 q 175 -103 207 -96 q 124 -117 143 -110 l 201 -12 q 74 19 131 -8 q -19 100 17 47 l 13 132 q 110 53 57 79 q 235 26 163 26 q 333 40 288 26 q 413 78 379 53 q 465 138 446 103 q 485 215 485 172 q 472 264 485 244 q 433 299 458 283 q 372 326 408 314 q 288 350 335 338 q 206 374 242 363 q 146 401 169 385 q 110 438 122 417 q 97 492 97 460 q 122 597 97 551 q 188 673 147 643 q 283 718 229 703 q 393 733 336 733 q 528 704 475 733 q 601 631 582 675 l 567 607 q 495 671 547 649 q 379 693 443 693 q 291 682 333 693 q 216 647 249 671 q 164 588 183 624 q 144 504 144 553 q 185 433 144 454 q 306 392 225 413 q 401 364 358 378 q 472 332 443 350 q 517 289 501 314 q 533 228 533 264 q 511 132 533 175 q 449 57 489 89 q 356 6 410 25 q 239 -14 303 -12 l 190 -76 q 219 -69 204 -71 q 246 -68 235 -68 q 324 -129 324 -68 q 288 -205 324 -179 q 188 -231 253 -231 q 122 -223 151 -231 q 68 -204 92 -215 l 90 -174 z "},"Ţ":{"ha":799,"x_min":132,"x_max":889,"o":"m 482 942 l 132 942 l 140 986 l 889 986 l 881 942 l 529 942 l 329 0 l 324 0 l 265 -76 q 294 -69 279 -71 q 321 -68 310 -68 q 399 -129 399 -68 q 363 -205 399 -179 q 263 -231 328 -231 q 197 -223 226 -231 q 143 -204 167 -215 l 165 -174 q 213 -191 183 -183 q 275 -199 242 -199 q 365 -135 365 -199 q 349 -104 365 -112 q 310 -96 333 -96 q 250 -103 282 -96 q 199 -117 218 -110 l 288 0 l 282 0 l 482 942 z "},"ţ":{"ha":407,"x_min":13,"x_max":410,"o":"m 35 -174 q 82 -191 53 -183 q 144 -199 111 -199 q 235 -135 235 -199 q 219 -104 235 -112 q 179 -96 203 -96 q 119 -103 151 -96 q 68 -117 88 -110 l 151 -6 q 90 24 114 0 q 67 85 67 47 q 67 99 67 92 q 69 113 68 106 l 190 681 l 93 681 l 101 722 l 200 722 l 253 971 l 300 971 l 247 722 l 410 722 l 400 681 l 238 681 l 129 176 q 119 129 122 144 q 117 106 117 114 q 138 55 117 72 q 190 38 160 38 q 231 42 211 38 q 267 53 251 47 q 294 65 283 60 q 307 72 304 71 l 315 33 q 301 25 313 31 q 274 13 290 19 q 235 1 257 7 q 189 -6 214 -4 l 135 -76 q 164 -69 149 -71 q 190 -68 179 -68 q 268 -129 268 -68 q 233 -205 268 -179 q 132 -231 197 -231 q 66 -223 96 -231 q 13 -204 36 -215 l 35 -174 z "},"Ș":{"ha":807,"x_min":-4,"x_max":799,"o":"m 254 -244 l 289 -158 l 272 -158 l 292 -69 l 342 -69 l 322 -158 l 282 -244 l 254 -244 m 332 -7 q -4 143 113 -7 l 31 178 q 343 35 132 35 q 583 98 493 35 q 672 282 672 161 q 656 351 672 322 q 607 403 639 381 q 526 441 575 425 q 413 472 476 457 q 299 502 349 486 q 215 541 249 518 q 163 597 181 564 q 144 675 144 629 q 174 809 144 750 q 256 909 203 868 q 380 972 308 950 q 538 993 451 993 q 692 965 629 993 q 799 876 756 938 l 765 840 q 670 924 726 900 q 531 949 614 949 q 378 928 442 949 q 274 874 315 908 q 215 791 233 839 q 196 689 196 743 q 211 624 196 650 q 256 578 226 597 q 332 544 286 558 q 440 515 378 529 q 556 483 504 500 q 646 442 608 467 q 703 381 683 417 q 724 294 724 346 q 695 166 724 222 q 615 72 667 110 q 491 13 563 33 q 332 -7 419 -7 z "},"ș":{"ha":632,"x_min":-19,"x_max":601,"o":"m 160 -244 l 194 -158 l 178 -158 l 197 -69 l 247 -69 l 228 -158 l 188 -244 l 160 -244 m 226 -14 q 84 14 147 -14 q -19 100 21 42 l 13 132 q 110 53 57 79 q 235 26 163 26 q 333 40 288 26 q 413 78 379 53 q 465 138 446 103 q 485 215 485 172 q 472 264 485 244 q 433 299 458 283 q 372 326 408 314 q 288 350 335 338 q 206 374 242 363 q 146 401 169 385 q 110 438 122 417 q 97 492 97 460 q 122 597 97 551 q 188 673 147 643 q 283 718 229 703 q 393 733 336 733 q 528 704 475 733 q 601 631 582 675 l 567 607 q 495 671 547 649 q 379 693 443 693 q 291 682 333 693 q 216 647 249 671 q 164 588 183 624 q 144 504 144 553 q 185 433 144 454 q 306 392 225 413 q 401 364 358 378 q 472 332 443 350 q 517 289 501 314 q 533 228 533 264 q 510 131 533 175 q 447 54 488 86 q 349 4 406 22 q 226 -14 293 -14 z "},"Ț":{"ha":800,"x_min":133,"x_max":890,"o":"m 228 -244 l 263 -158 l 246 -158 l 265 -69 l 315 -69 l 296 -158 l 256 -244 l 228 -244 m 483 942 l 133 942 l 142 986 l 890 986 l 882 942 l 531 942 l 331 0 l 283 0 l 483 942 z "},"ț":{"ha":407,"x_min":67,"x_max":410,"o":"m 93 -244 l 128 -158 l 111 -158 l 131 -69 l 181 -69 l 161 -158 l 121 -244 l 93 -244 m 172 -7 q 97 17 126 -7 q 67 85 67 42 q 67 99 67 92 q 69 113 68 106 l 190 681 l 93 681 l 101 722 l 200 722 l 253 971 l 300 971 l 247 722 l 410 722 l 400 681 l 238 681 l 129 176 q 119 129 122 144 q 117 106 117 114 q 138 55 117 72 q 190 38 160 38 q 231 42 211 38 q 267 53 251 47 q 294 65 283 60 q 307 72 304 71 l 315 33 q 300 24 313 31 q 268 11 288 18 q 224 -1 249 4 q 172 -7 199 -7 z "},"μ":{"ha":782,"x_min":-43,"x_max":733,"o":"m 174 722 l 221 722 l 135 317 q 119 200 119 247 q 151 72 119 113 q 257 31 182 31 q 351 48 303 31 q 442 96 399 65 q 524 169 486 126 q 588 264 561 213 l 685 722 l 733 722 l 596 75 q 594 64 594 71 q 614 44 594 44 l 603 0 q 564 12 579 0 q 549 56 549 24 q 552 76 549 58 q 560 114 556 93 q 568 153 564 135 q 574 178 572 172 q 505 99 543 135 q 424 39 467 64 q 335 0 381 14 q 246 -14 290 -14 q 138 21 176 -14 q 92 122 100 56 l 4 -294 l -43 -294 l 174 722 z "},"∕":{"ha":764,"x_min":-87,"x_max":883,"o":"m -87 24 l 857 989 l 883 963 l -60 -3 l -87 24 z "},"∙":{"ha":228,"x_min":76,"x_max":146,"o":"m 76 346 l 103 472 l 146 472 l 119 346 l 76 346 z "},"ų":{"ha":772,"x_min":61,"x_max":724,"o":"m 229 -14 q 61 178 61 -14 q 78 311 61 236 l 165 722 l 213 722 l 126 317 q 110 189 110 243 q 249 31 110 31 q 342 48 294 31 q 434 96 390 65 q 515 169 478 126 q 579 264 553 213 l 676 722 l 724 722 l 593 104 q 588 79 590 90 q 585 65 585 68 q 606 44 585 44 l 594 0 q 528 -44 554 -25 q 485 -79 501 -62 q 463 -112 469 -96 q 457 -144 457 -128 q 507 -196 457 -186 l 481 -228 q 435 -200 450 -219 q 419 -154 419 -181 q 450 -78 419 -114 q 557 7 481 -42 q 540 43 540 17 q 541 51 540 46 q 544 69 542 56 q 551 108 546 83 q 565 178 556 133 q 494 98 533 133 q 412 38 456 63 q 322 -1 368 13 q 229 -14 275 -14 z "},"ů":{"ha":772,"x_min":61,"x_max":724,"o":"m 392 915 q 423 985 392 957 q 494 1014 454 1014 q 542 995 525 1014 q 560 947 560 976 q 529 878 560 907 q 458 849 499 849 q 410 867 428 849 q 392 915 392 886 m 488 988 q 442 969 463 988 q 421 921 421 950 q 433 888 421 901 q 464 875 444 875 q 510 894 488 875 q 532 942 532 914 q 519 975 532 963 q 488 988 507 988 m 229 -14 q 61 178 61 -14 q 78 311 61 236 l 165 722 l 213 722 l 126 317 q 110 189 110 243 q 249 31 110 31 q 342 48 294 31 q 434 96 390 65 q 515 169 478 126 q 579 264 553 213 l 676 722 l 724 722 l 593 104 q 588 79 590 90 q 585 65 585 68 q 606 44 585 44 l 594 0 q 572 1 578 0 q 540 43 540 7 q 541 51 540 46 q 544 69 542 56 q 551 108 546 83 q 565 178 556 133 q 494 98 533 133 q 412 38 456 63 q 322 -1 368 13 q 229 -14 275 -14 z "},"ũ":{"ha":772,"x_min":61,"x_max":724,"o":"m 229 -14 q 61 178 61 -14 q 78 311 61 236 l 165 722 l 213 722 l 126 317 q 110 189 110 243 q 249 31 110 31 q 342 48 294 31 q 434 96 390 65 q 515 169 478 126 q 579 264 553 213 l 676 722 l 724 722 l 593 104 q 588 79 590 90 q 585 65 585 68 q 606 44 585 44 l 594 0 q 572 1 578 0 q 540 43 540 7 q 541 51 540 46 q 544 69 542 56 q 551 108 546 83 q 565 178 556 133 q 494 98 533 133 q 412 38 456 63 q 322 -1 368 13 q 229 -14 275 -14 m 550 911 q 501 919 521 911 q 464 938 481 928 q 432 956 447 947 q 396 964 417 964 q 360 955 375 964 q 335 934 344 946 q 320 911 325 922 q 314 897 315 900 l 279 897 q 286 919 279 901 q 308 954 293 936 q 347 987 324 972 q 406 1001 371 1001 q 450 993 432 1001 q 484 974 468 985 q 517 956 500 964 q 560 947 535 947 q 603 957 586 947 q 631 978 621 967 q 647 1001 642 990 q 651 1014 651 1011 l 686 1014 q 678 992 685 1008 q 655 957 671 975 q 613 925 639 939 q 550 911 588 911 z "},"v":{"ha":643,"x_min":86,"x_max":646,"o":"m 86 722 l 136 722 l 239 53 q 361 215 306 129 q 462 388 417 300 q 541 560 507 475 q 599 722 575 644 l 646 722 q 494 357 590 540 q 249 0 399 174 l 201 0 l 86 722 z "},"w":{"ha":1017,"x_min":82,"x_max":1025,"o":"m 82 722 l 131 722 l 251 53 q 385 224 325 133 q 493 407 444 315 l 431 722 l 479 722 l 526 472 q 583 601 558 539 q 626 722 607 664 l 672 722 q 540 404 624 564 l 607 53 q 733 215 675 129 q 837 388 790 300 q 919 560 883 475 q 979 722 954 644 l 1025 722 q 870 357 968 540 q 618 0 772 174 l 571 0 l 506 343 q 397 169 457 256 q 261 0 336 83 l 214 0 l 82 722 z "},"ẃ":{"ha":1017,"x_min":82,"x_max":1025,"o":"m 581 886 l 551 904 l 657 1014 l 718 1014 l 581 886 m 82 722 l 131 722 l 251 53 q 385 224 325 133 q 493 407 444 315 l 431 722 l 479 722 l 526 472 q 583 601 558 539 q 626 722 607 664 l 672 722 q 540 404 624 564 l 607 53 q 733 215 675 129 q 837 388 790 300 q 919 560 883 475 q 979 722 954 644 l 1025 722 q 870 357 968 540 q 618 0 772 174 l 571 0 l 506 343 q 397 169 457 256 q 261 0 336 83 l 214 0 l 82 722 z "},"ŵ":{"ha":1017,"x_min":82,"x_max":1025,"o":"m 468 907 l 615 1014 l 651 1014 l 754 907 l 719 886 l 625 974 l 494 886 l 468 907 m 82 722 l 131 722 l 251 53 q 385 224 325 133 q 493 407 444 315 l 431 722 l 479 722 l 526 472 q 583 601 558 539 q 626 722 607 664 l 672 722 q 540 404 624 564 l 607 53 q 733 215 675 129 q 837 388 790 300 q 919 560 883 475 q 979 722 954 644 l 1025 722 q 870 357 968 540 q 618 0 772 174 l 571 0 l 506 343 q 397 169 457 256 q 261 0 336 83 l 214 0 l 82 722 z "},"ẅ":{"ha":1017,"x_min":82,"x_max":1025,"o":"m 489 899 l 513 1013 l 556 1013 l 532 899 l 489 899 m 656 899 l 679 1013 l 722 1013 l 699 899 l 656 899 m 82 722 l 131 722 l 251 53 q 385 224 325 133 q 493 407 444 315 l 431 722 l 479 722 l 526 472 q 583 601 558 539 q 626 722 607 664 l 672 722 q 540 404 624 564 l 607 53 q 733 215 675 129 q 837 388 790 300 q 919 560 883 475 q 979 722 954 644 l 1025 722 q 870 357 968 540 q 618 0 772 174 l 571 0 l 506 343 q 397 169 457 256 q 261 0 336 83 l 214 0 l 82 722 z "},"ẁ":{"ha":1017,"x_min":82,"x_max":1025,"o":"m 82 722 l 131 722 l 251 53 q 385 224 325 133 q 493 407 444 315 l 431 722 l 479 722 l 526 472 q 583 601 558 539 q 626 722 607 664 l 672 722 q 540 404 624 564 l 607 53 q 733 215 675 129 q 837 388 790 300 q 919 560 883 475 q 979 722 954 644 l 1025 722 q 870 357 968 540 q 618 0 772 174 l 571 0 l 506 343 q 397 169 457 256 q 261 0 336 83 l 214 0 l 82 722 m 540 1014 l 601 1014 l 661 904 l 624 886 l 540 1014 z "},"x":{"ha":643,"x_min":-64,"x_max":685,"o":"m 282 358 l 88 722 l 143 722 l 310 408 l 315 390 l 631 722 l 685 722 l 338 358 l 531 0 l 475 0 l 310 311 l 303 328 l -8 0 l -64 0 l 282 358 z "},"y":{"ha":650,"x_min":-51,"x_max":661,"o":"m -51 -272 q 22 -251 -8 -264 q 76 -217 51 -239 q 125 -163 101 -196 q 179 -85 149 -131 l 232 -3 l 72 722 l 122 722 l 267 50 l 340 168 q 449 346 404 269 q 524 485 493 422 q 575 603 554 547 q 614 722 596 660 l 661 722 q 621 598 642 656 q 568 476 600 540 q 490 332 536 411 q 374 143 443 253 l 261 -36 q 175 -165 213 -114 q 103 -246 138 -215 q 35 -291 69 -276 q -46 -311 0 -306 l -51 -272 z "},"ý":{"ha":650,"x_min":-51,"x_max":661,"o":"m -51 -272 q 22 -251 -8 -264 q 76 -217 51 -239 q 125 -163 101 -196 q 179 -85 149 -131 l 232 -3 l 72 722 l 122 722 l 267 50 l 340 168 q 449 346 404 269 q 524 485 493 422 q 575 603 554 547 q 614 722 596 660 l 661 722 q 621 598 642 656 q 568 476 600 540 q 490 332 536 411 q 374 143 443 253 l 261 -36 q 175 -165 213 -114 q 103 -246 138 -215 q 35 -291 69 -276 q -46 -311 0 -306 l -51 -272 m 389 886 l 360 904 l 465 1014 l 526 1014 l 389 886 z "}}}
